<svg width="87" height="34" viewBox="0 0 87 34" fill="none" xmlns="http://www.w3.org/2000/svg">
<path fill-rule="evenodd" clip-rule="evenodd" d="M6.09162 8H16.9631L23 13.5477L21.9389 14.503C21.7487 14.6743 21.4723 14.9232 21.1277 15.2337C20.4384 15.8547 19.476 16.7218 18.3835 17.7067C16.1985 19.6766 13.4939 22.117 11.4143 24L9.97179 22.6087C12.0532 20.7241 14.7591 18.2826 16.9443 16.3125C18.0369 15.3274 18.9996 14.46 19.689 13.8389C19.8108 13.7292 19.9241 13.6272 20.0281 13.5336L16.1146 9.93726H14.3233L18.0045 13.4358L8.99117 21.7202L0 13.4105L6.09162 8ZM8.88786 9.93726H6.91957L2.97797 13.4381L8.99518 18.9993L15.0731 13.4129L11.7293 10.235H11.5295L7.99328 13.4598L8.99527 14.365L11.4674 12.1448L12.9038 13.5415L8.99108 17.0556L5.01791 13.4663L8.88786 9.93726Z" fill="white"/>
<path d="M40.212 9.06C42.116 9.06 42.788 11.888 44.076 11.888C44.216 11.888 44.356 11.86 44.496 11.804L44.636 11.972C44.216 12.756 43.18 13.988 42.2 13.932C40.576 13.848 40.324 11.02 38.392 11.02C37.86 11.02 36.88 12.392 36.572 14.688V20.764L37.02 22.724L36.768 22.836C36.768 22.836 35.424 22.528 32.036 22.528V22.276C32.036 22.276 33.24 22.472 33.38 20.96V11.328L31.504 10.628V10.46C33.296 10.18 35.76 9.396 36.04 9.172C36.236 9.004 36.572 9.368 36.572 9.368V13.54C37.104 11.804 37.748 9.06 40.212 9.06ZM58.4052 20.4L58.6292 20.624C57.2292 21.772 56.5852 22.78 56.5852 22.78L56.3052 22.836L53.2812 21.8V19.952C52.7492 21.576 51.5452 22.836 49.2492 22.836C46.5332 22.836 44.1532 21.268 44.1532 18.44C44.1532 14.912 47.1212 13.288 49.8932 13.288C50.9572 13.288 52.1612 13.736 52.8052 14.352C51.8812 12.952 49.8372 11.748 47.4852 11.748C46.5892 11.58 45.4972 10.432 45.4972 10.432V10.236C45.8332 9.872 45.9172 9.116 50.5092 9.116C55.6892 9.116 56.4732 13.148 56.4732 13.148V20.428C56.4732 21.072 56.4452 22.052 56.6972 22.052C56.7812 22.052 57.1732 21.744 57.5372 21.408C58.0132 20.96 58.4052 20.4 58.4052 20.4ZM53.2812 14.912V13.148C53.2812 12.896 53.1132 9.396 50.5372 9.396C50.4252 9.396 48.4652 10.712 47.9332 11.384C50.4532 11.72 52.6092 13.148 53.2812 14.912ZM53.2812 18.748V15.64C52.8612 14.38 51.7412 13.708 50.7052 13.708C48.7172 13.708 47.3172 15.724 47.3172 18.188C47.3172 20.344 48.4092 22.332 50.3132 22.332C52.1332 22.332 53.0292 20.232 53.2812 18.748ZM67.6914 9.06C69.5954 9.06 70.2674 11.888 71.5554 11.888C71.6954 11.888 71.8354 11.86 71.9754 11.804L72.1154 11.972C71.6954 12.756 70.6594 13.988 69.6794 13.932C68.0554 13.848 67.8034 11.02 65.8714 11.02C65.3394 11.02 64.3594 12.392 64.0514 14.688V20.764L64.4994 22.724L64.2474 22.836C64.2474 22.836 62.9034 22.528 59.5154 22.528V22.276C59.5154 22.276 60.7194 22.472 60.8594 20.96V11.328L58.9834 10.628V10.46C60.7754 10.18 63.2394 9.396 63.5194 9.172C63.7154 9.004 64.0514 9.368 64.0514 9.368V13.54C64.5834 11.804 65.2274 9.06 67.6914 9.06ZM80.6836 12.532C83.8196 13.036 86.1996 15.108 86.1996 17.936C86.1716 20.904 83.6516 22.836 80.3756 22.836C75.8676 22.836 72.7036 20.148 72.7036 15.976C72.7036 11.776 75.6716 9.116 80.2076 9.116C81.6076 9.116 85.4156 10.404 85.4716 12.084C85.1356 12.448 84.4916 12.896 83.9876 12.896C83.7076 12.896 83.5116 12.756 83.3436 12.532H80.6836ZM80.2636 9.34C78.4716 9.34 77.3516 10.628 76.6516 12.252H83.1756C82.6716 11.216 82.4196 9.34 80.2636 9.34ZM76.5396 12.532C76.0356 13.876 75.8396 15.388 75.8396 16.536C75.8396 19.728 77.5476 22.556 80.6276 22.556C83.5116 22.556 85.9476 20.596 85.9476 17.936C85.9476 15.08 83.0356 12.532 79.1436 12.532H76.5396Z" fill="white"/>
</svg>
