<svg width="14" height="14" viewBox="0 0 14 14" fill="none" xmlns="http://www.w3.org/2000/svg">
<path d="M8.94141 12.5L7.49805 13.9434L6.05469 12.5L7.49805 11.0566L8.94141 12.5ZM7.74805 9.875V10.9248H7.24805V9.875H7.74805ZM7.74805 7.77539V8.8252H7.24805V7.77539H7.74805ZM7.74805 5.6748V6.72461H7.24805V5.6748H7.74805ZM7.74805 3.5752V4.625H7.24805V3.5752H7.74805ZM8.94141 2L7.49805 3.44336L6.05469 2L7.49805 0.556641L8.94141 2Z" fill="#70707B"/>
<path d="M2.00195 8.69336L0.558594 7.25L2.00195 5.80664L3.44531 7.25L2.00195 8.69336ZM4.62695 7.5L3.57715 7.5L3.57715 7L4.62695 7L4.62695 7.5ZM6.72656 7.5L5.67676 7.5L5.67676 7L6.72656 7L6.72656 7.5ZM8.82715 7.5L7.77734 7.5L7.77734 7L8.82715 7L8.82715 7.5ZM10.9268 7.5L9.87695 7.5L9.87695 7L10.9268 7L10.9268 7.5ZM12.502 8.69336L11.0586 7.25L12.502 5.80664L13.9453 7.25L12.502 8.69336Z" fill="#70707B"/>
</svg>
