<svg width="48" height="48" viewBox="0 0 48 48" fill="none" xmlns="http://www.w3.org/2000/svg">
<g clip-path="url(#clip0_5753_3515)">
<path d="M24.0003 3.76513L44.2351 23.9999L24.0003 44.2347L3.7655 23.9999L24.0003 3.76513ZM16.1303 27.2599L20.7403 31.8699L27.2599 31.8699L31.8699 27.2599L31.8699 20.7403L27.2599 16.1303L20.7403 16.1303L16.1303 20.7403L16.1303 27.2599ZM15.6503 21.2199L12.8703 23.9999L15.6503 26.7799L15.6503 21.2203L15.6503 21.2199ZM16.1303 27.9387L16.1303 31.8699L20.0615 31.8699L16.1303 27.9387ZM24.0003 35.1299L26.7803 32.3499L21.2207 32.3499L24.0007 35.1299L24.0003 35.1299ZM31.8703 27.9387L27.9391 31.8699L31.8703 31.8699L31.8703 27.9387ZM32.3503 26.7799L35.1303 23.9999L32.3503 21.2199L32.3503 26.7795L32.3503 26.7799ZM31.8703 20.0611L31.8703 16.1299L27.9391 16.1299L31.8703 20.0611ZM24.0003 12.8699L21.2203 15.6499L26.7799 15.6499L23.9999 12.8699L24.0003 12.8699ZM20.0615 16.1299L16.1303 16.1299L16.1303 20.0611L20.0615 16.1299ZM15.9943 15.6499L20.5415 15.6499L23.7603 12.4311L23.7603 4.68394L14.3943 14.0499L15.9943 15.6499ZM24.2403 12.4311L27.4591 15.6499L32.0063 15.6499L33.6063 14.0499L24.2403 4.68394L24.2403 12.4311ZM32.3503 15.9847L32.3503 20.5415L35.5643 23.7555L43.3115 23.7555L33.9455 14.3895L32.3503 15.9847ZM35.5735 24.2351L32.3503 27.4583L32.3503 32.0055L33.9503 33.6055L43.3207 24.2351L35.5735 24.2351ZM32.0155 32.3499L27.4587 32.3499L24.2399 35.5687L24.2399 43.3159L33.6103 33.9455L32.0151 32.3503L32.0155 32.3499ZM23.7603 35.5687L20.5415 32.3499L15.9847 32.3499L14.3895 33.9451L23.7599 43.3155L23.7599 35.5683L23.7603 35.5687ZM15.6503 32.0059L15.6503 27.4587L12.4271 24.2355L4.6799 24.2355L14.0503 33.6059L15.6503 32.0059ZM12.4363 23.7551L15.6503 20.5411L15.6503 15.9843L14.0551 14.3891L4.6891 23.7551L12.4363 23.7551Z" fill="white"/>
<g filter="url(#filter0_f_5753_3515)">
<path d="M24 13.5L31.5 21L34.5 24L24 34.5L13.5 24L24 13.5Z" fill="white"/>
</g>
<g filter="url(#filter1_f_5753_3515)">
<path d="M24 13.5L31.5 21L34.5 24L24 34.5L13.5 24L24 13.5Z" fill="white"/>
</g>
<rect x="24" y="29" width="7.07107" height="7.07107" transform="rotate(-135 24 29)" fill="white"/>
</g>
<defs>
<filter id="filter0_f_5753_3515" x="-4.5" y="-4.5" width="57" height="57" filterUnits="userSpaceOnUse" color-interpolation-filters="sRGB">
<feFlood flood-opacity="0" result="BackgroundImageFix"/>
<feBlend mode="normal" in="SourceGraphic" in2="BackgroundImageFix" result="shape"/>
<feGaussianBlur stdDeviation="9" result="effect1_foregroundBlur_5753_3515"/>
</filter>
<filter id="filter1_f_5753_3515" x="7.5" y="7.5" width="33" height="33" filterUnits="userSpaceOnUse" color-interpolation-filters="sRGB">
<feFlood flood-opacity="0" result="BackgroundImageFix"/>
<feBlend mode="normal" in="SourceGraphic" in2="BackgroundImageFix" result="shape"/>
<feGaussianBlur stdDeviation="3" result="effect1_foregroundBlur_5753_3515"/>
</filter>
<clipPath id="clip0_5753_3515">
<rect width="48" height="48" fill="white" transform="matrix(-1 -8.74228e-08 -8.74228e-08 1 48 0)"/>
</clipPath>
</defs>
</svg>
