<svg width="25" height="24" viewBox="0 0 25 24" fill="none" xmlns="http://www.w3.org/2000/svg">
<path fill-rule="evenodd" clip-rule="evenodd" d="M23 12C23 17.799 18.299 22.5 12.5 22.5C6.70101 22.5 2 17.799 2 12C2 6.20101 6.70101 1.5 12.5 1.5C18.299 1.5 23 6.20101 23 12ZM16.193 20.2099C15.0662 20.7175 13.8161 21 12.5 21C10.3273 21 8.33443 20.2301 6.7793 18.9482C8.39708 16.2335 10.9991 14.1752 14.0923 13.2646C14.9807 15.4936 15.687 17.8148 16.193 20.2099ZM17.5615 19.4429C17.0631 17.2013 16.3948 15.0238 15.5708 12.9246C16.2567 12.8097 16.9612 12.75 17.6797 12.75C18.9774 12.75 20.2285 12.9447 21.4059 13.3062C21.0355 15.8537 19.5981 18.0553 17.5615 19.4429ZM21.4971 11.77C20.2819 11.431 19.0014 11.25 17.6797 11.25C16.7583 11.25 15.8575 11.3379 14.9852 11.5057C14.7577 10.9806 14.5203 10.4608 14.2732 9.94648C16.2368 9.0749 18.0515 7.92886 19.6683 6.55718C20.7745 8.01181 21.448 9.81335 21.4971 11.77ZM18.664 5.4421C17.1461 6.72437 15.4428 7.79366 13.6 8.60405C12.6273 6.74389 11.5263 4.9615 10.3088 3.26862C11.0102 3.09316 11.7442 3 12.5 3C14.8851 3 17.0535 3.92777 18.664 5.4421ZM8.8269 3.78121C6.18481 4.9638 4.21705 7.383 3.65982 10.3026C4.17183 10.3402 4.6891 10.3594 5.21095 10.3594C7.66189 10.3594 10.0138 9.93689 12.1981 9.16062C11.206 7.28035 10.0779 5.48286 8.8269 3.78121ZM3.50229 11.795C3.50077 11.8632 3.5 11.9315 3.5 12C3.5 14.244 4.32128 16.2962 5.67965 17.8724C7.46903 15.037 10.2365 12.879 13.509 11.8734C13.3069 11.4145 13.097 10.9598 12.8795 10.5095C10.4876 11.3828 7.90473 11.8594 5.21095 11.8594C4.6362 11.8594 4.06638 11.8377 3.50229 11.795Z" fill="white"/>
</svg>
