<svg width="1920" height="1080" viewBox="0 0 1920 1080" fill="none" xmlns="http://www.w3.org/2000/svg">
<line x1="0.500061" y1="2.18557e-08" x2="0.500014" y2="1080" stroke="#0f0f12"/>
<line x1="101.553" y1="2.18557e-08" x2="101.553" y2="1080" stroke="#0f0f12"/>
<line x1="202.605" y1="2.18557e-08" x2="202.605" y2="1080" stroke="#0f0f12"/>
<line x1="303.658" y1="2.18557e-08" x2="303.658" y2="1080" stroke="#0f0f12"/>
<line x1="404.711" y1="2.18557e-08" x2="404.711" y2="1080" stroke="#0f0f12"/>
<line x1="505.763" y1="2.18557e-08" x2="505.763" y2="1080" stroke="#0f0f12"/>
<line x1="606.816" y1="2.18557e-08" x2="606.816" y2="1080" stroke="#0f0f12"/>
<line x1="707.868" y1="2.18557e-08" x2="707.868" y2="1080" stroke="#0f0f12"/>
<line x1="808.921" y1="2.18557e-08" x2="808.921" y2="1080" stroke="#0f0f12"/>
<line x1="909.974" y1="2.18557e-08" x2="909.974" y2="1080" stroke="#0f0f12"/>
<line x1="1011.03" y1="2.18557e-08" x2="1011.03" y2="1080" stroke="#0f0f12"/>
<line x1="1112.08" y1="2.18557e-08" x2="1112.08" y2="1080" stroke="#0f0f12"/>
<line x1="1213.13" y1="2.18557e-08" x2="1213.13" y2="1080" stroke="#0f0f12"/>
<line x1="1314.18" y1="2.18557e-08" x2="1314.18" y2="1080" stroke="#0f0f12"/>
<line x1="1415.24" y1="2.18557e-08" x2="1415.24" y2="1080" stroke="#0f0f12"/>
<line x1="1516.29" y1="2.18557e-08" x2="1516.29" y2="1080" stroke="#0f0f12"/>
<line x1="1617.34" y1="2.18557e-08" x2="1617.34" y2="1080" stroke="#0f0f12"/>
<line x1="1718.39" y1="2.18557e-08" x2="1718.39" y2="1080" stroke="#0f0f12"/>
<line x1="1819.45" y1="2.18557e-08" x2="1819.45" y2="1080" stroke="#0f0f12"/>
<line x1="1920.5" y1="2.18557e-08" x2="1920.5" y2="1080" stroke="#0f0f12"/>
<line x1="1920" y1="85.7632" x2="0.000122027" y2="85.763" stroke="#0f0f12"/>
<line x1="1920" y1="186.816" x2="0.000122027" y2="186.816" stroke="#0f0f12"/>
<line x1="1920" y1="287.868" x2="6.09914e-05" y2="287.868" stroke="#0f0f12"/>
<line x1="1920" y1="388.921" x2="6.09914e-05" y2="388.921" stroke="#0f0f12"/>
<line x1="1920" y1="489.974" x2="6.09914e-05" y2="489.973" stroke="#0f0f12"/>
<line x1="1920" y1="591.026" x2="6.09914e-05" y2="591.026" stroke="#0f0f12"/>
<line x1="1920" y1="692.079" x2="6.09914e-05" y2="692.079" stroke="#0f0f12"/>
<line x1="1920" y1="793.132" x2="6.09914e-05" y2="793.131" stroke="#0f0f12"/>
<line x1="1920" y1="894.184" x2="6.09914e-05" y2="894.184" stroke="#0f0f12"/>
<line x1="1920" y1="995.237" x2="6.09914e-05" y2="995.237" stroke="#0f0f12"/>
</svg>
