<svg width="81" height="26" viewBox="0 0 81 26" fill="none" xmlns="http://www.w3.org/2000/svg">
<path fill-rule="evenodd" clip-rule="evenodd" d="M6.59162 4H17.4631L23.5 9.54766L22.4389 10.503C22.2487 10.6743 21.9723 10.9232 21.6277 11.2337C20.9384 11.8547 19.976 12.7218 18.8835 13.7067C16.6985 15.6766 13.9939 18.117 11.9143 20L10.4718 18.6087C12.5532 16.7241 15.2591 14.2826 17.4443 12.3125C18.5369 11.3274 19.4996 10.46 20.189 9.83894C20.3108 9.72922 20.4241 9.62719 20.5281 9.53355L16.6146 5.93726H14.8233L18.5045 9.43577L9.49117 17.7202L0.5 9.4105L6.59162 4ZM9.38786 5.93726H7.41957L3.47797 9.43814L9.49518 14.9993L15.5731 9.41287L12.2293 6.23503H12.0295L8.49328 9.4598L9.49527 10.365L11.9674 8.14475L13.4038 9.54154L9.49108 13.0556L5.51791 9.46634L9.38786 5.93726Z" fill="white"/>
<path d="M40.542 9.904L39.2 10.454C39.002 10.564 38.804 10.674 38.606 10.762C39.178 10.828 40.454 11.136 41.29 11.862C42.654 13.05 42.874 14.458 43.776 17.01C43.974 17.45 44.348 17.802 44.634 18.176L44.48 18.374C43.776 18.132 42.126 18.11 41.356 18.11H38.474V17.934C39.046 18.044 41.466 17.978 41.356 16.922C41.004 13.512 40.212 11.488 38.342 10.938C37.286 11.598 36.494 12.5 36.406 13.908V16.812C36.406 16.856 36.67 18.066 36.714 18.176L36.516 18.286C36.362 18.044 33.062 18.022 32.82 18.022V17.824C33.59 17.912 33.876 17.296 33.876 16.614V4.492L32.446 3.964V3.832C33.458 3.678 34.316 3.304 35.174 2.798L38.606 2.776C40.938 2.776 43.622 3.612 43.622 6.406C43.622 8.144 41.95 9.266 40.542 9.904ZM36.406 12.918C37.572 9.398 41.092 11.048 41.092 6.34C41.092 4.426 40.014 3.018 38.188 3.018H36.406V12.918ZM57.1362 16.35L57.3122 16.526C56.2122 17.428 55.7062 18.22 55.7062 18.22L55.4862 18.264L53.1102 17.45V15.998C52.6922 17.274 51.7462 18.264 49.9422 18.264C47.8082 18.264 45.9382 17.032 45.9382 14.81C45.9382 12.038 48.2702 10.762 50.4482 10.762C51.2842 10.762 52.2302 11.114 52.7362 11.598C52.0102 10.498 50.4042 9.552 48.5562 9.552C47.8522 9.42 46.9942 8.518 46.9942 8.518V8.364C47.2582 8.078 47.3242 7.484 50.9322 7.484C55.0022 7.484 55.6182 10.652 55.6182 10.652V16.372C55.6182 16.878 55.5962 17.648 55.7942 17.648C55.8602 17.648 56.1682 17.406 56.4542 17.142C56.8282 16.79 57.1362 16.35 57.1362 16.35ZM53.1102 12.038V10.652C53.1102 10.454 52.9782 7.704 50.9542 7.704C50.8662 7.704 49.3262 8.738 48.9082 9.266C50.8882 9.53 52.5822 10.652 53.1102 12.038ZM53.1102 15.052V12.61C52.7802 11.62 51.9002 11.092 51.0862 11.092C49.5242 11.092 48.4242 12.676 48.4242 14.612C48.4242 16.306 49.2822 17.868 50.7782 17.868C52.2082 17.868 52.9122 16.218 53.1102 15.052ZM64.4325 7.44C65.9285 7.44 66.4565 9.662 67.4685 9.662C67.5785 9.662 67.6885 9.64 67.7985 9.596L67.9085 9.728C67.5785 10.344 66.7645 11.312 65.9945 11.268C64.7185 11.202 64.5205 8.98 63.0025 8.98C62.5845 8.98 61.8145 10.058 61.5725 11.862V16.636L61.9245 18.176L61.7265 18.264C61.7265 18.264 60.6705 18.022 58.0085 18.022V17.824C58.0085 17.824 58.9545 17.978 59.0645 16.79V9.222L57.5905 8.672V8.54C58.9985 8.32 60.9345 7.704 61.1545 7.528C61.3085 7.396 61.5725 7.682 61.5725 7.682V10.96C61.9905 9.596 62.4965 7.44 64.4325 7.44ZM74.6406 10.168C77.1046 10.564 78.9746 12.192 78.9746 14.414C78.9526 16.746 76.9726 18.264 74.3986 18.264C70.8566 18.264 68.3706 16.152 68.3706 12.874C68.3706 9.574 70.7026 7.484 74.2666 7.484C75.3666 7.484 78.3586 8.496 78.4026 9.816C78.1386 10.102 77.6326 10.454 77.2366 10.454C77.0166 10.454 76.8626 10.344 76.7306 10.168H74.6406ZM74.3106 7.66C72.9026 7.66 72.0226 8.672 71.4726 9.948H76.5986C76.2026 9.134 76.0046 7.66 74.3106 7.66ZM71.3846 10.168C70.9886 11.224 70.8346 12.412 70.8346 13.314C70.8346 15.822 72.1766 18.044 74.5966 18.044C76.8626 18.044 78.7766 16.504 78.7766 14.414C78.7766 12.17 76.4886 10.168 73.4306 10.168H71.3846Z" fill="white"/>
</svg>
