<svg width="40" height="28" viewBox="0 0 40 28" fill="none" xmlns="http://www.w3.org/2000/svg">
<path fill-rule="evenodd" clip-rule="evenodd" d="M10.5941 0H29.501L40 9.7084L38.1546 11.3803C37.8238 11.6801 37.3432 12.1157 36.7438 12.659C35.545 13.7456 33.8712 15.2632 31.9714 16.9867C28.1713 20.4341 23.4677 24.7047 19.8509 28L17.3422 25.5652C20.962 22.2672 25.668 17.9945 29.4683 14.5468C31.3686 12.8229 33.0427 11.305 34.2418 10.2182C34.4536 10.0261 34.6506 9.84758 34.8314 9.68371L28.0254 3.3902H24.9101L31.3122 9.51259L15.6368 24.0103L0 9.46838L10.5941 0ZM15.4572 3.3902H12.034L5.17907 9.51675L15.6438 19.2487L26.2141 9.47253L20.3988 3.91131H20.0514L13.9014 9.55464L15.644 11.1387L19.9432 7.25331L22.4413 9.69769L15.6367 15.8473L8.7268 9.56609L15.4572 3.3902Z" fill="white"/>
</svg>
