<svg width="20" height="20" viewBox="0 0 20 20" fill="none" xmlns="http://www.w3.org/2000/svg">
<path d="M1.66797 5.83334L8.47207 10.5962C9.02304 10.9819 9.29853 11.1747 9.59819 11.2494C9.86288 11.3154 10.1397 11.3154 10.4044 11.2494C10.7041 11.1747 10.9796 10.9819 11.5305 10.5962L18.3346 5.83334M5.66797 16.6667H14.3346C15.7348 16.6667 16.4348 16.6667 16.9696 16.3942C17.44 16.1545 17.8225 15.7721 18.0622 15.3017C18.3346 14.7669 18.3346 14.0668 18.3346 12.6667V7.33334C18.3346 5.93321 18.3346 5.23315 18.0622 4.69837C17.8225 4.22796 17.44 3.84551 16.9696 3.60583C16.4348 3.33334 15.7348 3.33334 14.3346 3.33334H5.66797C4.26784 3.33334 3.56777 3.33334 3.03299 3.60583C2.56259 3.84551 2.18014 4.22796 1.94045 4.69837C1.66797 5.23315 1.66797 5.93321 1.66797 7.33334V12.6667C1.66797 14.0668 1.66797 14.7669 1.94045 15.3017C2.18014 15.7721 2.56259 16.1545 3.03299 16.3942C3.56777 16.6667 4.26784 16.6667 5.66797 16.6667Z" stroke="white" stroke-linecap="round" stroke-linejoin="round"/>
</svg>
