<svg width="20" height="20" viewBox="0 0 20 20" fill="none" xmlns="http://www.w3.org/2000/svg">
<path d="M11.7094 4.99999C12.5233 5.15879 13.2713 5.55687 13.8577 6.14327C14.4441 6.72967 14.8422 7.47771 15.001 8.29166M11.7094 1.66666C13.4004 1.85452 14.9773 2.6118 16.1812 3.81416C17.3851 5.01652 18.1444 6.5925 18.3344 8.28332M8.5235 11.5525C7.52219 10.5512 6.73153 9.41903 6.15153 8.21101C6.10164 8.10711 6.0767 8.05515 6.05753 7.98941C5.98943 7.75578 6.03835 7.4689 6.18003 7.27104C6.21989 7.21536 6.26752 7.16773 6.36278 7.07247C6.65412 6.78114 6.79979 6.63547 6.89503 6.48898C7.25419 5.93658 7.25419 5.22442 6.89503 4.67202C6.79979 4.52553 6.65412 4.37987 6.36278 4.08853L6.20039 3.92614C5.75752 3.48327 5.53609 3.26183 5.29827 3.14155C4.8253 2.90232 4.26675 2.90232 3.79378 3.14155C3.55596 3.26183 3.33453 3.48327 2.89166 3.92614L2.7603 4.0575C2.31895 4.49885 2.09827 4.71953 1.92973 5.01955C1.74271 5.35248 1.60825 5.86955 1.60938 6.2514C1.61041 6.59553 1.67716 6.83071 1.81067 7.30108C2.52814 9.82891 3.88187 12.2142 5.87185 14.2042C7.86184 16.1942 10.2471 17.5479 12.775 18.2654C13.2453 18.3989 13.4805 18.4656 13.8246 18.4667C14.2065 18.4678 14.7236 18.3333 15.0565 18.1463C15.3565 17.9778 15.5772 17.7571 16.0186 17.3158L16.1499 17.1844C16.5928 16.7415 16.8142 16.5201 16.9345 16.2823C17.1737 15.8093 17.1737 15.2507 16.9345 14.7778C16.8142 14.54 16.5928 14.3185 16.1499 13.8757L15.9875 13.7133C15.6962 13.4219 15.5505 13.2763 15.404 13.181C14.8516 12.8219 14.1395 12.8219 13.5871 13.181C13.4406 13.2763 13.2949 13.4219 13.0036 13.7133C12.9083 13.8085 12.8607 13.8562 12.805 13.896C12.6072 14.0377 12.3203 14.0866 12.0866 14.0185C12.0209 13.9994 11.9689 13.9744 11.865 13.9245C10.657 13.3445 9.52482 12.5539 8.5235 11.5525Z" stroke="white" stroke-linecap="round" stroke-linejoin="round"/>
</svg>
