<svg width="379" height="379" viewBox="0 0 379 379" fill="none" xmlns="http://www.w3.org/2000/svg">
<circle cx="189.504" cy="189.504" r="188.504" stroke="#1A1A1E"/>
<circle cx="189.5" cy="189.5" r="182.5" stroke="#26272B"/>
<circle cx="189.5" cy="189.5" r="137.5" stroke="#1A1A1E"/>
<circle cx="189.5" cy="189.5" r="147.5" stroke="#26272B" stroke-width="4"/>
<path d="M66.4386 98.0826L49.671 85.4395M329.131 296.158L312.363 283.515M281.921 66.442L294.564 49.6744M83.8456 329.134L96.4887 312.367M80.4021 81.8146L65.5529 66.9654M313.04 314.453L298.191 299.604M298.19 80.4066L313.039 65.5574M65.5522 313.045L80.4014 298.195M94.4347 69.2365L81.5107 52.6845M296.91 328.552L283.987 312M310.763 94.4448L327.315 81.5208M51.4472 296.921L67.9993 283.997M36 191H15M365 191H344M189.004 36.0049V15.0049M189.004 365.005V344.005M149.179 41.5107L143.744 21.2262M234.33 359.301L228.895 339.016M338.493 149.185L358.777 143.75M20.7029 234.337L40.9873 228.901M112.136 57.1346L101.636 38.9481M276.636 342.057L266.136 323.871M322.867 112.142L341.054 101.642M37.9444 276.642L56.131 266.142M56.1309 113.866L37.9444 103.366M341.054 278.367L322.867 267.867M266.133 56.1385L276.633 37.952M101.633 341.062L112.133 322.875M40.9893 151.108L20.7049 145.673M358.784 236.259L338.5 230.824M228.895 40.9949L234.33 20.7105M143.743 358.785L149.178 338.501M37.6277 212.378L16.8312 215.294M363.44 166.686L342.643 169.603M167.623 37.6355L164.707 16.8391M213.315 363.447L210.398 342.651M128.954 48.6185L120.754 29.2854M257.415 351.503L249.215 332.17M331.387 128.958L350.72 120.758M28.5025 257.418L47.8355 249.219M46.8541 133.195L27.3856 125.322M351.862 256.531L332.393 248.659M246.804 46.8617L254.677 27.3932M123.468 351.869L131.34 332.401M37.0295 172.179L16.1868 169.614M363.57 212.37L342.727 209.805M207.822 37.037L210.387 16.1943M167.63 363.573L170.195 342.731" stroke="#26272B" stroke-width="2"/>
</svg>
