<svg width="351" height="351" viewBox="0 0 351 351" fill="none" xmlns="http://www.w3.org/2000/svg">
<path d="M51.9236 83.5627L35.156 70.9196M314.616 281.638L297.848 268.995M267.406 51.9221L280.049 35.1545M69.3306 314.614L81.9737 297.847M65.8854 67.2953L51.0361 52.4461M298.524 299.933L283.674 285.084M283.673 65.8873L298.523 51.0381M51.0354 298.525L65.8847 283.676M79.9211 54.7168L66.9971 38.1647M282.397 314.033L269.473 297.481M296.25 79.925L312.802 67.001M36.9336 282.401L53.4857 269.477M21.4844 176.48H0.484375M350.484 176.48H329.484M174.488 21.4854V0.485352M174.488 350.485V329.485M134.661 26.9911L129.226 6.70665M219.813 344.781L214.378 324.497M323.975 134.665L344.26 129.23M6.18548 219.817L26.4699 214.382M97.6186 42.6147L87.1186 24.4282M262.119 327.537L251.619 309.351M308.35 97.6222L326.536 87.1222M23.4271 262.122L41.6136 251.622M41.6133 99.3471L23.4267 88.8471M326.536 263.847L308.35 253.347M251.615 41.6194L262.115 23.4328M87.1151 326.542L97.6151 308.356M26.4741 136.588L6.18968 131.153M344.269 221.739L323.985 216.304M214.38 26.4751L219.815 6.19064M129.228 344.265L134.663 323.981M23.1102 197.858L2.31368 200.775M348.922 152.167L328.126 155.083M153.106 23.1159L150.189 2.3194M198.797 348.928L195.881 328.131M114.437 34.0988L106.237 14.7658M242.898 336.983L234.698 317.65M316.87 114.438L336.203 106.238M13.9854 242.899L33.3185 234.699M32.3376 118.675L12.8691 110.803M337.345 242.012L317.877 234.139M232.288 32.3423L240.16 12.8737M108.951 337.35L116.824 317.881M22.5139 157.66L1.6712 155.094M349.054 197.851L328.212 195.285M193.306 22.5174L195.872 1.67473M153.114 349.054L155.68 328.211" stroke="#26272B" stroke-width="2"/>
</svg>
