<svg width="587" height="587" viewBox="0 0 587 587" fill="none" xmlns="http://www.w3.org/2000/svg">
<line y1="-1" x2="60" y2="-1" transform="matrix(4.3711e-08 1 1 -4.3711e-08 294 33.4951)" stroke="#26272B" stroke-width="2"/>
<line y1="-1" x2="8" y2="-1" transform="matrix(-4.37113e-08 1 1 4.37113e-08 294 166.495)" stroke="#26272B" stroke-width="2"/>
<line y1="-1" x2="8" y2="-1" transform="matrix(-4.37113e-08 1 1 4.37113e-08 294 414.495)" stroke="#26272B" stroke-width="2"/>
<line x1="421" y1="294.495" x2="413" y2="294.495" stroke="#26272B" stroke-width="2"/>
<line x1="174" y1="294.495" x2="166" y2="294.495" stroke="#26272B" stroke-width="2"/>
<line x1="14" y1="294.495" y2="294.495" stroke="#26272B" stroke-width="2"/>
<line x1="587" y1="294.495" x2="573" y2="294.495" stroke="#26272B" stroke-width="2"/>
<line x1="292.5" y1="14" x2="292.5" y2="-4.37114e-08" stroke="#26272B" stroke-width="2"/>
<line x1="292.5" y1="587" x2="292.5" y2="573" stroke="#26272B" stroke-width="2"/>
<line y1="-1" x2="60" y2="-1" transform="matrix(4.3711e-08 1 1 -4.3711e-08 294 494.495)" stroke="#26272B" stroke-width="2"/>
<line x1="554.5" y1="294.99" x2="494.5" y2="294.99" stroke="#26272B" stroke-width="2"/>
<line x1="93.5" y1="294.99" x2="33.5" y2="294.99" stroke="#26272B" stroke-width="2"/>
</svg>
