<svg width="136" height="136" viewBox="0 0 136 136" fill="none" xmlns="http://www.w3.org/2000/svg">
<path d="M68.001 15.5723C68.3587 24.4005 68.8537 31.7116 69.7656 37.7686C71.1669 47.0755 73.5598 53.511 78.0127 57.9619C82.4655 62.4127 88.9039 64.8035 98.2148 66.2041C104.272 67.1152 111.582 67.6104 120.408 67.9678C111.582 68.3254 104.272 68.8213 98.2148 69.7324C88.9039 71.1331 82.4655 73.5239 78.0127 77.9746C73.5599 82.4253 71.1679 88.8604 69.7666 98.167C68.8546 104.224 68.3587 111.535 68.001 120.362C67.6429 111.535 67.1474 104.224 66.2354 98.167C64.8338 88.8604 62.4411 82.4253 57.9883 77.9746C53.5354 73.5239 47.0972 71.1331 37.7861 69.7324C31.7292 68.8213 24.4187 68.3254 15.5918 67.9678C24.4189 67.6104 31.7301 67.1152 37.7871 66.2041C47.0978 64.8035 53.5355 62.4126 57.9883 57.9619C62.4412 53.511 64.8339 47.0755 66.2354 37.7686C67.1474 31.7116 67.643 24.4005 68.001 15.5723Z" stroke="white"/>
</svg>
