<svg width="24" height="25" viewBox="0 0 24 25" fill="none" xmlns="http://www.w3.org/2000/svg">
<path d="M18.0008 16.3369C19.4567 17.0683 20.7049 18.242 21.6161 19.7096C21.7965 20.0003 21.8867 20.1456 21.9179 20.3468C21.9813 20.7558 21.7016 21.2585 21.3207 21.4204C21.1333 21.5 20.9225 21.5 20.5008 21.5M16.0008 12.0322C17.4825 11.2959 18.5008 9.76686 18.5008 8C18.5008 6.23314 17.4825 4.70411 16.0008 3.96776M14.0008 8C14.0008 10.4853 11.9861 12.5 9.50081 12.5C7.01553 12.5 5.00081 10.4853 5.00081 8C5.00081 5.51472 7.01553 3.5 9.50081 3.5C11.9861 3.5 14.0008 5.51472 14.0008 8ZM2.56004 19.4383C4.15435 17.0446 6.67019 15.5 9.50081 15.5C12.3314 15.5 14.8473 17.0446 16.4416 19.4383C16.7909 19.9628 16.9655 20.225 16.9454 20.5599C16.9297 20.8207 16.7588 21.14 16.5504 21.2976C16.2827 21.5 15.9146 21.5 15.1785 21.5H3.82317C3.08698 21.5 2.71889 21.5 2.45125 21.2976C2.24286 21.14 2.0719 20.8207 2.05625 20.5599C2.03614 20.225 2.21078 19.9628 2.56004 19.4383Z" stroke="white" stroke-linecap="round" stroke-linejoin="round"/>
</svg>
