<svg width="38" height="38" viewBox="0 0 38 38" fill="none" xmlns="http://www.w3.org/2000/svg">
<path d="M20.5 8C20.5 7.17157 19.8284 6.5 19 6.5C18.1716 6.5 17.5 7.17157 17.5 8H20.5ZM17.9393 30.0845C18.5251 30.6702 19.4749 30.6702 20.0607 30.0845L29.6066 20.5385C30.1924 19.9527 30.1924 19.003 29.6066 18.4172C29.0208 17.8314 28.0711 17.8314 27.4853 18.4172L19 26.9025L10.5147 18.4172C9.92893 17.8314 8.97918 17.8314 8.3934 18.4172C7.80761 19.003 7.80761 19.9527 8.3934 20.5385L17.9393 30.0845ZM17.5 8V29.0238H20.5V8H17.5Z" fill="white"/>
</svg>
