<svg width="180" height="180" viewBox="0 0 180 180" fill="none" xmlns="http://www.w3.org/2000/svg">
<path d="M100.276 6.50299C100.254 5.8221 99.9747 5.27113 99.4389 4.85007C98.9031 4.42901 98.2229 4.1832 97.398 4.11264C96.7949 4.06105 96.2589 4.11347 95.7898 4.26989C95.3253 4.4267 94.952 4.66502 94.67 4.98486C94.3925 5.30507 94.2351 5.68248 94.1979 6.11706C94.1668 6.4807 94.2265 6.80073 94.3771 7.07717C94.5325 7.34954 94.7403 7.58397 95.0004 7.78044C95.2609 7.97247 95.5372 8.13682 95.8293 8.27348C96.1217 8.4057 96.3915 8.51589 96.6386 8.60403L97.9903 9.09489C98.3371 9.21836 98.7208 9.38073 99.1413 9.58198C99.5663 9.78362 99.9662 10.0434 100.341 10.3614C100.721 10.6753 101.023 11.0629 101.247 11.5243C101.471 11.9857 101.555 12.5357 101.501 13.1743C101.438 13.9104 101.188 14.5591 100.751 15.1203C100.319 15.6819 99.72 16.1064 98.9539 16.3938C98.1923 16.6815 97.2881 16.7806 96.2416 16.6911C95.266 16.6076 94.4347 16.3779 93.7476 16.002C93.065 15.6265 92.5438 15.1396 92.184 14.5416C91.8287 13.9438 91.6563 13.2702 91.6668 12.5206L93.3696 12.6663C93.37 13.1845 93.5065 13.625 93.7792 13.9879C94.0568 14.3466 94.4213 14.628 94.8729 14.8319C95.3293 15.0317 95.828 15.1548 96.3691 15.2011C96.9988 15.255 97.5729 15.2013 98.0914 15.0402C98.6104 14.8746 99.0319 14.6204 99.3561 14.2773C99.6807 13.9299 99.8642 13.5078 99.9067 13.0111C99.9453 12.5588 99.8505 12.1799 99.622 11.8745C99.3935 11.569 99.0806 11.31 98.6834 11.0973C98.2861 10.8847 97.8537 10.6913 97.3862 10.5173L95.7509 9.89499C94.7128 9.49796 93.9076 8.98908 93.3353 8.36835C92.763 7.74762 92.5161 6.97827 92.5947 6.06032C92.6599 5.29757 92.923 4.65003 93.384 4.11769C93.8498 3.58129 94.4465 3.18563 95.1741 2.93071C95.9065 2.67174 96.7073 2.57943 97.5764 2.65379C98.4545 2.7289 99.2215 2.95309 99.8775 3.32637C100.534 3.69521 101.038 4.16721 101.391 4.74237C101.749 5.3179 101.909 5.9503 101.872 6.63955L100.276 6.50299Z" fill="white"/>
<path d="M117.62 11.2828L116.024 10.844C116.056 10.3588 116.001 9.91003 115.861 9.49753C115.724 9.08621 115.521 8.71653 115.252 8.38849C114.987 8.05733 114.67 7.77623 114.299 7.54518C113.929 7.31414 113.525 7.13845 113.087 7.01814C112.289 6.79873 111.51 6.80168 110.751 7.02697C109.997 7.25345 109.321 7.70687 108.723 8.38725C108.129 9.06881 107.676 9.98037 107.362 11.1219C107.048 12.2635 106.972 13.2789 107.134 14.168C107.3 15.0584 107.649 15.7937 108.182 16.3741C108.72 16.9556 109.387 17.3561 110.185 17.5755C110.623 17.6958 111.06 17.7513 111.497 17.742C111.933 17.7327 112.349 17.6555 112.744 17.5103C113.145 17.362 113.509 17.1458 113.836 16.8619C114.169 16.5749 114.445 16.2169 114.665 15.7879L116.261 16.2267C115.956 16.8675 115.571 17.4103 115.107 17.8552C114.644 18.3 114.124 18.6443 113.55 18.8879C112.976 19.1272 112.369 19.2626 111.728 19.2942C111.091 19.3269 110.44 19.2518 109.775 19.0689C108.651 18.7599 107.726 18.2104 107.002 17.4204C106.277 16.6305 105.803 15.6601 105.579 14.5092C105.356 13.3584 105.435 12.0878 105.817 10.6973C106.199 9.30681 106.78 8.17417 107.561 7.29936C108.341 6.42456 109.245 5.83281 110.271 5.52412C111.298 5.21543 112.373 5.21561 113.498 5.52466C114.163 5.70749 114.761 5.97568 115.291 6.32923C115.826 6.68396 116.278 7.11288 116.648 7.616C117.018 8.11483 117.289 8.67397 117.461 9.29342C117.633 9.90858 117.686 10.5717 117.62 11.2828Z" fill="white"/>
<path d="M118.203 21.6368L124.179 9.33894L128.334 11.358C129.295 11.8248 130.004 12.3722 130.461 13C130.92 13.6238 131.159 14.2919 131.179 15.0043C131.199 15.7167 131.033 16.4352 130.681 17.1598C130.329 17.8843 129.869 18.4549 129.3 18.8714C128.732 19.2879 128.063 19.5075 127.295 19.5301C126.529 19.5488 125.67 19.3266 124.717 18.8637L121.354 17.2297L122.008 15.8847L125.322 17.4953C125.979 17.8143 126.554 17.9749 127.048 17.9773C127.545 17.9816 127.97 17.8514 128.321 17.5866C128.679 17.3198 128.977 16.9402 129.216 16.4478C129.455 15.9554 129.572 15.4804 129.567 15.0226C129.562 14.5648 129.406 14.1376 129.099 13.741C128.794 13.3404 128.309 12.9786 127.644 12.6557L125.026 11.3836L119.693 22.3604L118.203 21.6368ZM126.676 18.925L127.018 25.92L125.289 25.0797L124.995 18.1081L126.676 18.925Z" fill="white"/>
<path d="M142.862 28.8283C142.001 29.9852 141.049 30.8295 140.004 31.3612C138.959 31.893 137.902 32.1163 136.834 32.0313C135.765 31.9462 134.763 31.5556 133.828 30.8594C132.892 30.1632 132.23 29.3156 131.842 28.3165C131.454 27.3174 131.364 26.241 131.574 25.0875C131.783 23.934 132.318 22.7788 133.179 21.622C134.04 20.4651 134.993 19.6208 136.038 19.0891C137.083 18.5573 138.139 18.334 139.208 18.4191C140.276 18.5041 141.278 18.8947 142.214 19.5909C143.149 20.2871 143.811 21.1348 144.199 22.1338C144.588 23.1329 144.677 24.2093 144.468 25.3628C144.258 26.5163 143.723 27.6715 142.862 28.8283ZM141.577 27.8717C142.284 26.922 142.721 26.0022 142.89 25.1123C143.062 24.225 143.003 23.413 142.714 22.6761C142.428 21.9419 141.953 21.3277 141.289 20.8334C140.625 20.3392 139.899 20.0593 139.11 19.9937C138.324 19.9307 137.53 20.1077 136.726 20.5246C135.925 20.9441 135.171 21.6288 134.465 22.5786C133.758 23.5283 133.318 24.4468 133.146 25.334C132.978 26.2239 133.036 27.036 133.322 27.7702C133.612 28.5071 134.088 29.1226 134.752 29.6169C135.417 30.1111 136.141 30.3897 136.927 30.4527C137.716 30.5183 138.51 30.3413 139.311 29.9217C140.115 29.5048 140.87 28.8215 141.577 27.8717Z" fill="white"/>
<path d="M141.205 36.7428L151.165 27.3748L152.299 28.5807L143.41 36.9424L147.764 41.5719L146.695 42.5782L141.205 36.7428Z" fill="white"/>
<path d="M148.628 45.045L159.877 37.2725L160.818 38.6347L150.778 45.5722L154.391 50.8011L153.183 51.636L148.628 45.045Z" fill="white"/>
<path d="M168.356 54.215L169.725 53.6822L173.445 63.238L172.076 63.7709L170.516 59.7644L159.144 64.1921L158.543 62.6493L169.916 58.2215L168.356 54.215Z" fill="white"/>
<path d="M170.318 80.864C168.901 81.1307 167.628 81.1053 166.5 80.7878C165.371 80.4703 164.443 79.9181 163.715 79.1311C162.988 78.3442 162.516 77.3778 162.3 76.2318C162.084 75.0858 162.173 74.014 162.565 73.0163C162.957 72.0187 163.62 71.1668 164.556 70.4608C165.492 69.7548 166.669 69.2685 168.086 69.0018C169.503 68.7351 170.776 68.7605 171.905 69.078C173.033 69.3955 173.961 69.9477 174.689 70.7347C175.417 71.5216 175.889 72.488 176.104 73.634C176.32 74.78 176.232 75.8518 175.84 76.8495C175.448 77.8471 174.784 78.699 173.848 79.405C172.912 80.111 171.736 80.5973 170.318 80.864ZM170.022 79.2894C171.186 79.0704 172.131 78.691 172.858 78.1511C173.586 77.6156 174.094 76.9789 174.38 76.241C174.668 75.5075 174.735 74.734 174.582 73.9205C174.429 73.1069 174.085 72.4086 173.549 71.8255C173.015 71.2468 172.311 70.8381 171.437 70.5994C170.564 70.3651 169.546 70.3575 168.382 70.5764C167.219 70.7954 166.273 71.1726 165.545 71.7081C164.818 72.2481 164.311 72.8848 164.023 73.6182C163.736 74.3561 163.669 75.1318 163.822 75.9453C163.975 76.7589 164.319 77.455 164.854 78.0338C165.389 78.6169 166.093 79.0255 166.966 79.2598C167.84 79.4985 168.859 79.5083 170.022 79.2894Z" fill="white"/>
<path d="M163.869 91.2389L177.507 92.2015L176.927 100.433L175.461 100.329L175.926 93.7497L171.317 93.4244L170.883 99.5779L169.418 99.4745L169.852 93.321L165.217 92.9939L164.745 99.6801L163.28 99.5767L163.869 91.2389Z" fill="white"/>
<path d="M175.866 107.071L169.5 109.135L169.475 109.238L174.156 114.02L173.69 115.913L168.079 110.105L160.413 112.647L160.879 110.754L167.141 108.664L167.166 108.56L162.589 103.804L163.055 101.911L168.64 107.823L176.331 105.178L175.866 107.071Z" fill="white"/>
<path d="M159.218 115.935L171.712 121.489L169.836 125.711C169.4 126.691 168.867 127.413 168.236 127.878C167.608 128.349 166.928 128.602 166.197 128.637C165.465 128.673 164.731 128.527 163.995 128.199C163.259 127.872 162.657 127.424 162.189 126.856C161.719 126.291 161.443 125.618 161.362 124.837C161.285 124.057 161.462 123.182 161.894 122.21L163.239 119.184L164.581 119.78L163.258 122.757C162.96 123.428 162.836 124.019 162.887 124.529C162.938 125.038 163.12 125.472 163.433 125.831C163.749 126.195 164.157 126.488 164.657 126.711C165.157 126.933 165.646 127.038 166.124 127.027C166.599 127.019 167.041 126.86 167.447 126.548C167.857 126.239 168.213 125.744 168.515 125.065L169.698 122.405L158.546 117.448L159.218 115.935Z" fill="white"/>
<path d="M153.794 127.221L165.266 134.661L164.365 136.05L154.126 129.409L150.667 134.742L149.435 133.942L153.794 127.221Z" fill="white"/>
<path d="M145.025 149.204C143.968 148.224 143.232 147.185 142.816 146.089C142.4 144.993 142.293 143.918 142.493 142.865C142.693 141.812 143.189 140.858 143.983 140.003C144.776 139.148 145.69 138.582 146.725 138.304C147.76 138.026 148.84 138.053 149.964 138.386C151.088 138.719 152.179 139.376 153.236 140.357C154.293 141.338 155.029 142.376 155.445 143.473C155.861 144.569 155.969 145.643 155.769 146.696C155.569 147.749 155.072 148.703 154.279 149.558C153.485 150.413 152.571 150.979 151.536 151.257C150.501 151.535 149.421 151.508 148.297 151.175C147.173 150.842 146.082 150.185 145.025 149.204ZM146.115 148.03C146.983 148.835 147.85 149.37 148.717 149.634C149.58 149.9 150.394 149.93 151.157 149.722C151.918 149.517 152.58 149.111 153.143 148.505C153.706 147.898 154.063 147.206 154.214 146.428C154.361 145.655 154.271 144.845 153.944 144.001C153.613 143.16 153.014 142.337 152.146 141.531C151.278 140.726 150.413 140.19 149.549 139.923C148.683 139.659 147.869 139.63 147.108 139.835C146.344 140.043 145.681 140.45 145.118 141.057C144.555 141.664 144.199 142.354 144.052 143.128C143.901 143.905 143.992 144.714 144.322 145.555C144.65 146.4 145.247 147.225 146.115 148.03Z" fill="white"/>
<path d="M137.338 146.754L145.462 157.751L141.746 160.496C140.887 161.131 140.074 161.505 139.305 161.619C138.54 161.736 137.837 161.639 137.197 161.326C136.556 161.013 135.997 160.533 135.518 159.885C135.039 159.237 134.747 158.565 134.642 157.868C134.537 157.171 134.652 156.477 134.988 155.786C135.327 155.099 135.922 154.44 136.774 153.811L139.781 151.589L140.67 152.792L137.706 154.982C137.119 155.416 136.71 155.851 136.479 156.287C136.244 156.726 136.163 157.162 136.234 157.596C136.305 158.037 136.503 158.477 136.828 158.917C137.153 159.358 137.52 159.682 137.928 159.889C138.336 160.097 138.787 160.157 139.281 160.069C139.777 159.984 140.322 159.722 140.917 159.283L143.258 157.554L136.007 147.738L137.338 146.754ZM135.811 155.518L129.455 152.577L131.002 151.435L137.315 154.408L135.811 155.518Z" fill="white"/>
<path d="M126.973 153.981L133.172 166.168L125.817 169.909L125.151 168.6L131.031 165.609L128.936 161.491L123.438 164.288L122.772 162.979L128.27 160.182L126.164 156.041L120.189 159.079L119.523 157.77L126.973 153.981Z" fill="white"/>
<path d="M104.069 162.224C105.021 162.039 105.952 162.045 106.86 162.241C107.764 162.438 108.596 162.791 109.357 163.301C110.114 163.816 110.755 164.456 111.279 165.221C111.799 165.986 112.149 166.847 112.33 167.805C112.511 168.763 112.503 169.694 112.307 170.598C112.106 171.502 111.75 172.333 111.239 173.089C110.729 173.85 110.091 174.49 109.326 175.01C108.561 175.53 107.702 175.882 106.749 176.067C105.792 176.252 104.862 176.246 103.958 176.05C103.05 175.854 102.219 175.498 101.466 174.982C100.71 174.471 100.072 173.833 99.5519 173.068C99.032 172.302 98.6772 171.442 98.4876 170.486C98.2979 169.53 98.3014 168.599 98.4981 167.695C98.6948 166.792 99.0482 165.959 99.5582 165.199C100.069 164.442 100.709 163.804 101.479 163.283C102.248 162.762 103.112 162.409 104.069 162.224Z" fill="white"/>
<path d="M79.2484 173.419C79.2671 174.1 79.5433 174.652 80.077 175.076C80.6107 175.5 81.2897 175.749 82.1142 175.824C82.717 175.878 83.2533 175.829 83.7231 175.674C84.1885 175.52 84.5629 175.284 84.8465 174.965C85.1257 174.646 85.2849 174.27 85.3242 173.835C85.3571 173.472 85.299 173.151 85.1498 172.874C84.9958 172.601 84.7892 172.366 84.53 172.168C84.2705 171.975 83.995 171.809 83.7036 171.671C83.4118 171.537 83.1426 171.426 82.896 171.336L81.5467 170.839C81.2005 170.713 80.8177 170.549 80.3981 170.346C79.9741 170.142 79.5755 169.88 79.2023 169.56C78.8242 169.245 78.5243 168.856 78.3025 168.393C78.0807 167.931 77.9987 167.38 78.0565 166.742C78.1231 166.006 78.3762 165.359 78.8156 164.8C79.2506 164.24 79.8518 163.819 80.6194 163.535C81.3825 163.251 82.2871 163.156 83.3332 163.251C84.3083 163.34 85.1385 163.573 85.8237 163.953C86.5044 164.332 87.0231 164.821 87.38 165.421C87.7324 166.02 87.9014 166.695 87.8872 167.444L86.1851 167.29C86.1873 166.772 86.053 166.331 85.782 165.967C85.5063 165.607 85.1431 165.323 84.6926 165.117C84.2372 164.915 83.7391 164.79 83.1983 164.741C82.5689 164.684 81.9945 164.734 81.4751 164.893C80.9554 165.056 80.5326 165.308 80.2067 165.649C79.8804 165.995 79.6948 166.416 79.6498 166.913C79.6089 167.365 79.7019 167.744 79.9289 168.051C80.1559 168.358 80.4674 168.618 80.8636 168.833C81.2598 169.047 81.6912 169.243 82.1579 169.419L83.7901 170.05C84.8262 170.452 85.6289 170.965 86.198 171.588C86.7672 172.212 87.0103 172.982 86.9272 173.9C86.8582 174.662 86.5918 175.309 86.1282 175.839C85.6598 176.373 85.0611 176.765 84.3323 177.017C83.5986 177.272 82.7973 177.36 81.9285 177.282C81.0509 177.202 80.285 176.974 79.6309 176.598C78.9763 176.226 78.4741 175.751 78.1241 175.174C77.7697 174.597 77.6126 173.964 77.6526 173.275L79.2484 173.419Z" fill="white"/>
<path d="M61.9269 168.552L63.5212 168.999C63.4869 169.484 63.539 169.933 63.6774 170.346C63.8115 170.758 64.0127 171.129 64.2809 171.458C64.5436 171.791 64.8596 172.073 65.2288 172.306C65.598 172.539 66.0012 172.717 66.4383 172.839C67.2354 173.063 68.014 173.064 68.7741 172.842C69.5298 172.62 70.2083 172.17 70.8095 171.492C71.4065 170.814 71.8647 169.904 72.1843 168.765C72.5038 167.625 72.5849 166.61 72.4276 165.72C72.266 164.828 71.9202 164.091 71.3903 163.508C70.8561 162.924 70.1904 162.52 69.3933 162.297C68.9562 162.174 68.5194 162.117 68.0829 162.124C67.6464 162.131 67.2302 162.206 66.8341 162.349C66.4325 162.495 66.0674 162.71 65.7387 162.992C65.4045 163.277 65.1266 163.634 64.905 164.062L63.3107 163.615C63.6193 162.976 64.0066 162.435 64.4727 161.992C64.9388 161.55 65.4598 161.208 66.0357 160.967C66.6105 160.731 67.2184 160.599 67.8596 160.57C68.4965 160.541 69.1471 160.619 69.8113 160.805C70.9342 161.12 71.8558 161.674 72.5763 162.468C73.2968 163.262 73.7661 164.234 73.984 165.386C74.2019 166.538 74.1163 167.808 73.7271 169.197C73.3379 170.585 72.7508 171.715 71.9659 172.586C71.181 173.457 70.2746 174.044 69.2466 174.348C68.2185 174.651 67.1431 174.645 66.0203 174.331C65.356 174.145 64.7595 173.873 64.2307 173.517C63.6976 173.16 63.2476 172.729 62.8807 172.224C62.5126 171.723 62.2445 171.162 62.0763 170.542C61.9069 169.926 61.8571 169.263 61.9269 168.552Z" fill="white"/>
<path d="M61.3962 158.195L55.359 170.463L51.2138 168.423C50.2554 167.951 49.5493 167.4 49.0955 166.77C48.6397 166.144 48.4035 165.475 48.3871 164.762C48.3707 164.05 48.5403 163.332 48.896 162.61C49.2517 161.887 49.7149 161.319 50.2855 160.905C50.8562 160.491 51.5256 160.275 52.2938 160.256C53.06 160.241 53.9184 160.468 54.8688 160.936L58.2232 162.586L57.5629 163.928L54.2564 162.301C53.6015 161.979 53.0272 161.815 52.5335 161.81C52.0359 161.803 51.6107 161.932 51.2581 162.195C50.8995 162.46 50.5993 162.838 50.3576 163.329C50.1158 163.82 49.9964 164.294 49.9993 164.752C50.0022 165.21 50.1562 165.638 50.4613 166.036C50.7644 166.438 51.2474 166.803 51.9103 167.129L54.522 168.414L59.9106 157.464L61.3962 158.195ZM52.9097 160.864L52.6027 153.868L54.3279 154.717L54.5869 161.69L52.9097 160.864Z" fill="white"/>
<path d="M36.7741 150.881C37.6408 149.728 38.5979 148.889 39.6454 148.362C40.6929 147.836 41.7506 147.618 42.8187 147.708C43.8868 147.798 44.8868 148.194 45.8188 148.895C46.7508 149.596 47.4084 150.447 47.7917 151.448C48.175 152.449 48.2591 153.525 48.044 154.678C47.8289 155.83 47.288 156.983 46.4213 158.135C45.5546 159.288 44.5976 160.127 43.5501 160.654C42.5026 161.181 41.4448 161.399 40.3767 161.308C39.3087 161.218 38.3086 160.822 37.3767 160.121C36.4447 159.421 35.787 158.57 35.4037 157.569C35.0205 156.568 34.9364 155.491 35.1515 154.338C35.3666 153.186 35.9074 152.033 36.7741 150.881ZM38.0547 151.844C37.3432 152.79 36.901 153.708 36.728 154.597C36.5516 155.483 36.6062 156.295 36.8919 157.034C37.174 157.769 37.6459 158.386 38.3075 158.884C38.9692 159.381 39.6943 159.665 40.4829 159.734C41.2679 159.801 42.0635 159.628 42.8696 159.215C43.6721 158.8 44.4292 158.119 45.1407 157.172C45.8523 156.226 46.2963 155.31 46.4728 154.424C46.6457 153.534 46.5911 152.722 46.3089 151.987C46.0232 151.248 45.5496 150.63 44.8879 150.133C44.2263 149.635 43.5029 149.353 42.7179 149.286C41.9293 149.217 41.1338 149.39 40.3312 149.805C39.5251 150.218 38.7663 150.898 38.0547 151.844Z" fill="white"/>
<path d="M38.4708 142.976L28.4654 152.294L27.337 151.082L36.2676 142.765L31.9359 138.114L33.0107 137.113L38.4708 142.976Z" fill="white"/>
<path d="M31.0883 134.635L19.8011 142.352L18.8667 140.985L28.9414 134.098L25.3546 128.851L26.5671 128.022L31.0883 134.635Z" fill="white"/>
<path d="M11.4085 125.37L10.0371 125.896L6.36435 116.322L7.73566 115.796L9.27555 119.81L20.6699 115.439L21.2629 116.985L9.86856 121.356L11.4085 125.37Z" fill="white"/>
<path d="M9.57922 98.7147C10.9977 98.455 12.2704 98.4867 13.3974 98.8098C14.5244 99.1329 15.4498 99.6897 16.1737 100.48C16.8976 101.271 17.3645 102.239 17.5745 103.387C17.7845 104.534 17.6911 105.605 17.2942 106.601C16.8973 107.596 16.2292 108.445 15.2897 109.146C14.3503 109.848 13.1714 110.328 11.7529 110.588C10.3344 110.848 9.06169 110.816 7.93471 110.493C6.80773 110.17 5.88229 109.613 5.1584 108.822C4.43451 108.032 3.96757 107.063 3.75758 105.916C3.54758 104.769 3.64102 103.698 4.0379 102.702C4.43478 101.706 5.10293 100.858 6.04236 100.156C6.9818 99.4549 8.16075 98.9744 9.57922 98.7147ZM9.86776 100.291C8.70321 100.504 7.75602 100.879 7.02618 101.415C6.29554 101.947 5.78496 102.581 5.49446 103.318C5.20315 104.05 5.13204 104.823 5.28112 105.637C5.4302 106.451 5.77102 107.151 6.30357 107.737C6.83533 108.319 7.53746 108.731 8.40997 108.974C9.28168 109.212 10.2998 109.225 11.4643 109.012C12.6289 108.799 13.5765 108.426 14.3071 107.894C15.037 107.358 15.5475 106.724 15.8388 105.992C16.1294 105.255 16.2001 104.48 16.051 103.665C15.9019 102.851 15.5615 102.153 15.0297 101.572C14.4972 100.986 13.795 100.574 12.9233 100.335C12.0508 100.092 11.0323 100.078 9.86776 100.291Z" fill="white"/>
<path d="M16.0793 88.3648L2.44543 87.3345L3.06727 79.1062L4.53184 79.2169L4.03477 85.7942L8.64152 86.1423L9.10639 79.9911L10.571 80.1018L10.1061 86.253L14.7395 86.6032L15.2446 79.9194L16.7092 80.0301L16.0793 88.3648Z" fill="white"/>
<path d="M4.16183 72.472L10.5377 70.4402L10.5637 70.3366L5.90676 65.5311L6.38205 63.6405L11.9639 69.477L19.6422 66.9741L19.1669 68.8647L12.8946 70.9226L12.8686 71.0262L17.4219 75.8056L16.9467 77.6962L11.3909 71.7561L3.68653 74.3626L4.16183 72.472Z" fill="white"/>
<path d="M20.8538 63.6921L8.38792 58.0755L10.2857 53.8634C10.7263 52.8855 11.263 52.1656 11.8958 51.7038C12.5263 51.2361 13.2075 50.9865 13.9393 50.955C14.6711 50.9235 15.4043 51.0732 16.1388 51.4041C16.8732 51.735 17.4731 52.1859 17.9384 52.7568C18.4055 53.3236 18.6777 53.9979 18.7551 54.7797C18.8284 55.5596 18.6465 56.4345 18.2096 57.4043L16.8493 60.4234L15.5102 59.82L16.8485 56.8496C17.1502 56.1801 17.2768 55.5903 17.2283 55.0803C17.1799 54.5703 17 54.1353 16.6886 53.7754C16.3751 53.4095 15.9687 53.1142 15.4696 52.8893C14.9705 52.6644 14.482 52.5566 14.0043 52.5659C13.5284 52.5712 13.0866 52.7285 12.6787 53.0378C12.2668 53.3452 11.9082 53.8378 11.6029 54.5155L10.4072 57.1693L21.5339 62.1826L20.8538 63.6921Z" fill="white"/>
<path d="M26.3327 52.4368L14.8984 44.9401L15.8062 43.5555L26.0122 50.2469L29.497 44.9317L30.7253 45.737L26.3327 52.4368Z" fill="white"/>
<path d="M35.2112 30.4961C36.2633 31.4822 36.9945 32.5244 37.4048 33.6226C37.8151 34.7209 37.9176 35.796 37.7123 36.8481C37.5071 37.9001 37.0058 38.8516 36.2083 39.7024C35.4109 40.5532 34.4939 41.115 33.4573 41.3879C32.4208 41.6608 31.3412 41.6281 30.2187 41.2897C29.0963 40.9513 28.0089 40.2891 26.9568 39.3029C25.9046 38.3168 25.1734 37.2746 24.7631 36.1764C24.3529 35.0781 24.2504 34.003 24.4556 32.9509C24.6608 31.8989 25.1622 30.9474 25.9596 30.0966C26.7571 29.2458 27.6741 28.684 28.7106 28.4111C29.7472 28.1382 30.8267 28.171 31.9492 28.5093C33.0717 28.8477 34.159 29.5099 35.2112 30.4961ZM34.1154 31.6651C33.2516 30.8555 32.3872 30.3167 31.522 30.0488C30.6599 29.7775 29.8464 29.744 29.0816 29.9483C28.3198 30.1493 27.6558 30.5518 27.0897 31.1558C26.5236 31.7598 26.1634 32.4501 26.009 33.2265C25.8577 33.9997 25.9438 34.8093 26.2672 35.6553C26.5936 36.4981 27.1887 37.3243 28.0525 38.1339C28.9163 38.9435 29.7793 39.4839 30.6414 39.7551C31.5065 40.0231 32.32 40.0566 33.0818 39.8556C33.8466 39.6513 34.5121 39.2472 35.0782 38.6432C35.6444 38.0392 36.0031 37.3506 36.1544 36.5774C36.3087 35.8009 36.2227 34.9913 35.8962 34.1485C35.5728 33.3025 34.9792 32.4747 34.1154 31.6651Z" fill="white"/>
<path d="M42.8866 32.9841L34.8174 21.9464L38.5469 19.2199C39.4092 18.5895 40.2248 18.2193 40.9935 18.1094C41.7596 17.996 42.462 18.0971 43.1009 18.413C43.7398 18.7288 44.2969 19.2119 44.7724 19.8622C45.2478 20.5125 45.5364 21.1864 45.6383 21.8838C45.7402 22.5812 45.6213 23.2746 45.2817 23.9639C44.9395 24.6496 44.3408 25.3051 43.4857 25.9302L40.4676 28.1367L39.585 26.9294L42.56 24.7545C43.1492 24.3237 43.5605 23.8908 43.7937 23.4556C44.0305 23.0179 44.1142 22.5818 44.0447 22.1474C43.9762 21.7068 43.7804 21.2655 43.4573 20.8236C43.1342 20.3817 42.7692 20.0558 42.3623 19.8461C41.9554 19.6364 41.5048 19.5743 41.0106 19.66C40.5137 19.742 39.9671 20.0011 39.3706 20.4371L37.0208 22.155L44.2232 32.007L42.8866 32.9841ZM44.4573 24.2276L50.7984 27.2001L49.2462 28.3348L42.9482 25.3308L44.4573 24.2276Z" fill="white"/>
<path d="M53.2875 25.8088L47.15 13.591L54.5237 9.88697L55.183 11.1994L49.2888 14.1603L51.3626 18.2886L56.875 15.5195L57.5343 16.832L52.0219 19.601L54.1077 23.7532L60.0973 20.7444L60.7566 22.0568L53.2875 25.8088Z" fill="white"/>
<path d="M76.2273 17.6823C75.2739 17.8621 74.3435 17.8518 73.4361 17.6515C72.5331 17.4503 71.7025 17.0928 70.9444 16.579C70.1898 16.06 69.5523 15.4171 69.0318 14.6501C68.5157 13.8823 68.1695 13.0191 67.9933 12.0605C67.8171 11.1018 67.8296 10.171 68.0307 9.26798C68.2362 8.36416 68.5963 7.53538 69.1109 6.78163C69.6247 6.0235 70.2655 5.38638 71.0333 4.87024C71.8011 4.35411 72.6617 4.00616 73.6151 3.82641C74.573 3.64583 75.5034 3.65612 76.4064 3.85727C77.3138 4.0576 78.1425 4.41768 78.8927 4.9375C79.6465 5.45213 80.2814 6.09332 80.7976 6.86109C81.3137 7.62885 81.6643 8.49125 81.8492 9.44826C82.0342 10.4053 82.0261 11.3353 81.8249 12.2383C81.6237 13.1413 81.2663 13.9718 80.7525 14.73C80.2378 15.4837 79.5945 16.1191 78.8223 16.636C78.0502 17.153 77.1852 17.5017 76.2273 17.6823Z" fill="white"/>
</svg>
