<svg width="50" height="50" viewBox="0 0 50 50" fill="none" xmlns="http://www.w3.org/2000/svg">
<path d="M38.3008 25L25.0016 11.7009L11.7025 25L25.0016 38.2991L38.3008 25Z" fill="#131316"/>
<path d="M24.9984 11.5103L38.4883 25.0001L24.9984 38.49L11.5085 25.0001L24.9984 11.5103ZM19.7517 27.1735L22.8251 30.2468L27.1715 30.2468L30.2448 27.1735L30.2448 22.8271L27.1715 19.7537L22.8251 19.7537L19.7517 22.8271L19.7517 27.1735ZM19.4317 23.1468L17.5784 25.0001L19.4317 26.8535L19.4317 23.1471L19.4317 23.1468ZM19.7517 27.626L19.7517 30.2468L22.3725 30.2468L19.7517 27.626ZM24.9984 32.4201L26.8517 30.5668L23.1453 30.5668L24.9987 32.4201L24.9984 32.4201ZM30.2451 27.626L27.6243 30.2468L30.2451 30.2468L30.2451 27.626ZM30.5651 26.8535L32.4184 25.0001L30.5651 23.1468L30.5651 26.8532L30.5651 26.8535ZM30.2451 22.3743L30.2451 19.7535L27.6243 19.7535L30.2451 22.3743ZM24.9984 17.5801L23.1451 19.4335L26.8515 19.4335L24.9981 17.5801L24.9984 17.5801ZM22.3726 19.7535L19.7518 19.7535L19.7517 22.3743L22.3726 19.7535ZM19.6611 19.4335L22.6925 19.4335L24.8384 17.2876L24.8384 12.1228L18.5944 18.3668L19.6611 19.4335ZM25.1584 17.2876L27.3043 19.4335L30.3357 19.4335L31.4024 18.3668L25.1584 12.1228L25.1584 17.2876ZM30.5651 19.6567L30.5651 22.6945L32.7077 24.8372L37.8725 24.8372L31.6285 18.5932L30.5651 19.6567ZM32.7139 25.1569L30.5651 27.3057L30.5651 30.3372L31.6317 31.4039L37.8787 25.1569L32.7139 25.1569ZM30.3419 30.5668L27.304 30.5668L25.1581 32.7127L25.1581 37.8775L31.4051 31.6305L30.3416 30.5671L30.3419 30.5668ZM24.8384 32.7127L22.6925 30.5668L19.6547 30.5668L18.5912 31.6303L24.8381 37.8772L24.8381 32.7124L24.8384 32.7127ZM19.4317 30.3375L19.4317 27.306L17.2829 25.1572L12.1181 25.1572L18.3651 31.4041L19.4317 30.3375ZM17.2891 24.8369L19.4317 22.6943L19.4317 19.6564L18.3683 18.5929L12.1243 24.8369L17.2891 24.8369Z" fill="white"/>
<g filter="url(#filter0_f_8080_21741)">
<path d="M25 18L30 23L32 25L25 32L18 25L25 18Z" fill="white"/>
</g>
<g filter="url(#filter1_f_8080_21741)">
<path d="M25 18L30 23L32 25L25 32L18 25L25 18Z" fill="white"/>
</g>
<defs>
<filter id="filter0_f_8080_21741" x="0" y="0" width="50" height="50" filterUnits="userSpaceOnUse" color-interpolation-filters="sRGB">
<feFlood flood-opacity="0" result="BackgroundImageFix"/>
<feBlend mode="normal" in="SourceGraphic" in2="BackgroundImageFix" result="shape"/>
<feGaussianBlur stdDeviation="9" result="effect1_foregroundBlur_8080_21741"/>
</filter>
<filter id="filter1_f_8080_21741" x="12" y="12" width="26" height="26" filterUnits="userSpaceOnUse" color-interpolation-filters="sRGB">
<feFlood flood-opacity="0" result="BackgroundImageFix"/>
<feBlend mode="normal" in="SourceGraphic" in2="BackgroundImageFix" result="shape"/>
<feGaussianBlur stdDeviation="3" result="effect1_foregroundBlur_8080_21741"/>
</filter>
</defs>
</svg>
