<svg width="32" height="32" viewBox="0 0 32 32" fill="none" xmlns="http://www.w3.org/2000/svg">
<path d="M15.9984 2.51013L29.4883 16L15.9984 29.4899L2.50855 16L15.9984 2.51013ZM10.7517 18.1733L13.8251 21.2467L18.1715 21.2467L21.2448 18.1733L21.2448 13.8269L18.1715 10.7536L13.8251 10.7536L10.7517 13.8269L10.7517 18.1733ZM10.4317 14.1467L8.57842 16L10.4317 17.8533L10.4317 14.1469L10.4317 14.1467ZM10.7517 18.6259L10.7517 21.2467L13.3725 21.2467L10.7517 18.6259ZM15.9984 23.42L17.8517 21.5667L14.1453 21.5667L15.9987 23.42L15.9984 23.42ZM21.2451 18.6259L18.6243 21.2467L21.2451 21.2467L21.2451 18.6259ZM21.5651 17.8533L23.4184 16L21.5651 14.1467L21.5651 17.8531L21.5651 17.8533ZM21.2451 13.3741L21.2451 10.7533L18.6243 10.7533L21.2451 13.3741ZM15.9984 8.58L14.1451 10.4333L17.8515 10.4333L15.9981 8.58L15.9984 8.58ZM13.3725 10.7533L10.7517 10.7533L10.7517 13.3741L13.3725 10.7533ZM10.6611 10.4333L13.6925 10.4333L15.8384 8.28746L15.8384 3.12266L9.59442 9.36666L10.6611 10.4333ZM16.1584 8.28746L18.3043 10.4333L21.3357 10.4333L22.4024 9.36667L16.1584 3.12266L16.1584 8.28746ZM21.5651 10.6565L21.5651 13.6944L23.7077 15.8371L28.8725 15.8371L22.6285 9.59306L21.5651 10.6565ZM23.7139 16.1568L21.5651 18.3056L21.5651 21.3371L22.6317 22.4037L28.8787 16.1568L23.7139 16.1568ZM21.3419 21.5667L18.304 21.5667L16.1581 23.7125L16.1581 28.8773L22.4051 22.6304L21.3416 21.5669L21.3419 21.5667ZM15.8384 23.7125L13.6925 21.5667L10.6547 21.5667L9.59121 22.6301L15.8381 28.8771L15.8381 23.7123L15.8384 23.7125ZM10.4317 21.3373L10.4317 18.3059L8.28295 16.1571L3.11815 16.1571L9.36508 22.404L10.4317 21.3373ZM8.28908 15.8368L10.4317 13.6941L10.4317 10.6563L9.36828 9.5928L3.12428 15.8368L8.28908 15.8368Z" fill="#51525C"/>
</svg>
