<svg width="540" height="23" viewBox="0 0 540 23" fill="none" xmlns="http://www.w3.org/2000/svg">
<path d="M-14.545 1.5282C-14.9593 0.862083 -14.4803 0 -13.6959 0H25.7106C26.0562 0 26.3772 0.17839 26.5597 0.471797L39.0552 20.559C39.4696 21.2252 38.9906 22.0872 38.2061 22.0872H-1.20037C-1.54591 22.0872 -1.86697 21.9089 -2.04949 21.6155L-14.545 1.5282Z" fill="#1A1A1E"/>
<path d="M40.9565 1.5282C40.5421 0.862083 41.0211 0 41.8056 0H81.2121C81.5576 0 81.8787 0.17839 82.0612 0.471797L94.5567 20.559C94.9711 21.2252 94.4921 22.0872 93.7076 22.0872H54.3011C53.9556 22.0872 53.6345 21.9089 53.452 21.6155L40.9565 1.5282Z" fill="#1A1A1E"/>
<path d="M96.458 1.5282C96.0436 0.862083 96.5226 0 97.3071 0H136.714C137.059 0 137.38 0.17839 137.563 0.471797L150.058 20.559C150.473 21.2252 149.994 22.0872 149.209 22.0872H109.803C109.457 22.0872 109.136 21.9089 108.953 21.6155L96.458 1.5282Z" fill="#1A1A1E"/>
<path d="M151.959 1.5282C151.545 0.862083 152.024 0 152.809 0H192.215C192.561 0 192.882 0.17839 193.064 0.471797L205.56 20.559C205.974 21.2252 205.495 22.0872 204.711 22.0872H165.304C164.959 22.0872 164.637 21.9089 164.455 21.6155L151.959 1.5282Z" fill="#1A1A1E"/>
<path d="M207.461 1.5282C207.047 0.862083 207.526 0 208.31 0H247.716C248.062 0 248.383 0.17839 248.566 0.471797L261.061 20.559C261.475 21.2252 260.996 22.0872 260.212 22.0872H220.805C220.46 22.0872 220.139 21.9089 219.956 21.6155L207.461 1.5282Z" fill="#1A1A1E"/>
<path d="M262.962 1.5282C262.548 0.862083 263.027 0 263.811 0H303.218C303.563 0 303.884 0.17839 304.067 0.471797L316.562 20.559C316.977 21.2252 316.498 22.0872 315.713 22.0872H276.307C275.961 22.0872 275.64 21.9089 275.458 21.6155L262.962 1.5282Z" fill="#1A1A1E"/>
<path d="M318.464 1.5282C318.049 0.862083 318.528 0 319.313 0H358.719C359.065 0 359.386 0.17839 359.569 0.471797L372.064 20.559C372.478 21.2252 371.999 22.0872 371.215 22.0872H331.808C331.463 22.0872 331.142 21.9089 330.959 21.6155L318.464 1.5282Z" fill="#1A1A1E"/>
<path d="M373.965 1.5282C373.551 0.862083 374.03 0 374.815 0H414.221C414.567 0 414.888 0.17839 415.07 0.471797L427.566 20.559C427.98 21.2252 427.501 22.0872 426.716 22.0872H387.31C386.964 22.0872 386.643 21.9089 386.461 21.6155L373.965 1.5282Z" fill="#1A1A1E"/>
<path d="M429.467 1.5282C429.053 0.862083 429.532 0 430.316 0H469.722C470.068 0 470.389 0.17839 470.572 0.471797L483.067 20.559C483.481 21.2252 483.002 22.0872 482.218 22.0872H442.811C442.466 22.0872 442.145 21.9089 441.962 21.6155L429.467 1.5282Z" fill="#1A1A1E"/>
<path d="M484.968 1.5282C484.554 0.862083 485.033 0 485.817 0H525.224C525.569 0 525.89 0.17839 526.073 0.471797L538.568 20.559C538.983 21.2252 538.504 22.0872 537.719 22.0872H498.313C497.967 22.0872 497.646 21.9089 497.464 21.6155L484.968 1.5282Z" fill="#1A1A1E"/>
</svg>
