<svg width="100" height="92" viewBox="0 0 100 92" fill="none" xmlns="http://www.w3.org/2000/svg">
<g opacity="0.4">
<path d="M0.535948 69.1346H4.14539L2.67974 76.2113H1.29065L2.43911 70.3049H0.535948V69.1346ZM10.8835 72.5909C11.2262 72.8315 11.3976 73.2435 11.3976 73.8269V74.8769C11.3976 75.8394 10.9455 76.3207 10.0413 76.3207H8.75068C7.84649 76.3207 7.3944 75.8394 7.3944 74.8769V73.8269C7.3944 73.2435 7.56576 72.8315 7.90847 72.5909C7.60951 72.3721 7.46003 71.9784 7.46003 71.4096V70.469C7.46003 69.5065 7.91212 69.0252 8.8163 69.0252H9.9757C10.8799 69.0252 11.332 69.5065 11.332 70.469V71.4096C11.332 71.9784 11.1825 72.3721 10.8835 72.5909ZM8.82724 70.469V71.8034C8.82724 71.8617 8.84547 71.9128 8.88193 71.9565C8.92568 72.0003 8.97672 72.0221 9.03506 72.0221H9.76788C9.82622 72.0221 9.87361 72.0003 9.91007 71.9565C9.95382 71.9128 9.9757 71.8617 9.9757 71.8034V70.469C9.9757 70.4106 9.95382 70.3596 9.91007 70.3158C9.87361 70.2721 9.82622 70.2502 9.76788 70.2502H9.03506C8.97672 70.2502 8.92568 70.2721 8.88193 70.3158C8.84547 70.3596 8.82724 70.4106 8.82724 70.469ZM10.0413 74.9097V73.455C10.0413 73.3966 10.0195 73.3456 9.9757 73.3018C9.93924 73.2581 9.89184 73.2362 9.83351 73.2362H8.96943C8.9111 73.2362 8.86005 73.2581 8.8163 73.3018C8.77984 73.3456 8.76161 73.3966 8.76161 73.455V74.9097C8.76161 74.968 8.77984 75.0191 8.8163 75.0628C8.86005 75.1066 8.9111 75.1284 8.96943 75.1284H9.83351C9.89184 75.1284 9.93924 75.1066 9.9757 75.0628C10.0195 75.0191 10.0413 74.968 10.0413 74.9097ZM16.0106 72.5909C16.3533 72.8315 16.5247 73.2435 16.5247 73.8269V74.8769C16.5247 75.8394 16.0726 76.3207 15.1684 76.3207H13.8777C12.9735 76.3207 12.5215 75.8394 12.5215 74.8769V73.8269C12.5215 73.2435 12.6928 72.8315 13.0355 72.5909C12.7366 72.3721 12.5871 71.9784 12.5871 71.4096V70.469C12.5871 69.5065 13.0392 69.0252 13.9434 69.0252H15.1027C16.0069 69.0252 16.459 69.5065 16.459 70.469V71.4096C16.459 71.9784 16.3095 72.3721 16.0106 72.5909ZM13.9543 70.469V71.8034C13.9543 71.8617 13.9725 71.9128 14.009 71.9565C14.0527 72.0003 14.1038 72.0221 14.1621 72.0221H14.8949C14.9533 72.0221 15.0007 72.0003 15.0371 71.9565C15.0809 71.9128 15.1027 71.8617 15.1027 71.8034V70.469C15.1027 70.4106 15.0809 70.3596 15.0371 70.3158C15.0007 70.2721 14.9533 70.2502 14.8949 70.2502H14.1621C14.1038 70.2502 14.0527 70.2721 14.009 70.3158C13.9725 70.3596 13.9543 70.4106 13.9543 70.469ZM15.1684 74.9097V73.455C15.1684 73.3966 15.1465 73.3456 15.1027 73.3018C15.0663 73.2581 15.0189 73.2362 14.9606 73.2362H14.0965C14.0381 73.2362 13.9871 73.2581 13.9434 73.3018C13.9069 73.3456 13.8887 73.3966 13.8887 73.455V74.9097C13.8887 74.968 13.9069 75.0191 13.9434 75.0628C13.9871 75.1066 14.0381 75.1284 14.0965 75.1284H14.9606C15.0189 75.1284 15.0663 75.1066 15.1027 75.0628C15.1465 75.0191 15.1684 74.968 15.1684 74.9097ZM21.6533 73.4222H21.1064C20.2023 73.4222 19.7502 72.9409 19.7502 71.9784V70.469C19.7502 69.5065 20.2023 69.0252 21.1064 69.0252H22.3971C23.3013 69.0252 23.7534 69.5065 23.7534 70.469V74.8769C23.7534 75.8394 23.3013 76.3207 22.3971 76.3207H21.2158C20.3116 76.3207 19.8595 75.8394 19.8595 74.8769V74.3519H21.2596V74.9097C21.2596 74.968 21.2778 75.0191 21.3143 75.0628C21.358 75.1066 21.409 75.1284 21.4674 75.1284H22.1783C22.2367 75.1284 22.2841 75.1066 22.3205 75.0628C22.3643 75.0191 22.3862 74.968 22.3862 74.9097V73.28C22.1893 73.3748 21.945 73.4222 21.6533 73.4222ZM21.1064 70.5893V71.8581C21.1064 71.9164 21.1247 71.9674 21.1611 72.0112C21.2049 72.0549 21.2559 72.0768 21.3143 72.0768H22.1783C22.2367 72.0768 22.2841 72.0549 22.3205 72.0112C22.3643 71.9674 22.3862 71.9164 22.3862 71.8581V70.5893C22.3862 70.531 22.3643 70.4799 22.3205 70.4362C22.2841 70.3924 22.2367 70.3705 22.1783 70.3705H21.3143C21.2559 70.3705 21.2049 70.3924 21.1611 70.4362C21.1247 70.4799 21.1064 70.531 21.1064 70.5893ZM30.5372 72.5909C30.8799 72.8315 31.0513 73.2435 31.0513 73.8269V74.8769C31.0513 75.8394 30.5992 76.3207 29.695 76.3207H28.4044C27.5002 76.3207 27.0481 75.8394 27.0481 74.8769V73.8269C27.0481 73.2435 27.2194 72.8315 27.5622 72.5909C27.2632 72.3721 27.1137 71.9784 27.1137 71.4096V70.469C27.1137 69.5065 27.5658 69.0252 28.47 69.0252H29.6294C30.5336 69.0252 30.9857 69.5065 30.9857 70.469V71.4096C30.9857 71.9784 30.8362 72.3721 30.5372 72.5909ZM28.4809 70.469V71.8034C28.4809 71.8617 28.4992 71.9128 28.5356 71.9565C28.5794 72.0003 28.6304 72.0221 28.6887 72.0221H29.4216C29.4799 72.0221 29.5273 72.0003 29.5638 71.9565C29.6075 71.9128 29.6294 71.8617 29.6294 71.8034V70.469C29.6294 70.4106 29.6075 70.3596 29.5638 70.3158C29.5273 70.2721 29.4799 70.2502 29.4216 70.2502H28.6887C28.6304 70.2502 28.5794 70.2721 28.5356 70.3158C28.4992 70.3596 28.4809 70.4106 28.4809 70.469ZM29.695 74.9097V73.455C29.695 73.3966 29.6731 73.3456 29.6294 73.3018C29.5929 73.2581 29.5455 73.2362 29.4872 73.2362H28.6231C28.5648 73.2362 28.5137 73.2581 28.47 73.3018C28.4335 73.3456 28.4153 73.3966 28.4153 73.455V74.9097C28.4153 74.968 28.4335 75.0191 28.47 75.0628C28.5137 75.1066 28.5648 75.1284 28.6231 75.1284H29.4872C29.5455 75.1284 29.5929 75.1066 29.6294 75.0628C29.6731 75.0191 29.695 74.968 29.695 74.9097ZM34.3424 69.1346H37.9519L36.4862 76.2113H35.0971L36.2456 70.3049H34.3424V69.1346ZM42.479 72.5909C42.8217 72.8315 42.993 73.2435 42.993 73.8269V74.8769C42.993 75.8394 42.541 76.3207 41.6368 76.3207H40.3461C39.4419 76.3207 38.9898 75.8394 38.9898 74.8769V73.8269C38.9898 73.2435 39.1612 72.8315 39.5039 72.5909C39.205 72.3721 39.0555 71.9784 39.0555 71.4096V70.469C39.0555 69.5065 39.5076 69.0252 40.4117 69.0252H41.5711C42.4753 69.0252 42.9274 69.5065 42.9274 70.469V71.4096C42.9274 71.9784 42.7779 72.3721 42.479 72.5909ZM40.4227 70.469V71.8034C40.4227 71.8617 40.4409 71.9128 40.4774 71.9565C40.5211 72.0003 40.5722 72.0221 40.6305 72.0221H41.3633C41.4217 72.0221 41.4691 72.0003 41.5055 71.9565C41.5493 71.9128 41.5711 71.8617 41.5711 71.8034V70.469C41.5711 70.4106 41.5493 70.3596 41.5055 70.3158C41.4691 70.2721 41.4217 70.2502 41.3633 70.2502H40.6305C40.5722 70.2502 40.5211 70.2721 40.4774 70.3158C40.4409 70.3596 40.4227 70.4106 40.4227 70.469ZM41.6368 74.9097V73.455C41.6368 73.3966 41.6149 73.3456 41.5711 73.3018C41.5347 73.2581 41.4873 73.2362 41.429 73.2362H40.5649C40.5065 73.2362 40.4555 73.2581 40.4117 73.3018C40.3753 73.3456 40.3571 73.3966 40.3571 73.455V74.9097C40.3571 74.968 40.3753 75.0191 40.4117 75.0628C40.4555 75.1066 40.5065 75.1284 40.5649 75.1284H41.429C41.4873 75.1284 41.5347 75.1066 41.5711 75.0628C41.6149 75.0191 41.6368 74.968 41.6368 74.9097ZM45.9107 73.4222H45.3638C44.4596 73.4222 44.0075 72.9409 44.0075 71.9784V70.469C44.0075 69.5065 44.4596 69.0252 45.3638 69.0252H46.6544C47.5586 69.0252 48.0107 69.5065 48.0107 70.469V74.8769C48.0107 75.8394 47.5586 76.3207 46.6544 76.3207H45.4732C44.569 76.3207 44.1169 75.8394 44.1169 74.8769V74.3519H45.5169V74.9097C45.5169 74.968 45.5351 75.0191 45.5716 75.0628C45.6154 75.1066 45.6664 75.1284 45.7247 75.1284H46.4357C46.494 75.1284 46.5414 75.1066 46.5779 75.0628C46.6216 75.0191 46.6435 74.968 46.6435 74.9097V73.28C46.4466 73.3748 46.2023 73.4222 45.9107 73.4222ZM45.3638 70.5893V71.8581C45.3638 71.9164 45.382 71.9674 45.4185 72.0112C45.4622 72.0549 45.5133 72.0768 45.5716 72.0768H46.4357C46.494 72.0768 46.5414 72.0549 46.5779 72.0112C46.6216 71.9674 46.6435 71.9164 46.6435 71.8581V70.5893C46.6435 70.531 46.6216 70.4799 46.5779 70.4362C46.5414 70.3924 46.494 70.3705 46.4357 70.3705H45.5716C45.5133 70.3705 45.4622 70.3924 45.4185 70.4362C45.382 70.4799 45.3638 70.531 45.3638 70.5893ZM53.0992 73.4222H52.5523C51.6482 73.4222 51.1961 72.9409 51.1961 71.9784V70.469C51.1961 69.5065 51.6482 69.0252 52.5523 69.0252H53.843C54.7472 69.0252 55.1993 69.5065 55.1993 70.469V74.8769C55.1993 75.8394 54.7472 76.3207 53.843 76.3207H52.6617C51.7575 76.3207 51.3054 75.8394 51.3054 74.8769V74.3519H52.7055V74.9097C52.7055 74.968 52.7237 75.0191 52.7602 75.0628C52.8039 75.1066 52.855 75.1284 52.9133 75.1284H53.6242C53.6826 75.1284 53.73 75.1066 53.7664 75.0628C53.8102 75.0191 53.8321 74.968 53.8321 74.9097V73.28C53.6352 73.3748 53.3909 73.4222 53.0992 73.4222ZM52.5523 70.5893V71.8581C52.5523 71.9164 52.5706 71.9674 52.607 72.0112C52.6508 72.0549 52.7018 72.0768 52.7602 72.0768H53.6242C53.6826 72.0768 53.73 72.0549 53.7664 72.0112C53.8102 71.9674 53.8321 71.9164 53.8321 71.8581V70.5893C53.8321 70.531 53.8102 70.4799 53.7664 70.4362C53.73 70.3924 53.6826 70.3705 53.6242 70.3705H52.7602C52.7018 70.3705 52.6508 70.3924 52.607 70.4362C52.5706 70.4799 52.5523 70.531 52.5523 70.5893ZM58.0767 73.4222H57.5299C56.6257 73.4222 56.1736 72.9409 56.1736 71.9784V70.469C56.1736 69.5065 56.6257 69.0252 57.5299 69.0252H58.8205C59.7247 69.0252 60.1768 69.5065 60.1768 70.469V74.8769C60.1768 75.8394 59.7247 76.3207 58.8205 76.3207H57.6392C56.735 76.3207 56.283 75.8394 56.283 74.8769V74.3519H57.683V74.9097C57.683 74.968 57.7012 75.0191 57.7377 75.0628C57.7814 75.1066 57.8325 75.1284 57.8908 75.1284H58.6017C58.6601 75.1284 58.7075 75.1066 58.7439 75.0628C58.7877 75.0191 58.8096 74.968 58.8096 74.9097V73.28C58.6127 73.3748 58.3684 73.4222 58.0767 73.4222ZM57.5299 70.5893V71.8581C57.5299 71.9164 57.5481 71.9674 57.5845 72.0112C57.6283 72.0549 57.6793 72.0768 57.7377 72.0768H58.6017C58.6601 72.0768 58.7075 72.0549 58.7439 72.0112C58.7877 71.9674 58.8096 71.9164 58.8096 71.8581V70.5893C58.8096 70.531 58.7877 70.4799 58.7439 70.4362C58.7075 70.3924 58.6601 70.3705 58.6017 70.3705H57.7377C57.6793 70.3705 57.6283 70.3924 57.5845 70.4362C57.5481 70.4799 57.5299 70.531 57.5299 70.5893ZM62.573 70.3049V71.5627C62.573 71.6211 62.5912 71.6721 62.6277 71.7159C62.6714 71.7596 62.7225 71.7815 62.7808 71.7815H63.8199C64.7241 71.7815 65.1762 72.2628 65.1762 73.2253V74.8769C65.1762 75.8394 64.7241 76.3207 63.8199 76.3207H62.6058C61.7016 76.3207 61.2495 75.8394 61.2495 74.8769V74.3519H62.7042V74.9097C62.7042 74.968 62.7225 75.0191 62.7589 75.0628C62.8027 75.1066 62.8537 75.1284 62.9121 75.1284H63.5574C63.6157 75.1284 63.6631 75.1066 63.6996 75.0628C63.7433 75.0191 63.7652 74.968 63.7652 74.9097V73.3456C63.7652 73.2873 63.7433 73.2362 63.6996 73.1925C63.6631 73.1487 63.6157 73.1268 63.5574 73.1268H62.5292C61.6251 73.1268 61.173 72.6456 61.173 71.6831V69.1346H64.8918V70.3049H62.573Z" fill="white"/>
<path d="M0.535948 82.4993V82.3391H0.375794V82.4993H0.535948ZM4.14539 82.4993L4.30222 82.5317L4.34211 82.3391H4.14539V82.4993ZM2.67974 89.576V89.7361H2.81012L2.83656 89.6084L2.67974 89.576ZM1.29065 89.576L1.13344 89.5454L1.09636 89.7361H1.29065V89.576ZM2.43911 83.6696L2.59632 83.7002L2.6334 83.5094H2.43911V83.6696ZM0.535948 83.6696H0.375794V83.8298H0.535948V83.6696ZM0.535948 82.4993V82.6594H4.14539V82.4993V82.3391H0.535948V82.4993ZM4.14539 82.4993L3.98857 82.4668L2.52291 89.5435L2.67974 89.576L2.83656 89.6084L4.30222 82.5317L4.14539 82.4993ZM2.67974 89.576V89.4158H1.29065V89.576V89.7361H2.67974V89.576ZM1.29065 89.576L1.44786 89.6065L2.59632 83.7002L2.43911 83.6696L2.2819 83.639L1.13344 89.5454L1.29065 89.576ZM2.43911 83.6696V83.5094H0.535948V83.6696V83.8298H2.43911V83.6696ZM0.535948 83.6696H0.696101V82.4993H0.535948H0.375794V83.6696H0.535948ZM10.8835 85.9556L10.789 85.8263L10.6086 85.9583L10.7915 86.0866L10.8835 85.9556ZM7.90847 85.9556L8.0005 86.0866L8.18336 85.9583L8.00305 85.8263L7.90847 85.9556ZM8.88193 85.3212L8.7589 85.4237L8.76355 85.4293L8.76868 85.4344L8.88193 85.3212ZM9.91007 85.3212L9.79683 85.2079L9.79169 85.2131L9.78704 85.2187L9.91007 85.3212ZM9.91007 83.6805L9.78704 83.7831L9.79169 83.7886L9.79683 83.7938L9.91007 83.6805ZM8.88193 83.6805L8.76868 83.5673L8.76355 83.5724L8.7589 83.578L8.88193 83.6805ZM9.9757 86.6665L9.85267 86.7691L9.85732 86.7746L9.86245 86.7798L9.9757 86.6665ZM8.8163 86.6665L8.70306 86.5533L8.69792 86.5584L8.69327 86.564L8.8163 86.6665ZM8.8163 88.4275L8.69327 88.53L8.69792 88.5356L8.70306 88.5407L8.8163 88.4275ZM9.9757 88.4275L9.86245 88.3143L9.85732 88.3194L9.85267 88.325L9.9757 88.4275ZM10.8835 85.9556L10.7915 86.0866C11.0761 86.2865 11.2374 86.6382 11.2374 87.1915H11.3976H11.5578C11.5578 86.5782 11.3764 86.1059 10.9756 85.8245L10.8835 85.9556ZM11.3976 87.1915H11.2374V88.2416H11.3976H11.5578V87.1915H11.3976ZM11.3976 88.2416H11.2374C11.2374 88.7005 11.1295 89.015 10.9418 89.2147C10.7559 89.4126 10.4661 89.5252 10.0413 89.5252V89.6853V89.8455C10.5208 89.8455 10.9091 89.7174 11.1753 89.434C11.4397 89.1526 11.5578 88.7451 11.5578 88.2416H11.3976ZM10.0413 89.6853V89.5252H8.75068V89.6853V89.8455H10.0413V89.6853ZM8.75068 89.6853V89.5252C8.32592 89.5252 8.03609 89.4126 7.8502 89.2147C7.66254 89.015 7.55455 88.7005 7.55455 88.2416H7.3944H7.23425C7.23425 88.7451 7.35231 89.1526 7.61674 89.434C7.88294 89.7174 8.27125 89.8455 8.75068 89.8455V89.6853ZM7.3944 88.2416H7.55455V87.1915H7.3944H7.23425V88.2416H7.3944ZM7.3944 87.1915H7.55455C7.55455 86.6382 7.71587 86.2865 8.0005 86.0866L7.90847 85.9556L7.81644 85.8245C7.41565 86.1059 7.23425 86.5782 7.23425 87.1915H7.3944ZM7.90847 85.9556L8.00305 85.8263C7.76372 85.6512 7.62018 85.3202 7.62018 84.7743H7.46003H7.29987C7.29987 85.3659 7.4553 85.8224 7.8139 86.0848L7.90847 85.9556ZM7.46003 84.7743H7.62018V83.8337H7.46003H7.29987V84.7743H7.46003ZM7.46003 83.8337H7.62018C7.62018 83.3747 7.72817 83.0602 7.91582 82.8605C8.10171 82.6626 8.39155 82.55 8.8163 82.55V82.3899V82.2297C8.33687 82.2297 7.94857 82.3578 7.68237 82.6412C7.41794 82.9227 7.29987 83.3301 7.29987 83.8337H7.46003ZM8.8163 82.3899V82.55H9.9757V82.3899V82.2297H8.8163V82.3899ZM9.9757 82.3899V82.55C10.4005 82.55 10.6903 82.6626 10.8762 82.8605C11.0638 83.0602 11.1718 83.3747 11.1718 83.8337H11.332H11.4921C11.4921 83.3301 11.3741 82.9227 11.1096 82.6412C10.8434 82.3578 10.4551 82.2297 9.9757 82.2297V82.3899ZM11.332 83.8337H11.1718V84.7743H11.332H11.4921V83.8337H11.332ZM11.332 84.7743H11.1718C11.1718 85.3202 11.0283 85.6512 10.789 85.8263L10.8835 85.9556L10.9781 86.0848C11.3367 85.8224 11.4921 85.3659 11.4921 84.7743H11.332ZM8.82724 83.8337H8.66709V85.1681H8.82724H8.98739V83.8337H8.82724ZM8.82724 85.1681H8.66709C8.66709 85.2629 8.69782 85.3504 8.7589 85.4237L8.88193 85.3212L9.00496 85.2187C8.99312 85.2044 8.98739 85.1899 8.98739 85.1681H8.82724ZM8.88193 85.3212L8.76868 85.4344C8.84045 85.5062 8.93147 85.547 9.03506 85.547V85.3868V85.2267C9.02197 85.2267 9.01091 85.2237 8.99517 85.2079L8.88193 85.3212ZM9.03506 85.3868V85.547H9.76788V85.3868V85.2267H9.03506V85.3868ZM9.76788 85.3868V85.547C9.87241 85.547 9.96538 85.505 10.0331 85.4237L9.91007 85.3212L9.78704 85.2187C9.78263 85.224 9.78027 85.2249 9.78007 85.225C9.77976 85.2251 9.77661 85.2267 9.76788 85.2267V85.3868ZM9.91007 85.3212L10.0233 85.4344C10.0951 85.3627 10.1359 85.2716 10.1359 85.1681H9.9757H9.81555C9.81555 85.1811 9.81257 85.1922 9.79683 85.2079L9.91007 85.3212ZM9.9757 85.1681H10.1359V83.8337H9.9757H9.81555V85.1681H9.9757ZM9.9757 83.8337H10.1359C10.1359 83.7301 10.0951 83.6391 10.0233 83.5673L9.91007 83.6805L9.79683 83.7938C9.81257 83.8095 9.81555 83.8206 9.81555 83.8337H9.9757ZM9.91007 83.6805L10.0331 83.578C9.96538 83.4967 9.87241 83.4548 9.76788 83.4548V83.6149V83.7751C9.77661 83.7751 9.77976 83.7766 9.78007 83.7767C9.78027 83.7768 9.78263 83.7778 9.78704 83.7831L9.91007 83.6805ZM9.76788 83.6149V83.4548H9.03506V83.6149V83.7751H9.76788V83.6149ZM9.03506 83.6149V83.4548C8.93147 83.4548 8.84045 83.4955 8.76868 83.5673L8.88193 83.6805L8.99517 83.7938C9.01091 83.778 9.02197 83.7751 9.03506 83.7751V83.6149ZM8.88193 83.6805L8.7589 83.578C8.69782 83.6513 8.66709 83.7389 8.66709 83.8337H8.82724H8.98739C8.98739 83.8118 8.99312 83.7973 9.00496 83.7831L8.88193 83.6805ZM10.0413 88.2744H10.2015V86.8197H10.0413H9.88117V88.2744H10.0413ZM10.0413 86.8197H10.2015C10.2015 86.7161 10.1607 86.625 10.0889 86.5533L9.9757 86.6665L9.86245 86.7798C9.87819 86.7955 9.88117 86.8066 9.88117 86.8197H10.0413ZM9.9757 86.6665L10.0987 86.564C10.031 86.4827 9.93804 86.4407 9.83351 86.4407V86.6009V86.7611C9.84224 86.7611 9.84539 86.7626 9.84569 86.7627C9.84589 86.7628 9.84826 86.7638 9.85267 86.7691L9.9757 86.6665ZM9.83351 86.6009V86.4407H8.96943V86.6009V86.7611H9.83351V86.6009ZM8.96943 86.6009V86.4407C8.86584 86.4407 8.77482 86.4815 8.70306 86.5533L8.8163 86.6665L8.92955 86.7798C8.94529 86.764 8.95635 86.7611 8.96943 86.7611V86.6009ZM8.8163 86.6665L8.69327 86.564C8.6322 86.6373 8.60146 86.7248 8.60146 86.8197H8.76161H8.92177C8.92177 86.7978 8.92749 86.7833 8.93934 86.7691L8.8163 86.6665ZM8.76161 86.8197H8.60146V88.2744H8.76161H8.92177V86.8197H8.76161ZM8.76161 88.2744H8.60146C8.60146 88.3692 8.6322 88.4567 8.69327 88.53L8.8163 88.4275L8.93934 88.325C8.92749 88.3108 8.92177 88.2962 8.92177 88.2744H8.76161ZM8.8163 88.4275L8.70306 88.5407C8.77482 88.6125 8.86584 88.6533 8.96943 88.6533V88.4931V88.333C8.95635 88.333 8.94529 88.33 8.92955 88.3143L8.8163 88.4275ZM8.96943 88.4931V88.6533H9.83351V88.4931V88.333H8.96943V88.4931ZM9.83351 88.4931V88.6533C9.93804 88.6533 10.031 88.6113 10.0987 88.53L9.9757 88.4275L9.85267 88.325C9.84826 88.3303 9.84589 88.3312 9.84569 88.3313C9.84539 88.3314 9.84224 88.333 9.83351 88.333V88.4931ZM9.9757 88.4275L10.0889 88.5407C10.1607 88.469 10.2015 88.378 10.2015 88.2744H10.0413H9.88117C9.88117 88.2875 9.87819 88.2985 9.86245 88.3143L9.9757 88.4275ZM16.0106 85.9556L15.916 85.8263L15.7357 85.9583L15.9185 86.0866L16.0106 85.9556ZM13.0355 85.9556L13.1276 86.0866L13.3104 85.9583L13.1301 85.8263L13.0355 85.9556ZM14.009 85.3212L13.8859 85.4237L13.8906 85.4293L13.8957 85.4344L14.009 85.3212ZM15.0371 85.3212L14.9239 85.2079L14.9187 85.2131L14.9141 85.2187L15.0371 85.3212ZM15.0371 83.6805L14.9141 83.7831L14.9187 83.7886L14.9239 83.7938L15.0371 83.6805ZM14.009 83.6805L13.8957 83.5673L13.8906 83.5724L13.8859 83.578L14.009 83.6805ZM15.1027 86.6665L14.9797 86.7691L14.9844 86.7746L14.9895 86.7798L15.1027 86.6665ZM13.9434 86.6665L13.8301 86.5533L13.825 86.5584L13.8203 86.564L13.9434 86.6665ZM13.9434 88.4275L13.8203 88.53L13.825 88.5356L13.8301 88.5407L13.9434 88.4275ZM15.1027 88.4275L14.9895 88.3143L14.9844 88.3194L14.9797 88.325L15.1027 88.4275ZM16.0106 85.9556L15.9185 86.0866C16.2032 86.2865 16.3645 86.6382 16.3645 87.1915H16.5247H16.6848C16.6848 86.5782 16.5034 86.1059 16.1026 85.8245L16.0106 85.9556ZM16.5247 87.1915H16.3645V88.2416H16.5247H16.6848V87.1915H16.5247ZM16.5247 88.2416H16.3645C16.3645 88.7005 16.2565 89.015 16.0689 89.2147C15.883 89.4126 15.5931 89.5252 15.1684 89.5252V89.6853V89.8455C15.6478 89.8455 16.0361 89.7174 16.3023 89.434C16.5667 89.1526 16.6848 88.7451 16.6848 88.2416H16.5247ZM15.1684 89.6853V89.5252H13.8777V89.6853V89.8455H15.1684V89.6853ZM13.8777 89.6853V89.5252C13.453 89.5252 13.1631 89.4126 12.9772 89.2147C12.7896 89.015 12.6816 88.7005 12.6816 88.2416H12.5215H12.3613C12.3613 88.7451 12.4794 89.1526 12.7438 89.434C13.01 89.7174 13.3983 89.8455 13.8777 89.8455V89.6853ZM12.5215 88.2416H12.6816V87.1915H12.5215H12.3613V88.2416H12.5215ZM12.5215 87.1915H12.6816C12.6816 86.6382 12.8429 86.2865 13.1276 86.0866L13.0355 85.9556L12.9435 85.8245C12.5427 86.1059 12.3613 86.5782 12.3613 87.1915H12.5215ZM13.0355 85.9556L13.1301 85.8263C12.8908 85.6512 12.7472 85.3202 12.7472 84.7743H12.5871H12.4269C12.4269 85.3659 12.5823 85.8224 12.941 86.0848L13.0355 85.9556ZM12.5871 84.7743H12.7472V83.8337H12.5871H12.4269V84.7743H12.5871ZM12.5871 83.8337H12.7472C12.7472 83.3747 12.8552 83.0602 13.0429 82.8605C13.2288 82.6626 13.5186 82.55 13.9434 82.55V82.3899V82.2297C13.4639 82.2297 13.0756 82.3578 12.8094 82.6412C12.545 82.9227 12.4269 83.3301 12.4269 83.8337H12.5871ZM13.9434 82.3899V82.55H15.1027V82.3899V82.2297H13.9434V82.3899ZM15.1027 82.3899V82.55C15.5275 82.55 15.8173 82.6626 16.0032 82.8605C16.1909 83.0602 16.2989 83.3747 16.2989 83.8337H16.459H16.6192C16.6192 83.3301 16.5011 82.9227 16.2367 82.6412C15.9705 82.3578 15.5822 82.2297 15.1027 82.2297V82.3899ZM16.459 83.8337H16.2989V84.7743H16.459H16.6192V83.8337H16.459ZM16.459 84.7743H16.2989C16.2989 85.3202 16.1553 85.6512 15.916 85.8263L16.0106 85.9556L16.1052 86.0848C16.4638 85.8224 16.6192 85.3659 16.6192 84.7743H16.459ZM13.9543 83.8337H13.7941V85.1681H13.9543H14.1144V83.8337H13.9543ZM13.9543 85.1681H13.7941C13.7941 85.2629 13.8249 85.3504 13.8859 85.4237L14.009 85.3212L14.132 85.2187C14.1202 85.2044 14.1144 85.1899 14.1144 85.1681H13.9543ZM14.009 85.3212L13.8957 85.4344C13.9675 85.5062 14.0585 85.547 14.1621 85.547V85.3868V85.2267C14.149 85.2267 14.138 85.2237 14.1222 85.2079L14.009 85.3212ZM14.1621 85.3868V85.547H14.8949V85.3868V85.2267H14.1621V85.3868ZM14.8949 85.3868V85.547C14.9995 85.547 15.0924 85.505 15.1602 85.4237L15.0371 85.3212L14.9141 85.2187C14.9097 85.224 14.9073 85.2249 14.9071 85.225C14.9068 85.2251 14.9037 85.2267 14.8949 85.2267V85.3868ZM15.0371 85.3212L15.1504 85.4344C15.2221 85.3627 15.2629 85.2716 15.2629 85.1681H15.1027H14.9426C14.9426 85.1811 14.9396 85.1922 14.9239 85.2079L15.0371 85.3212ZM15.1027 85.1681H15.2629V83.8337H15.1027H14.9426V85.1681H15.1027ZM15.1027 83.8337H15.2629C15.2629 83.7301 15.2221 83.6391 15.1504 83.5673L15.0371 83.6805L14.9239 83.7938C14.9396 83.8095 14.9426 83.8206 14.9426 83.8337H15.1027ZM15.0371 83.6805L15.1602 83.578C15.0924 83.4967 14.9995 83.4548 14.8949 83.4548V83.6149V83.7751C14.9037 83.7751 14.9068 83.7766 14.9071 83.7767C14.9073 83.7768 14.9097 83.7778 14.9141 83.7831L15.0371 83.6805ZM14.8949 83.6149V83.4548H14.1621V83.6149V83.7751H14.8949V83.6149ZM14.1621 83.6149V83.4548C14.0585 83.4548 13.9675 83.4955 13.8957 83.5673L14.009 83.6805L14.1222 83.7938C14.138 83.778 14.149 83.7751 14.1621 83.7751V83.6149ZM14.009 83.6805L13.8859 83.578C13.8249 83.6513 13.7941 83.7389 13.7941 83.8337H13.9543H14.1144C14.1144 83.8118 14.1202 83.7973 14.132 83.7831L14.009 83.6805ZM15.1684 88.2744H15.3285V86.8197H15.1684H15.0082V88.2744H15.1684ZM15.1684 86.8197H15.3285C15.3285 86.7161 15.2878 86.625 15.216 86.5533L15.1027 86.6665L14.9895 86.7798C15.0052 86.7955 15.0082 86.8066 15.0082 86.8197H15.1684ZM15.1027 86.6665L15.2258 86.564C15.1581 86.4827 15.0651 86.4407 14.9606 86.4407V86.6009V86.7611C14.9693 86.7611 14.9724 86.7626 14.9727 86.7627C14.9729 86.7628 14.9753 86.7638 14.9797 86.7691L15.1027 86.6665ZM14.9606 86.6009V86.4407H14.0965V86.6009V86.7611H14.9606V86.6009ZM14.0965 86.6009V86.4407C13.9929 86.4407 13.9019 86.4815 13.8301 86.5533L13.9434 86.6665L14.0566 86.7798C14.0723 86.764 14.0834 86.7611 14.0965 86.7611V86.6009ZM13.9434 86.6665L13.8203 86.564C13.7592 86.6373 13.7285 86.7248 13.7285 86.8197H13.8887H14.0488C14.0488 86.7978 14.0545 86.7833 14.0664 86.7691L13.9434 86.6665ZM13.8887 86.8197H13.7285V88.2744H13.8887H14.0488V86.8197H13.8887ZM13.8887 88.2744H13.7285C13.7285 88.3692 13.7592 88.4567 13.8203 88.53L13.9434 88.4275L14.0664 88.325C14.0545 88.3108 14.0488 88.2962 14.0488 88.2744H13.8887ZM13.9434 88.4275L13.8301 88.5407C13.9019 88.6125 13.9929 88.6533 14.0965 88.6533V88.4931V88.333C14.0834 88.333 14.0723 88.33 14.0566 88.3143L13.9434 88.4275ZM14.0965 88.4931V88.6533H14.9606V88.4931V88.333H14.0965V88.4931ZM14.9606 88.4931V88.6533C15.0651 88.6533 15.1581 88.6113 15.2258 88.53L15.1027 88.4275L14.9797 88.325C14.9753 88.3303 14.9729 88.3312 14.9727 88.3313C14.9724 88.3314 14.9693 88.333 14.9606 88.333V88.4931ZM15.1027 88.4275L15.216 88.5407C15.2878 88.469 15.3285 88.378 15.3285 88.2744H15.1684H15.0082C15.0082 88.2875 15.0052 88.2985 14.9895 88.3143L15.1027 88.4275ZM19.8595 87.7165V87.5564H19.6994V87.7165H19.8595ZM21.2596 87.7165H21.4197V87.5564H21.2596V87.7165ZM21.3143 88.4275L21.1912 88.53L21.1959 88.5356L21.201 88.5407L21.3143 88.4275ZM22.3205 88.4275L22.2073 88.3143L22.2021 88.3194L22.1975 88.325L22.3205 88.4275ZM22.3862 86.6447H22.5463V86.3898L22.3167 86.5004L22.3862 86.6447ZM21.1611 85.3759L21.0381 85.4784L21.0427 85.484L21.0479 85.4891L21.1611 85.3759ZM22.3205 85.3759L22.2073 85.2626L22.2021 85.2678L22.1975 85.2734L22.3205 85.3759ZM22.3205 83.8009L22.1975 83.9034L22.2021 83.909L22.2073 83.9141L22.3205 83.8009ZM21.1611 83.8009L21.0479 83.6876L21.0427 83.6927L21.0381 83.6983L21.1611 83.8009ZM21.6533 86.7868V86.6267H21.1064V86.7868V86.947H21.6533V86.7868ZM21.1064 86.7868V86.6267C20.6817 86.6267 20.3919 86.5141 20.206 86.3162C20.0183 86.1165 19.9103 85.802 19.9103 85.3431H19.7502H19.59C19.59 85.8466 19.7081 86.2541 19.9725 86.5356C20.2387 86.8189 20.627 86.947 21.1064 86.947V86.7868ZM19.7502 85.3431H19.9103V83.8337H19.7502H19.59V85.3431H19.7502ZM19.7502 83.8337H19.9103C19.9103 83.3747 20.0183 83.0602 20.206 82.8605C20.3919 82.6626 20.6817 82.55 21.1064 82.55V82.3899V82.2297C20.627 82.2297 20.2387 82.3578 19.9725 82.6412C19.7081 82.9227 19.59 83.3301 19.59 83.8337H19.7502ZM21.1064 82.3899V82.55H22.3971V82.3899V82.2297H21.1064V82.3899ZM22.3971 82.3899V82.55C22.8218 82.55 23.1117 82.6626 23.2976 82.8605C23.4852 83.0602 23.5932 83.3747 23.5932 83.8337H23.7534H23.9135C23.9135 83.3301 23.7955 82.9227 23.531 82.6412C23.2648 82.3578 22.8765 82.2297 22.3971 82.2297V82.3899ZM23.7534 83.8337H23.5932V88.2416H23.7534H23.9135V83.8337H23.7534ZM23.7534 88.2416H23.5932C23.5932 88.7005 23.4852 89.015 23.2976 89.2147C23.1117 89.4126 22.8218 89.5252 22.3971 89.5252V89.6853V89.8455C22.8765 89.8455 23.2648 89.7174 23.531 89.434C23.7955 89.1526 23.9135 88.7451 23.9135 88.2416H23.7534ZM22.3971 89.6853V89.5252H21.2158V89.6853V89.8455H22.3971V89.6853ZM21.2158 89.6853V89.5252C20.7911 89.5252 20.5012 89.4126 20.3153 89.2147C20.1277 89.015 20.0197 88.7005 20.0197 88.2416H19.8595H19.6994C19.6994 88.7451 19.8174 89.1526 20.0819 89.434C20.3481 89.7174 20.7364 89.8455 21.2158 89.8455V89.6853ZM19.8595 88.2416H20.0197V87.7165H19.8595H19.6994V88.2416H19.8595ZM19.8595 87.7165V87.8767H21.2596V87.7165V87.5564H19.8595V87.7165ZM21.2596 87.7165H21.0994V88.2744H21.2596H21.4197V87.7165H21.2596ZM21.2596 88.2744H21.0994C21.0994 88.3692 21.1302 88.4567 21.1912 88.53L21.3143 88.4275L21.4373 88.325C21.4254 88.3108 21.4197 88.2962 21.4197 88.2744H21.2596ZM21.3143 88.4275L21.201 88.5407C21.2728 88.6125 21.3638 88.6533 21.4674 88.6533V88.4931V88.333C21.4543 88.333 21.4432 88.33 21.4275 88.3143L21.3143 88.4275ZM21.4674 88.4931V88.6533H22.1783V88.4931V88.333H21.4674V88.4931ZM22.1783 88.4931V88.6533C22.2829 88.6533 22.3758 88.6113 22.4436 88.53L22.3205 88.4275L22.1975 88.325C22.1931 88.3303 22.1907 88.3312 22.1905 88.3313C22.1902 88.3314 22.1871 88.333 22.1783 88.333V88.4931ZM22.3205 88.4275L22.4338 88.5407C22.5055 88.469 22.5463 88.378 22.5463 88.2744H22.3862H22.226C22.226 88.2875 22.223 88.2985 22.2073 88.3143L22.3205 88.4275ZM22.3862 88.2744H22.5463V86.6447H22.3862H22.226V88.2744H22.3862ZM22.3862 86.6447L22.3167 86.5004C22.1475 86.5818 21.9286 86.6267 21.6533 86.6267V86.7868V86.947C21.9614 86.947 22.2311 86.8971 22.4556 86.789L22.3862 86.6447ZM21.1064 83.954H20.9463V85.2228H21.1064H21.2666V83.954H21.1064ZM21.1064 85.2228H20.9463C20.9463 85.3176 20.977 85.4051 21.0381 85.4784L21.1611 85.3759L21.2842 85.2734C21.2723 85.2591 21.2666 85.2446 21.2666 85.2228H21.1064ZM21.1611 85.3759L21.0479 85.4891C21.1196 85.5609 21.2107 85.6017 21.3143 85.6017V85.4415V85.2814C21.3012 85.2814 21.2901 85.2784 21.2744 85.2626L21.1611 85.3759ZM21.3143 85.4415V85.6017H22.1783V85.4415V85.2814H21.3143V85.4415ZM22.1783 85.4415V85.6017C22.2829 85.6017 22.3758 85.5597 22.4436 85.4784L22.3205 85.3759L22.1975 85.2734C22.1931 85.2786 22.1907 85.2796 22.1905 85.2797C22.1902 85.2798 22.1871 85.2814 22.1783 85.2814V85.4415ZM22.3205 85.3759L22.4338 85.4891C22.5055 85.4174 22.5463 85.3263 22.5463 85.2228H22.3862H22.226C22.226 85.2358 22.223 85.2469 22.2073 85.2626L22.3205 85.3759ZM22.3862 85.2228H22.5463V83.954H22.3862H22.226V85.2228H22.3862ZM22.3862 83.954H22.5463C22.5463 83.8504 22.5055 83.7594 22.4338 83.6876L22.3205 83.8009L22.2073 83.9141C22.223 83.9298 22.226 83.9409 22.226 83.954H22.3862ZM22.3205 83.8009L22.4436 83.6983C22.3758 83.617 22.2829 83.5751 22.1783 83.5751V83.7352V83.8954C22.1871 83.8954 22.1902 83.8969 22.1905 83.897C22.1907 83.8971 22.1931 83.8981 22.1975 83.9034L22.3205 83.8009ZM22.1783 83.7352V83.5751H21.3143V83.7352V83.8954H22.1783V83.7352ZM21.3143 83.7352V83.5751C21.2107 83.5751 21.1196 83.6158 21.0479 83.6876L21.1611 83.8009L21.2744 83.9141C21.2901 83.8984 21.3012 83.8954 21.3143 83.8954V83.7352ZM21.1611 83.8009L21.0381 83.6983C20.977 83.7716 20.9463 83.8592 20.9463 83.954H21.1064H21.2666C21.2666 83.9321 21.2723 83.9176 21.2842 83.9034L21.1611 83.8009ZM30.5372 85.9556L30.4426 85.8263L30.2623 85.9583L30.4452 86.0866L30.5372 85.9556ZM27.5622 85.9556L27.6542 86.0866L27.837 85.9583L27.6567 85.8263L27.5622 85.9556ZM28.5356 85.3212L28.4126 85.4237L28.4172 85.4293L28.4224 85.4344L28.5356 85.3212ZM29.5638 85.3212L29.4505 85.2079L29.4454 85.2131L29.4407 85.2187L29.5638 85.3212ZM29.5638 83.6805L29.4407 83.7831L29.4454 83.7886L29.4505 83.7938L29.5638 83.6805ZM28.5356 83.6805L28.4224 83.5673L28.4172 83.5724L28.4126 83.578L28.5356 83.6805ZM29.6294 86.6665L29.5064 86.7691L29.511 86.7746L29.5161 86.7798L29.6294 86.6665ZM28.47 86.6665L28.3567 86.5533L28.3516 86.5584L28.347 86.564L28.47 86.6665ZM28.47 88.4275L28.347 88.53L28.3516 88.5356L28.3567 88.5407L28.47 88.4275ZM29.6294 88.4275L29.5161 88.3143L29.511 88.3194L29.5064 88.325L29.6294 88.4275ZM30.5372 85.9556L30.4452 86.0866C30.7298 86.2865 30.8911 86.6382 30.8911 87.1915H31.0513H31.2114C31.2114 86.5782 31.03 86.1059 30.6292 85.8245L30.5372 85.9556ZM31.0513 87.1915H30.8911V88.2416H31.0513H31.2114V87.1915H31.0513ZM31.0513 88.2416H30.8911C30.8911 88.7005 30.7832 89.015 30.5955 89.2147C30.4096 89.4126 30.1198 89.5252 29.695 89.5252V89.6853V89.8455C30.1744 89.8455 30.5627 89.7174 30.8289 89.434C31.0934 89.1526 31.2114 88.7451 31.2114 88.2416H31.0513ZM29.695 89.6853V89.5252H28.4044V89.6853V89.8455H29.695V89.6853ZM28.4044 89.6853V89.5252C27.9796 89.5252 27.6898 89.4126 27.5039 89.2147C27.3162 89.015 27.2082 88.7005 27.2082 88.2416H27.0481H26.8879C26.8879 88.7451 27.006 89.1526 27.2704 89.434C27.5366 89.7174 27.9249 89.8455 28.4044 89.8455V89.6853ZM27.0481 88.2416H27.2082V87.1915H27.0481H26.8879V88.2416H27.0481ZM27.0481 87.1915H27.2082C27.2082 86.6382 27.3696 86.2865 27.6542 86.0866L27.5622 85.9556L27.4701 85.8245C27.0693 86.1059 26.8879 86.5782 26.8879 87.1915H27.0481ZM27.5622 85.9556L27.6567 85.8263C27.4174 85.6512 27.2739 85.3202 27.2739 84.7743H27.1137H26.9536C26.9536 85.3659 27.109 85.8224 27.4676 86.0848L27.5622 85.9556ZM27.1137 84.7743H27.2739V83.8337H27.1137H26.9536V84.7743H27.1137ZM27.1137 83.8337H27.2739C27.2739 83.3747 27.3819 83.0602 27.5695 82.8605C27.7554 82.6626 28.0452 82.55 28.47 82.55V82.3899V82.2297C27.9906 82.2297 27.6023 82.3578 27.3361 82.6412C27.0716 82.9227 26.9536 83.3301 26.9536 83.8337H27.1137ZM28.47 82.3899V82.55H29.6294V82.3899V82.2297H28.47V82.3899ZM29.6294 82.3899V82.55C30.0541 82.55 30.344 82.6626 30.5299 82.8605C30.7175 83.0602 30.8255 83.3747 30.8255 83.8337H30.9857H31.1458C31.1458 83.3301 31.0278 82.9227 30.7633 82.6412C30.4971 82.3578 30.1088 82.2297 29.6294 82.2297V82.3899ZM30.9857 83.8337H30.8255V84.7743H30.9857H31.1458V83.8337H30.9857ZM30.9857 84.7743H30.8255C30.8255 85.3202 30.682 85.6512 30.4426 85.8263L30.5372 85.9556L30.6318 86.0848C30.9904 85.8224 31.1458 85.3659 31.1458 84.7743H30.9857ZM28.4809 83.8337H28.3208V85.1681H28.4809H28.6411V83.8337H28.4809ZM28.4809 85.1681H28.3208C28.3208 85.2629 28.3515 85.3504 28.4126 85.4237L28.5356 85.3212L28.6587 85.2187C28.6468 85.2044 28.6411 85.1899 28.6411 85.1681H28.4809ZM28.5356 85.3212L28.4224 85.4344C28.4941 85.5062 28.5852 85.547 28.6887 85.547V85.3868V85.2267C28.6757 85.2267 28.6646 85.2237 28.6489 85.2079L28.5356 85.3212ZM28.6887 85.3868V85.547H29.4216V85.3868V85.2267H28.6887V85.3868ZM29.4216 85.3868V85.547C29.5261 85.547 29.6191 85.505 29.6868 85.4237L29.5638 85.3212L29.4407 85.2187C29.4363 85.224 29.434 85.2249 29.4338 85.225C29.4335 85.2251 29.4303 85.2267 29.4216 85.2267V85.3868ZM29.5638 85.3212L29.677 85.4344C29.7488 85.3627 29.7895 85.2716 29.7895 85.1681H29.6294H29.4692C29.4692 85.1811 29.4663 85.1922 29.4505 85.2079L29.5638 85.3212ZM29.6294 85.1681H29.7895V83.8337H29.6294H29.4692V85.1681H29.6294ZM29.6294 83.8337H29.7895C29.7895 83.7301 29.7488 83.6391 29.677 83.5673L29.5638 83.6805L29.4505 83.7938C29.4663 83.8095 29.4692 83.8206 29.4692 83.8337H29.6294ZM29.5638 83.6805L29.6868 83.578C29.6191 83.4967 29.5261 83.4548 29.4216 83.4548V83.6149V83.7751C29.4303 83.7751 29.4335 83.7766 29.4338 83.7767C29.434 83.7768 29.4363 83.7778 29.4407 83.7831L29.5638 83.6805ZM29.4216 83.6149V83.4548H28.6887V83.6149V83.7751H29.4216V83.6149ZM28.6887 83.6149V83.4548C28.5852 83.4548 28.4941 83.4955 28.4224 83.5673L28.5356 83.6805L28.6489 83.7938C28.6646 83.778 28.6757 83.7751 28.6887 83.7751V83.6149ZM28.5356 83.6805L28.4126 83.578C28.3515 83.6513 28.3208 83.7389 28.3208 83.8337H28.4809H28.6411C28.6411 83.8118 28.6468 83.7973 28.6587 83.7831L28.5356 83.6805ZM29.695 88.2744H29.8552V86.8197H29.695H29.5349V88.2744H29.695ZM29.695 86.8197H29.8552C29.8552 86.7161 29.8144 86.625 29.7426 86.5533L29.6294 86.6665L29.5161 86.7798C29.5319 86.7955 29.5349 86.8066 29.5349 86.8197H29.695ZM29.6294 86.6665L29.7524 86.564C29.6847 86.4827 29.5917 86.4407 29.4872 86.4407V86.6009V86.7611C29.4959 86.7611 29.4991 86.7626 29.4994 86.7627C29.4996 86.7628 29.5019 86.7638 29.5064 86.7691L29.6294 86.6665ZM29.4872 86.6009V86.4407H28.6231V86.6009V86.7611H29.4872V86.6009ZM28.6231 86.6009V86.4407C28.5195 86.4407 28.4285 86.4815 28.3567 86.5533L28.47 86.6665L28.5832 86.7798C28.599 86.764 28.61 86.7611 28.6231 86.7611V86.6009ZM28.47 86.6665L28.347 86.564C28.2859 86.6373 28.2551 86.7248 28.2551 86.8197H28.4153H28.5755C28.5755 86.7978 28.5812 86.7833 28.593 86.7691L28.47 86.6665ZM28.4153 86.8197H28.2551V88.2744H28.4153H28.5755V86.8197H28.4153ZM28.4153 88.2744H28.2551C28.2551 88.3692 28.2859 88.4567 28.347 88.53L28.47 88.4275L28.593 88.325C28.5812 88.3108 28.5755 88.2962 28.5755 88.2744H28.4153ZM28.47 88.4275L28.3567 88.5407C28.4285 88.6125 28.5195 88.6533 28.6231 88.6533V88.4931V88.333C28.61 88.333 28.599 88.33 28.5832 88.3143L28.47 88.4275ZM28.6231 88.4931V88.6533H29.4872V88.4931V88.333H28.6231V88.4931ZM29.4872 88.4931V88.6533C29.5917 88.6533 29.6847 88.6113 29.7524 88.53L29.6294 88.4275L29.5064 88.325C29.5019 88.3303 29.4996 88.3312 29.4994 88.3313C29.4991 88.3314 29.4959 88.333 29.4872 88.333V88.4931ZM29.6294 88.4275L29.7426 88.5407C29.8144 88.469 29.8552 88.378 29.8552 88.2744H29.695H29.5349C29.5349 88.2875 29.5319 88.2985 29.5161 88.3143L29.6294 88.4275ZM34.3424 82.4993V82.3391H34.1823V82.4993H34.3424ZM37.9519 82.4993L38.1087 82.5317L38.1486 82.3391H37.9519V82.4993ZM36.4862 89.576V89.7361H36.6166L36.643 89.6084L36.4862 89.576ZM35.0971 89.576L34.9399 89.5454L34.9028 89.7361H35.0971V89.576ZM36.2456 83.6696L36.4028 83.7002L36.4399 83.5094H36.2456V83.6696ZM34.3424 83.6696H34.1823V83.8298H34.3424V83.6696ZM34.3424 82.4993V82.6594H37.9519V82.4993V82.3391H34.3424V82.4993ZM37.9519 82.4993L37.795 82.4668L36.3294 89.5435L36.4862 89.576L36.643 89.6084L38.1087 82.5317L37.9519 82.4993ZM36.4862 89.576V89.4158H35.0971V89.576V89.7361H36.4862V89.576ZM35.0971 89.576L35.2543 89.6065L36.4028 83.7002L36.2456 83.6696L36.0884 83.639L34.9399 89.5454L35.0971 89.576ZM36.2456 83.6696V83.5094H34.3424V83.6696V83.8298H36.2456V83.6696ZM34.3424 83.6696H34.5026V82.4993H34.3424H34.1823V83.6696H34.3424ZM42.479 85.9556L42.3844 85.8263L42.2041 85.9583L42.3869 86.0866L42.479 85.9556ZM39.5039 85.9556L39.5959 86.0866L39.7788 85.9583L39.5985 85.8263L39.5039 85.9556ZM40.4774 85.3212L40.3543 85.4237L40.359 85.4293L40.3641 85.4344L40.4774 85.3212ZM41.5055 85.3212L41.3923 85.2079L41.3871 85.2131L41.3825 85.2187L41.5055 85.3212ZM41.5055 83.6805L41.3825 83.7831L41.3871 83.7886L41.3923 83.7938L41.5055 83.6805ZM40.4774 83.6805L40.3641 83.5673L40.359 83.5724L40.3543 83.578L40.4774 83.6805ZM41.5711 86.6665L41.4481 86.7691L41.4528 86.7746L41.4579 86.7798L41.5711 86.6665ZM40.4117 86.6665L40.2985 86.5533L40.2934 86.5584L40.2887 86.564L40.4117 86.6665ZM40.4117 88.4275L40.2887 88.53L40.2934 88.5356L40.2985 88.5407L40.4117 88.4275ZM41.5711 88.4275L41.4579 88.3143L41.4528 88.3194L41.4481 88.325L41.5711 88.4275ZM42.479 85.9556L42.3869 86.0866C42.6716 86.2865 42.8329 86.6382 42.8329 87.1915H42.993H43.1532C43.1532 86.5782 42.9718 86.1059 42.571 85.8245L42.479 85.9556ZM42.993 87.1915H42.8329V88.2416H42.993H43.1532V87.1915H42.993ZM42.993 88.2416H42.8329C42.8329 88.7005 42.7249 89.015 42.5372 89.2147C42.3514 89.4126 42.0615 89.5252 41.6368 89.5252V89.6853V89.8455C42.1162 89.8455 42.5045 89.7174 42.7707 89.434C43.0351 89.1526 43.1532 88.7451 43.1532 88.2416H42.993ZM41.6368 89.6853V89.5252H40.3461V89.6853V89.8455H41.6368V89.6853ZM40.3461 89.6853V89.5252C39.9214 89.5252 39.6315 89.4126 39.4456 89.2147C39.258 89.015 39.15 88.7005 39.15 88.2416H38.9898H38.8297C38.8297 88.7451 38.9478 89.1526 39.2122 89.434C39.4784 89.7174 39.8667 89.8455 40.3461 89.8455V89.6853ZM38.9898 88.2416H39.15V87.1915H38.9898H38.8297V88.2416H38.9898ZM38.9898 87.1915H39.15C39.15 86.6382 39.3113 86.2865 39.5959 86.0866L39.5039 85.9556L39.4119 85.8245C39.0111 86.1059 38.8297 86.5782 38.8297 87.1915H38.9898ZM39.5039 85.9556L39.5985 85.8263C39.3592 85.6512 39.2156 85.3202 39.2156 84.7743H39.0555H38.8953C38.8953 85.3659 39.0507 85.8224 39.4093 86.0848L39.5039 85.9556ZM39.0555 84.7743H39.2156V83.8337H39.0555H38.8953V84.7743H39.0555ZM39.0555 83.8337H39.2156C39.2156 83.3747 39.3236 83.0602 39.5113 82.8605C39.6972 82.6626 39.987 82.55 40.4117 82.55V82.3899V82.2297C39.9323 82.2297 39.544 82.3578 39.2778 82.6412C39.0134 82.9227 38.8953 83.3301 38.8953 83.8337H39.0555ZM40.4117 82.3899V82.55H41.5711V82.3899V82.2297H40.4117V82.3899ZM41.5711 82.3899V82.55C41.9959 82.55 42.2857 82.6626 42.4716 82.8605C42.6593 83.0602 42.7673 83.3747 42.7673 83.8337H42.9274H43.0876C43.0876 83.3301 42.9695 82.9227 42.7051 82.6412C42.4389 82.3578 42.0506 82.2297 41.5711 82.2297V82.3899ZM42.9274 83.8337H42.7673V84.7743H42.9274H43.0876V83.8337H42.9274ZM42.9274 84.7743H42.7673C42.7673 85.3202 42.6237 85.6512 42.3844 85.8263L42.479 85.9556L42.5735 86.0848C42.9321 85.8224 43.0876 85.3659 43.0876 84.7743H42.9274ZM40.4227 83.8337H40.2625V85.1681H40.4227H40.5828V83.8337H40.4227ZM40.4227 85.1681H40.2625C40.2625 85.2629 40.2933 85.3504 40.3543 85.4237L40.4774 85.3212L40.6004 85.2187C40.5886 85.2044 40.5828 85.1899 40.5828 85.1681H40.4227ZM40.4774 85.3212L40.3641 85.4344C40.4359 85.5062 40.5269 85.547 40.6305 85.547V85.3868V85.2267C40.6174 85.2267 40.6064 85.2237 40.5906 85.2079L40.4774 85.3212ZM40.6305 85.3868V85.547H41.3633V85.3868V85.2267H40.6305V85.3868ZM41.3633 85.3868V85.547C41.4679 85.547 41.5608 85.505 41.6285 85.4237L41.5055 85.3212L41.3825 85.2187C41.3781 85.224 41.3757 85.2249 41.3755 85.225C41.3752 85.2251 41.3721 85.2267 41.3633 85.2267V85.3868ZM41.5055 85.3212L41.6188 85.4344C41.6905 85.3627 41.7313 85.2716 41.7313 85.1681H41.5711H41.411C41.411 85.1811 41.408 85.1922 41.3923 85.2079L41.5055 85.3212ZM41.5711 85.1681H41.7313V83.8337H41.5711H41.411V85.1681H41.5711ZM41.5711 83.8337H41.7313C41.7313 83.7301 41.6905 83.6391 41.6188 83.5673L41.5055 83.6805L41.3923 83.7938C41.408 83.8095 41.411 83.8206 41.411 83.8337H41.5711ZM41.5055 83.6805L41.6285 83.578C41.5608 83.4967 41.4679 83.4548 41.3633 83.4548V83.6149V83.7751C41.3721 83.7751 41.3752 83.7766 41.3755 83.7767C41.3757 83.7768 41.3781 83.7778 41.3825 83.7831L41.5055 83.6805ZM41.3633 83.6149V83.4548H40.6305V83.6149V83.7751H41.3633V83.6149ZM40.6305 83.6149V83.4548C40.5269 83.4548 40.4359 83.4955 40.3641 83.5673L40.4774 83.6805L40.5906 83.7938C40.6064 83.778 40.6174 83.7751 40.6305 83.7751V83.6149ZM40.4774 83.6805L40.3543 83.578C40.2933 83.6513 40.2625 83.7389 40.2625 83.8337H40.4227H40.5828C40.5828 83.8118 40.5886 83.7973 40.6004 83.7831L40.4774 83.6805ZM41.6368 88.2744H41.7969V86.8197H41.6368H41.4766V88.2744H41.6368ZM41.6368 86.8197H41.7969C41.7969 86.7161 41.7562 86.625 41.6844 86.5533L41.5711 86.6665L41.4579 86.7798C41.4736 86.7955 41.4766 86.8066 41.4766 86.8197H41.6368ZM41.5711 86.6665L41.6942 86.564C41.6264 86.4827 41.5335 86.4407 41.429 86.4407V86.6009V86.7611C41.4377 86.7611 41.4408 86.7626 41.4411 86.7627C41.4413 86.7628 41.4437 86.7638 41.4481 86.7691L41.5711 86.6665ZM41.429 86.6009V86.4407H40.5649V86.6009V86.7611H41.429V86.6009ZM40.5649 86.6009V86.4407C40.4613 86.4407 40.3703 86.4815 40.2985 86.5533L40.4117 86.6665L40.525 86.7798C40.5407 86.764 40.5518 86.7611 40.5649 86.7611V86.6009ZM40.4117 86.6665L40.2887 86.564C40.2276 86.6373 40.1969 86.7248 40.1969 86.8197H40.3571H40.5172C40.5172 86.7978 40.5229 86.7833 40.5348 86.7691L40.4117 86.6665ZM40.3571 86.8197H40.1969V88.2744H40.3571H40.5172V86.8197H40.3571ZM40.3571 88.2744H40.1969C40.1969 88.3692 40.2276 88.4567 40.2887 88.53L40.4117 88.4275L40.5348 88.325C40.5229 88.3108 40.5172 88.2962 40.5172 88.2744H40.3571ZM40.4117 88.4275L40.2985 88.5407C40.3703 88.6125 40.4613 88.6533 40.5649 88.6533V88.4931V88.333C40.5518 88.333 40.5407 88.33 40.525 88.3143L40.4117 88.4275ZM40.5649 88.4931V88.6533H41.429V88.4931V88.333H40.5649V88.4931ZM41.429 88.4931V88.6533C41.5335 88.6533 41.6264 88.6113 41.6942 88.53L41.5711 88.4275L41.4481 88.325C41.4437 88.3303 41.4413 88.3312 41.4411 88.3313C41.4408 88.3314 41.4377 88.333 41.429 88.333V88.4931ZM41.5711 88.4275L41.6844 88.5407C41.7562 88.469 41.7969 88.378 41.7969 88.2744H41.6368H41.4766C41.4766 88.2875 41.4736 88.2985 41.4579 88.3143L41.5711 88.4275ZM44.1169 87.7165V87.5564H43.9567V87.7165H44.1169ZM45.5169 87.7165H45.6771V87.5564H45.5169V87.7165ZM45.5716 88.4275L45.4486 88.53L45.4532 88.5356L45.4584 88.5407L45.5716 88.4275ZM46.5779 88.4275L46.4646 88.3143L46.4595 88.3194L46.4548 88.325L46.5779 88.4275ZM46.6435 86.6447H46.8037V86.3898L46.574 86.5004L46.6435 86.6447ZM45.4185 85.3759L45.2954 85.4784L45.3001 85.484L45.3052 85.4891L45.4185 85.3759ZM46.5779 85.3759L46.4646 85.2626L46.4595 85.2678L46.4548 85.2734L46.5779 85.3759ZM46.5779 83.8009L46.4548 83.9034L46.4595 83.909L46.4646 83.9141L46.5779 83.8009ZM45.4185 83.8009L45.3052 83.6876L45.3001 83.6927L45.2954 83.6983L45.4185 83.8009ZM45.9107 86.7868V86.6267H45.3638V86.7868V86.947H45.9107V86.7868ZM45.3638 86.7868V86.6267C44.939 86.6267 44.6492 86.5141 44.4633 86.3162C44.2757 86.1165 44.1677 85.802 44.1677 85.3431H44.0075H43.8474C43.8474 85.8466 43.9654 86.2541 44.2299 86.5356C44.4961 86.8189 44.8844 86.947 45.3638 86.947V86.7868ZM44.0075 85.3431H44.1677V83.8337H44.0075H43.8474V85.3431H44.0075ZM44.0075 83.8337H44.1677C44.1677 83.3747 44.2757 83.0602 44.4633 82.8605C44.6492 82.6626 44.939 82.55 45.3638 82.55V82.3899V82.2297C44.8844 82.2297 44.4961 82.3578 44.2299 82.6412C43.9654 82.9227 43.8474 83.3301 43.8474 83.8337H44.0075ZM45.3638 82.3899V82.55H46.6544V82.3899V82.2297H45.3638V82.3899ZM46.6544 82.3899V82.55C47.0792 82.55 47.369 82.6626 47.5549 82.8605C47.7426 83.0602 47.8506 83.3747 47.8506 83.8337H48.0107H48.1709C48.1709 83.3301 48.0528 82.9227 47.7884 82.6412C47.5222 82.3578 47.1339 82.2297 46.6544 82.2297V82.3899ZM48.0107 83.8337H47.8506V88.2416H48.0107H48.1709V83.8337H48.0107ZM48.0107 88.2416H47.8506C47.8506 88.7005 47.7426 89.015 47.5549 89.2147C47.369 89.4126 47.0792 89.5252 46.6544 89.5252V89.6853V89.8455C47.1339 89.8455 47.5222 89.7174 47.7884 89.434C48.0528 89.1526 48.1709 88.7451 48.1709 88.2416H48.0107ZM46.6544 89.6853V89.5252H45.4732V89.6853V89.8455H46.6544V89.6853ZM45.4732 89.6853V89.5252C45.0484 89.5252 44.7586 89.4126 44.5727 89.2147C44.385 89.015 44.277 88.7005 44.277 88.2416H44.1169H43.9567C43.9567 88.7451 44.0748 89.1526 44.3392 89.434C44.6054 89.7174 44.9937 89.8455 45.4732 89.8455V89.6853ZM44.1169 88.2416H44.277V87.7165H44.1169H43.9567V88.2416H44.1169ZM44.1169 87.7165V87.8767H45.5169V87.7165V87.5564H44.1169V87.7165ZM45.5169 87.7165H45.3568V88.2744H45.5169H45.6771V87.7165H45.5169ZM45.5169 88.2744H45.3568C45.3568 88.3692 45.3875 88.4567 45.4486 88.53L45.5716 88.4275L45.6946 88.325C45.6828 88.3108 45.6771 88.2962 45.6771 88.2744H45.5169ZM45.5716 88.4275L45.4584 88.5407C45.5301 88.6125 45.6211 88.6533 45.7247 88.6533V88.4931V88.333C45.7117 88.333 45.7006 88.33 45.6849 88.3143L45.5716 88.4275ZM45.7247 88.4931V88.6533H46.4357V88.4931V88.333H45.7247V88.4931ZM46.4357 88.4931V88.6533C46.5402 88.6533 46.6332 88.6113 46.7009 88.53L46.5779 88.4275L46.4548 88.325C46.4504 88.3303 46.4481 88.3312 46.4479 88.3313C46.4476 88.3314 46.4444 88.333 46.4357 88.333V88.4931ZM46.5779 88.4275L46.6911 88.5407C46.7629 88.469 46.8037 88.378 46.8037 88.2744H46.6435H46.4833C46.4833 88.2875 46.4804 88.2985 46.4646 88.3143L46.5779 88.4275ZM46.6435 88.2744H46.8037V86.6447H46.6435H46.4833V88.2744H46.6435ZM46.6435 86.6447L46.574 86.5004C46.4048 86.5818 46.186 86.6267 45.9107 86.6267V86.7868V86.947C46.2187 86.947 46.4884 86.8971 46.713 86.789L46.6435 86.6447ZM45.3638 83.954H45.2036V85.2228H45.3638H45.5239V83.954H45.3638ZM45.3638 85.2228H45.2036C45.2036 85.3176 45.2344 85.4051 45.2954 85.4784L45.4185 85.3759L45.5415 85.2734C45.5297 85.2591 45.5239 85.2446 45.5239 85.2228H45.3638ZM45.4185 85.3759L45.3052 85.4891C45.377 85.5609 45.468 85.6017 45.5716 85.6017V85.4415V85.2814C45.5585 85.2814 45.5475 85.2784 45.5317 85.2626L45.4185 85.3759ZM45.5716 85.4415V85.6017H46.4357V85.4415V85.2814H45.5716V85.4415ZM46.4357 85.4415V85.6017C46.5402 85.6017 46.6332 85.5597 46.7009 85.4784L46.5779 85.3759L46.4548 85.2734C46.4504 85.2786 46.4481 85.2796 46.4479 85.2797C46.4476 85.2798 46.4444 85.2814 46.4357 85.2814V85.4415ZM46.5779 85.3759L46.6911 85.4891C46.7629 85.4174 46.8037 85.3263 46.8037 85.2228H46.6435H46.4833C46.4833 85.2358 46.4804 85.2469 46.4646 85.2626L46.5779 85.3759ZM46.6435 85.2228H46.8037V83.954H46.6435H46.4833V85.2228H46.6435ZM46.6435 83.954H46.8037C46.8037 83.8504 46.7629 83.7594 46.6911 83.6876L46.5779 83.8009L46.4646 83.9141C46.4804 83.9298 46.4833 83.9409 46.4833 83.954H46.6435ZM46.5779 83.8009L46.7009 83.6983C46.6332 83.617 46.5402 83.5751 46.4357 83.5751V83.7352V83.8954C46.4444 83.8954 46.4476 83.8969 46.4479 83.897C46.4481 83.8971 46.4504 83.8981 46.4548 83.9034L46.5779 83.8009ZM46.4357 83.7352V83.5751H45.5716V83.7352V83.8954H46.4357V83.7352ZM45.5716 83.7352V83.5751C45.468 83.5751 45.377 83.6158 45.3052 83.6876L45.4185 83.8009L45.5317 83.9141C45.5475 83.8984 45.5585 83.8954 45.5716 83.8954V83.7352ZM45.4185 83.8009L45.2954 83.6983C45.2344 83.7716 45.2036 83.8592 45.2036 83.954H45.3638H45.5239C45.5239 83.9321 45.5297 83.9176 45.5415 83.9034L45.4185 83.8009ZM51.3054 87.7165V87.5564H51.1453V87.7165H51.3054ZM52.7055 87.7165H52.8656V87.5564H52.7055V87.7165ZM52.7602 88.4275L52.6371 88.53L52.6418 88.5356L52.6469 88.5407L52.7602 88.4275ZM53.7664 88.4275L53.6532 88.3143L53.648 88.3194L53.6434 88.325L53.7664 88.4275ZM53.8321 86.6447H53.9922V86.3898L53.7626 86.5004L53.8321 86.6447ZM52.607 85.3759L52.484 85.4784L52.4886 85.484L52.4938 85.4891L52.607 85.3759ZM53.7664 85.3759L53.6532 85.2626L53.648 85.2678L53.6434 85.2734L53.7664 85.3759ZM53.7664 83.8009L53.6434 83.9034L53.648 83.909L53.6532 83.9141L53.7664 83.8009ZM52.607 83.8009L52.4938 83.6876L52.4886 83.6927L52.484 83.6983L52.607 83.8009ZM53.0992 86.7868V86.6267H52.5523V86.7868V86.947H53.0992V86.7868ZM52.5523 86.7868V86.6267C52.1276 86.6267 51.8378 86.5141 51.6519 86.3162C51.4642 86.1165 51.3562 85.802 51.3562 85.3431H51.1961H51.0359C51.0359 85.8466 51.154 86.2541 51.4184 86.5356C51.6846 86.8189 52.0729 86.947 52.5523 86.947V86.7868ZM51.1961 85.3431H51.3562V83.8337H51.1961H51.0359V85.3431H51.1961ZM51.1961 83.8337H51.3562C51.3562 83.3747 51.4642 83.0602 51.6519 82.8605C51.8378 82.6626 52.1276 82.55 52.5523 82.55V82.3899V82.2297C52.0729 82.2297 51.6846 82.3578 51.4184 82.6412C51.154 82.9227 51.0359 83.3301 51.0359 83.8337H51.1961ZM52.5523 82.3899V82.55H53.843V82.3899V82.2297H52.5523V82.3899ZM53.843 82.3899V82.55C54.2677 82.55 54.5576 82.6626 54.7435 82.8605C54.9311 83.0602 55.0391 83.3747 55.0391 83.8337H55.1993H55.3594C55.3594 83.3301 55.2414 82.9227 54.9769 82.6412C54.7107 82.3578 54.3224 82.2297 53.843 82.2297V82.3899ZM55.1993 83.8337H55.0391V88.2416H55.1993H55.3594V83.8337H55.1993ZM55.1993 88.2416H55.0391C55.0391 88.7005 54.9311 89.015 54.7435 89.2147C54.5576 89.4126 54.2677 89.5252 53.843 89.5252V89.6853V89.8455C54.3224 89.8455 54.7107 89.7174 54.9769 89.434C55.2414 89.1526 55.3594 88.7451 55.3594 88.2416H55.1993ZM53.843 89.6853V89.5252H52.6617V89.6853V89.8455H53.843V89.6853ZM52.6617 89.6853V89.5252C52.237 89.5252 51.9471 89.4126 51.7612 89.2147C51.5736 89.015 51.4656 88.7005 51.4656 88.2416H51.3054H51.1453C51.1453 88.7451 51.2634 89.1526 51.5278 89.434C51.794 89.7174 52.1823 89.8455 52.6617 89.8455V89.6853ZM51.3054 88.2416H51.4656V87.7165H51.3054H51.1453V88.2416H51.3054ZM51.3054 87.7165V87.8767H52.7055V87.7165V87.5564H51.3054V87.7165ZM52.7055 87.7165H52.5453V88.2744H52.7055H52.8656V87.7165H52.7055ZM52.7055 88.2744H52.5453C52.5453 88.3692 52.5761 88.4567 52.6371 88.53L52.7602 88.4275L52.8832 88.325C52.8713 88.3108 52.8656 88.2962 52.8656 88.2744H52.7055ZM52.7602 88.4275L52.6469 88.5407C52.7187 88.6125 52.8097 88.6533 52.9133 88.6533V88.4931V88.333C52.9002 88.333 52.8891 88.33 52.8734 88.3143L52.7602 88.4275ZM52.9133 88.4931V88.6533H53.6242V88.4931V88.333H52.9133V88.4931ZM53.6242 88.4931V88.6533C53.7288 88.6533 53.8217 88.6113 53.8895 88.53L53.7664 88.4275L53.6434 88.325C53.639 88.3303 53.6366 88.3312 53.6364 88.3313C53.6361 88.3314 53.633 88.333 53.6242 88.333V88.4931ZM53.7664 88.4275L53.8797 88.5407C53.9514 88.469 53.9922 88.378 53.9922 88.2744H53.8321H53.6719C53.6719 88.2875 53.6689 88.2985 53.6532 88.3143L53.7664 88.4275ZM53.8321 88.2744H53.9922V86.6447H53.8321H53.6719V88.2744H53.8321ZM53.8321 86.6447L53.7626 86.5004C53.5934 86.5818 53.3745 86.6267 53.0992 86.6267V86.7868V86.947C53.4073 86.947 53.677 86.8971 53.9015 86.789L53.8321 86.6447ZM52.5523 83.954H52.3922V85.2228H52.5523H52.7125V83.954H52.5523ZM52.5523 85.2228H52.3922C52.3922 85.3176 52.4229 85.4051 52.484 85.4784L52.607 85.3759L52.7301 85.2734C52.7182 85.2591 52.7125 85.2446 52.7125 85.2228H52.5523ZM52.607 85.3759L52.4938 85.4891C52.5655 85.5609 52.6566 85.6017 52.7602 85.6017V85.4415V85.2814C52.7471 85.2814 52.736 85.2784 52.7203 85.2626L52.607 85.3759ZM52.7602 85.4415V85.6017H53.6242V85.4415V85.2814H52.7602V85.4415ZM53.6242 85.4415V85.6017C53.7288 85.6017 53.8217 85.5597 53.8895 85.4784L53.7664 85.3759L53.6434 85.2734C53.639 85.2786 53.6366 85.2796 53.6364 85.2797C53.6361 85.2798 53.633 85.2814 53.6242 85.2814V85.4415ZM53.7664 85.3759L53.8797 85.4891C53.9514 85.4174 53.9922 85.3263 53.9922 85.2228H53.8321H53.6719C53.6719 85.2358 53.6689 85.2469 53.6532 85.2626L53.7664 85.3759ZM53.8321 85.2228H53.9922V83.954H53.8321H53.6719V85.2228H53.8321ZM53.8321 83.954H53.9922C53.9922 83.8504 53.9514 83.7594 53.8797 83.6876L53.7664 83.8009L53.6532 83.9141C53.6689 83.9298 53.6719 83.9409 53.6719 83.954H53.8321ZM53.7664 83.8009L53.8895 83.6983C53.8217 83.617 53.7288 83.5751 53.6242 83.5751V83.7352V83.8954C53.633 83.8954 53.6361 83.8969 53.6364 83.897C53.6366 83.8971 53.639 83.8981 53.6434 83.9034L53.7664 83.8009ZM53.6242 83.7352V83.5751H52.7602V83.7352V83.8954H53.6242V83.7352ZM52.7602 83.7352V83.5751C52.6566 83.5751 52.5655 83.6158 52.4938 83.6876L52.607 83.8009L52.7203 83.9141C52.736 83.8984 52.7471 83.8954 52.7602 83.8954V83.7352ZM52.607 83.8009L52.484 83.6983C52.4229 83.7716 52.3922 83.8592 52.3922 83.954H52.5523H52.7125C52.7125 83.9321 52.7182 83.9176 52.7301 83.9034L52.607 83.8009ZM56.283 87.7165V87.5564H56.1228V87.7165H56.283ZM57.683 87.7165H57.8431V87.5564H57.683V87.7165ZM57.7377 88.4275L57.6146 88.53L57.6193 88.5356L57.6244 88.5407L57.7377 88.4275ZM58.7439 88.4275L58.6307 88.3143L58.6256 88.3194L58.6209 88.325L58.7439 88.4275ZM58.8096 86.6447H58.9697V86.3898L58.7401 86.5004L58.8096 86.6447ZM57.5845 85.3759L57.4615 85.4784L57.4662 85.484L57.4713 85.4891L57.5845 85.3759ZM58.7439 85.3759L58.6307 85.2626L58.6256 85.2678L58.6209 85.2734L58.7439 85.3759ZM58.7439 83.8009L58.6209 83.9034L58.6256 83.909L58.6307 83.9141L58.7439 83.8009ZM57.5845 83.8009L57.4713 83.6876L57.4662 83.6927L57.4615 83.6983L57.5845 83.8009ZM58.0767 86.7868V86.6267H57.5299V86.7868V86.947H58.0767V86.7868ZM57.5299 86.7868V86.6267C57.1051 86.6267 56.8153 86.5141 56.6294 86.3162C56.4417 86.1165 56.3337 85.802 56.3337 85.3431H56.1736H56.0134C56.0134 85.8466 56.1315 86.2541 56.3959 86.5356C56.6621 86.8189 57.0504 86.947 57.5299 86.947V86.7868ZM56.1736 85.3431H56.3337V83.8337H56.1736H56.0134V85.3431H56.1736ZM56.1736 83.8337H56.3337C56.3337 83.3747 56.4417 83.0602 56.6294 82.8605C56.8153 82.6626 57.1051 82.55 57.5299 82.55V82.3899V82.2297C57.0504 82.2297 56.6621 82.3578 56.3959 82.6412C56.1315 82.9227 56.0134 83.3301 56.0134 83.8337H56.1736ZM57.5299 82.3899V82.55H58.8205V82.3899V82.2297H57.5299V82.3899ZM58.8205 82.3899V82.55C59.2453 82.55 59.5351 82.6626 59.721 82.8605C59.9086 83.0602 60.0166 83.3747 60.0166 83.8337H60.1768H60.3369C60.3369 83.3301 60.2189 82.9227 59.9544 82.6412C59.6882 82.3578 59.2999 82.2297 58.8205 82.2297V82.3899ZM60.1768 83.8337H60.0166V88.2416H60.1768H60.3369V83.8337H60.1768ZM60.1768 88.2416H60.0166C60.0166 88.7005 59.9086 89.015 59.721 89.2147C59.5351 89.4126 59.2453 89.5252 58.8205 89.5252V89.6853V89.8455C59.2999 89.8455 59.6882 89.7174 59.9544 89.434C60.2189 89.1526 60.3369 88.7451 60.3369 88.2416H60.1768ZM58.8205 89.6853V89.5252H57.6392V89.6853V89.8455H58.8205V89.6853ZM57.6392 89.6853V89.5252C57.2145 89.5252 56.9246 89.4126 56.7387 89.2147C56.5511 89.015 56.4431 88.7005 56.4431 88.2416H56.283H56.1228C56.1228 88.7451 56.2409 89.1526 56.5053 89.434C56.7715 89.7174 57.1598 89.8455 57.6392 89.8455V89.6853ZM56.283 88.2416H56.4431V87.7165H56.283H56.1228V88.2416H56.283ZM56.283 87.7165V87.8767H57.683V87.7165V87.5564H56.283V87.7165ZM57.683 87.7165H57.5228V88.2744H57.683H57.8431V87.7165H57.683ZM57.683 88.2744H57.5228C57.5228 88.3692 57.5536 88.4567 57.6146 88.53L57.7377 88.4275L57.8607 88.325C57.8489 88.3108 57.8431 88.2962 57.8431 88.2744H57.683ZM57.7377 88.4275L57.6244 88.5407C57.6962 88.6125 57.7872 88.6533 57.8908 88.6533V88.4931V88.333C57.8777 88.333 57.8667 88.33 57.8509 88.3143L57.7377 88.4275ZM57.8908 88.4931V88.6533H58.6017V88.4931V88.333H57.8908V88.4931ZM58.6017 88.4931V88.6533C58.7063 88.6533 58.7992 88.6113 58.867 88.53L58.7439 88.4275L58.6209 88.325C58.6165 88.3303 58.6141 88.3312 58.6139 88.3313C58.6136 88.3314 58.6105 88.333 58.6017 88.333V88.4931ZM58.7439 88.4275L58.8572 88.5407C58.9289 88.469 58.9697 88.378 58.9697 88.2744H58.8096H58.6494C58.6494 88.2875 58.6464 88.2985 58.6307 88.3143L58.7439 88.4275ZM58.8096 88.2744H58.9697V86.6447H58.8096H58.6494V88.2744H58.8096ZM58.8096 86.6447L58.7401 86.5004C58.5709 86.5818 58.352 86.6267 58.0767 86.6267V86.7868V86.947C58.3848 86.947 58.6545 86.8971 58.879 86.789L58.8096 86.6447ZM57.5299 83.954H57.3697V85.2228H57.5299H57.69V83.954H57.5299ZM57.5299 85.2228H57.3697C57.3697 85.3176 57.4004 85.4051 57.4615 85.4784L57.5845 85.3759L57.7076 85.2734C57.6957 85.2591 57.69 85.2446 57.69 85.2228H57.5299ZM57.5845 85.3759L57.4713 85.4891C57.5431 85.5609 57.6341 85.6017 57.7377 85.6017V85.4415V85.2814C57.7246 85.2814 57.7135 85.2784 57.6978 85.2626L57.5845 85.3759ZM57.7377 85.4415V85.6017H58.6017V85.4415V85.2814H57.7377V85.4415ZM58.6017 85.4415V85.6017C58.7063 85.6017 58.7992 85.5597 58.867 85.4784L58.7439 85.3759L58.6209 85.2734C58.6165 85.2786 58.6141 85.2796 58.6139 85.2797C58.6136 85.2798 58.6105 85.2814 58.6017 85.2814V85.4415ZM58.7439 85.3759L58.8572 85.4891C58.9289 85.4174 58.9697 85.3263 58.9697 85.2228H58.8096H58.6494C58.6494 85.2358 58.6464 85.2469 58.6307 85.2626L58.7439 85.3759ZM58.8096 85.2228H58.9697V83.954H58.8096H58.6494V85.2228H58.8096ZM58.8096 83.954H58.9697C58.9697 83.8504 58.9289 83.7594 58.8572 83.6876L58.7439 83.8009L58.6307 83.9141C58.6464 83.9298 58.6494 83.9409 58.6494 83.954H58.8096ZM58.7439 83.8009L58.867 83.6983C58.7992 83.617 58.7063 83.5751 58.6017 83.5751V83.7352V83.8954C58.6105 83.8954 58.6136 83.8969 58.6139 83.897C58.6141 83.8971 58.6165 83.8981 58.6209 83.9034L58.7439 83.8009ZM58.6017 83.7352V83.5751H57.7377V83.7352V83.8954H58.6017V83.7352ZM57.7377 83.7352V83.5751C57.6341 83.5751 57.5431 83.6158 57.4713 83.6876L57.5845 83.8009L57.6978 83.9141C57.7135 83.8984 57.7246 83.8954 57.7377 83.8954V83.7352ZM57.5845 83.8009L57.4615 83.6983C57.4004 83.7716 57.3697 83.8592 57.3697 83.954H57.5299H57.69C57.69 83.9321 57.6957 83.9176 57.7076 83.9034L57.5845 83.8009ZM62.573 83.6696V83.5094H62.4128V83.6696H62.573ZM62.6277 85.0806L62.5046 85.1831L62.5093 85.1887L62.5144 85.1938L62.6277 85.0806ZM61.2495 87.7165V87.5564H61.0894V87.7165H61.2495ZM62.7042 87.7165H62.8644V87.5564H62.7042V87.7165ZM62.7589 88.4275L62.6359 88.53L62.6405 88.5356L62.6457 88.5407L62.7589 88.4275ZM63.6996 88.4275L63.5863 88.3143L63.5812 88.3194L63.5765 88.325L63.6996 88.4275ZM63.6996 86.5572L63.5765 86.6597L63.5812 86.6653L63.5863 86.6704L63.6996 86.5572ZM61.173 82.4993V82.3391H61.0128V82.4993H61.173ZM64.8918 82.4993H65.0519V82.3391H64.8918V82.4993ZM64.8918 83.6696V83.8298H65.0519V83.6696H64.8918ZM62.573 83.6696H62.4128V84.9274H62.573H62.7331V83.6696H62.573ZM62.573 84.9274H62.4128C62.4128 85.0222 62.4436 85.1098 62.5046 85.1831L62.6277 85.0806L62.7507 84.978C62.7389 84.9638 62.7331 84.9493 62.7331 84.9274H62.573ZM62.6277 85.0806L62.5144 85.1938C62.5862 85.2656 62.6772 85.3063 62.7808 85.3063V85.1462V84.986C62.7677 84.986 62.7567 84.9831 62.7409 84.9673L62.6277 85.0806ZM62.7808 85.1462V85.3063H63.8199V85.1462V84.986H62.7808V85.1462ZM63.8199 85.1462V85.3063C64.2446 85.3063 64.5345 85.4189 64.7204 85.6168C64.908 85.8166 65.016 86.131 65.016 86.59H65.1762H65.3363C65.3363 86.0864 65.2183 85.679 64.9538 85.3975C64.6876 85.1141 64.2993 84.986 63.8199 84.986V85.1462ZM65.1762 86.59H65.016V88.2416H65.1762H65.3363V86.59H65.1762ZM65.1762 88.2416H65.016C65.016 88.7005 64.908 89.015 64.7204 89.2147C64.5345 89.4126 64.2446 89.5252 63.8199 89.5252V89.6853V89.8455C64.2993 89.8455 64.6876 89.7174 64.9538 89.434C65.2183 89.1526 65.3363 88.7451 65.3363 88.2416H65.1762ZM63.8199 89.6853V89.5252H62.6058V89.6853V89.8455H63.8199V89.6853ZM62.6058 89.6853V89.5252C62.181 89.5252 61.8912 89.4126 61.7053 89.2147C61.5177 89.015 61.4097 88.7005 61.4097 88.2416H61.2495H61.0894C61.0894 88.7451 61.2074 89.1526 61.4719 89.434C61.7381 89.7174 62.1264 89.8455 62.6058 89.8455V89.6853ZM61.2495 88.2416H61.4097V87.7165H61.2495H61.0894V88.2416H61.2495ZM61.2495 87.7165V87.8767H62.7042V87.7165V87.5564H61.2495V87.7165ZM62.7042 87.7165H62.5441V88.2744H62.7042H62.8644V87.7165H62.7042ZM62.7042 88.2744H62.5441C62.5441 88.3692 62.5748 88.4567 62.6359 88.53L62.7589 88.4275L62.882 88.325C62.8701 88.3108 62.8644 88.2962 62.8644 88.2744H62.7042ZM62.7589 88.4275L62.6457 88.5407C62.7174 88.6125 62.8085 88.6533 62.9121 88.6533V88.4931V88.333C62.899 88.333 62.8879 88.33 62.8722 88.3143L62.7589 88.4275ZM62.9121 88.4931V88.6533H63.5574V88.4931V88.333H62.9121V88.4931ZM63.5574 88.4931V88.6533C63.6619 88.6533 63.7549 88.6113 63.8226 88.53L63.6996 88.4275L63.5765 88.325C63.5721 88.3303 63.5698 88.3312 63.5696 88.3313C63.5693 88.3314 63.5661 88.333 63.5574 88.333V88.4931ZM63.6996 88.4275L63.8128 88.5407C63.8846 88.469 63.9254 88.378 63.9254 88.2744H63.7652H63.605C63.605 88.2875 63.6021 88.2985 63.5863 88.3143L63.6996 88.4275ZM63.7652 88.2744H63.9254V86.7103H63.7652H63.605V88.2744H63.7652ZM63.7652 86.7103H63.9254C63.9254 86.6067 63.8846 86.5157 63.8128 86.4439L63.6996 86.5572L63.5863 86.6704C63.6021 86.6861 63.605 86.6972 63.605 86.7103H63.7652ZM63.6996 86.5572L63.8226 86.4546C63.7549 86.3733 63.6619 86.3314 63.5574 86.3314V86.4915V86.6517C63.5661 86.6517 63.5693 86.6532 63.5696 86.6533C63.5698 86.6534 63.5721 86.6544 63.5765 86.6597L63.6996 86.5572ZM63.5574 86.4915V86.3314H62.5292V86.4915V86.6517H63.5574V86.4915ZM62.5292 86.4915V86.3314C62.1045 86.3314 61.8147 86.2188 61.6288 86.0209C61.4411 85.8212 61.3331 85.5067 61.3331 85.0477H61.173H61.0128C61.0128 85.5513 61.1309 85.9587 61.3953 86.2402C61.6615 86.5236 62.0498 86.6517 62.5292 86.6517V86.4915ZM61.173 85.0477H61.3331V82.4993H61.173H61.0128V85.0477H61.173ZM61.173 82.4993V82.6594H64.8918V82.4993V82.3391H61.173V82.4993ZM64.8918 82.4993H64.7316V83.6696H64.8918H65.0519V82.4993H64.8918ZM64.8918 83.6696V83.5094H62.573V83.6696V83.8298H64.8918V83.6696Z" fill="white"/>
<path d="M13.7461 -6.10352e-05H7.74609V61.9999H13.7461V-6.10352e-05Z" fill="url(#paint0_linear_328_2321)"/>
<path d="M58.7461 -6.10352e-05H52.7461V61.9999H58.7461V-6.10352e-05Z" fill="url(#paint1_linear_328_2321)"/>
<path d="M32.7461 -6.10352e-05H26.7461V61.9999H32.7461V-6.10352e-05Z" fill="url(#paint2_linear_328_2321)"/>
<path d="M2.74609 -4.57764e-05H0.746094V62H2.74609V-4.57764e-05Z" fill="url(#paint3_linear_328_2321)"/>
<path d="M17.7461 -6.10352e-05H15.7461V61.9999H17.7461V-6.10352e-05Z" fill="url(#paint4_linear_328_2321)"/>
<path d="M21.7461 -6.10352e-05H19.7461V61.9999H21.7461V-6.10352e-05Z" fill="url(#paint5_linear_328_2321)"/>
<path d="M37.7461 -6.10352e-05H35.7461V61.9999H37.7461V-6.10352e-05Z" fill="url(#paint6_linear_328_2321)"/>
<path d="M77.7461 -6.10352e-05H76.7461V61.9999H77.7461V-6.10352e-05Z" fill="url(#paint7_linear_328_2321)"/>
<path d="M41.7461 -6.10352e-05H39.7461V61.9999H41.7461V-6.10352e-05Z" fill="url(#paint8_linear_328_2321)"/>
<path d="M45.7461 -6.10352e-05H44.7461V61.9999H45.7461V-6.10352e-05Z" fill="url(#paint9_linear_328_2321)"/>
<path d="M50.7461 -6.10352e-05H48.7461V61.9999H50.7461V-6.10352e-05Z" fill="url(#paint10_linear_328_2321)"/>
<path d="M65.7461 -6.10352e-05H61.7461V61.9999H65.7461V-6.10352e-05Z" fill="url(#paint11_linear_328_2321)"/>
<path d="M72.7461 -6.10352e-05H68.7461V61.9999H72.7461V-6.10352e-05Z" fill="url(#paint12_linear_328_2321)"/>
<path d="M87.7461 -6.10352e-05H83.7461V61.9999H87.7461V-6.10352e-05Z" fill="url(#paint13_linear_328_2321)"/>
<path d="M99.7461 -6.10352e-05H91.7461V61.9999H99.7461V-6.10352e-05Z" fill="url(#paint14_linear_328_2321)"/>
</g>
<defs>
<linearGradient id="paint0_linear_328_2321" x1="10.7461" y1="61.9985" x2="10.7461" y2="-6.10352e-05" gradientUnits="userSpaceOnUse">
<stop stop-color="white"/>
<stop offset="0.16" stop-color="#FCFCFC" stop-opacity="0.99"/>
<stop offset="0.29" stop-color="#F3F3F4" stop-opacity="0.95"/>
<stop offset="0.41" stop-color="#E5E5E6" stop-opacity="0.88"/>
<stop offset="0.52" stop-color="#D1D1D2" stop-opacity="0.79"/>
<stop offset="0.63" stop-color="#B7B8B8" stop-opacity="0.67"/>
<stop offset="0.74" stop-color="#989899" stop-opacity="0.52"/>
<stop offset="0.84" stop-color="#727374" stop-opacity="0.34"/>
<stop offset="0.94" stop-color="#47484A" stop-opacity="0.14"/>
<stop offset="1" stop-color="#2A2B2D" stop-opacity="0"/>
</linearGradient>
<linearGradient id="paint1_linear_328_2321" x1="55.7461" y1="-21.2654" x2="55.7461" y2="-21.2654" gradientUnits="userSpaceOnUse">
<stop stop-color="white"/>
<stop offset="0.16" stop-color="#FCFCFC" stop-opacity="0.99"/>
<stop offset="0.29" stop-color="#F3F3F4" stop-opacity="0.95"/>
<stop offset="0.41" stop-color="#E5E5E6" stop-opacity="0.88"/>
<stop offset="0.52" stop-color="#D1D1D2" stop-opacity="0.79"/>
<stop offset="0.63" stop-color="#B7B8B8" stop-opacity="0.67"/>
<stop offset="0.74" stop-color="#989899" stop-opacity="0.52"/>
<stop offset="0.84" stop-color="#727374" stop-opacity="0.34"/>
<stop offset="0.94" stop-color="#47484A" stop-opacity="0.14"/>
<stop offset="1" stop-color="#2A2B2D" stop-opacity="0"/>
</linearGradient>
<linearGradient id="paint2_linear_328_2321" x1="29.7461" y1="-21.2654" x2="29.7461" y2="-21.2654" gradientUnits="userSpaceOnUse">
<stop stop-color="white"/>
<stop offset="0.16" stop-color="#FCFCFC" stop-opacity="0.99"/>
<stop offset="0.29" stop-color="#F3F3F4" stop-opacity="0.95"/>
<stop offset="0.41" stop-color="#E5E5E6" stop-opacity="0.88"/>
<stop offset="0.52" stop-color="#D1D1D2" stop-opacity="0.79"/>
<stop offset="0.63" stop-color="#B7B8B8" stop-opacity="0.67"/>
<stop offset="0.74" stop-color="#989899" stop-opacity="0.52"/>
<stop offset="0.84" stop-color="#727374" stop-opacity="0.34"/>
<stop offset="0.94" stop-color="#47484A" stop-opacity="0.14"/>
<stop offset="1" stop-color="#2A2B2D" stop-opacity="0"/>
</linearGradient>
<linearGradient id="paint3_linear_328_2321" x1="1.74721" y1="-21.2654" x2="1.74721" y2="-21.2654" gradientUnits="userSpaceOnUse">
<stop stop-color="white"/>
<stop offset="0.16" stop-color="#FCFCFC" stop-opacity="0.99"/>
<stop offset="0.29" stop-color="#F3F3F4" stop-opacity="0.95"/>
<stop offset="0.41" stop-color="#E5E5E6" stop-opacity="0.88"/>
<stop offset="0.52" stop-color="#D1D1D2" stop-opacity="0.79"/>
<stop offset="0.63" stop-color="#B7B8B8" stop-opacity="0.67"/>
<stop offset="0.74" stop-color="#989899" stop-opacity="0.52"/>
<stop offset="0.84" stop-color="#727374" stop-opacity="0.34"/>
<stop offset="0.94" stop-color="#47484A" stop-opacity="0.14"/>
<stop offset="1" stop-color="#2A2B2D" stop-opacity="0"/>
</linearGradient>
<linearGradient id="paint4_linear_328_2321" x1="16.745" y1="-21.2654" x2="16.745" y2="-21.2654" gradientUnits="userSpaceOnUse">
<stop stop-color="white"/>
<stop offset="0.16" stop-color="#FCFCFC" stop-opacity="0.99"/>
<stop offset="0.29" stop-color="#F3F3F4" stop-opacity="0.95"/>
<stop offset="0.41" stop-color="#E5E5E6" stop-opacity="0.88"/>
<stop offset="0.52" stop-color="#D1D1D2" stop-opacity="0.79"/>
<stop offset="0.63" stop-color="#B7B8B8" stop-opacity="0.67"/>
<stop offset="0.74" stop-color="#989899" stop-opacity="0.52"/>
<stop offset="0.84" stop-color="#727374" stop-opacity="0.34"/>
<stop offset="0.94" stop-color="#47484A" stop-opacity="0.14"/>
<stop offset="1" stop-color="#2A2B2D" stop-opacity="0"/>
</linearGradient>
<linearGradient id="paint5_linear_328_2321" x1="20.7472" y1="-21.2654" x2="20.7472" y2="-21.2654" gradientUnits="userSpaceOnUse">
<stop stop-color="white"/>
<stop offset="0.16" stop-color="#FCFCFC" stop-opacity="0.99"/>
<stop offset="0.29" stop-color="#F3F3F4" stop-opacity="0.95"/>
<stop offset="0.41" stop-color="#E5E5E6" stop-opacity="0.88"/>
<stop offset="0.52" stop-color="#D1D1D2" stop-opacity="0.79"/>
<stop offset="0.63" stop-color="#B7B8B8" stop-opacity="0.67"/>
<stop offset="0.74" stop-color="#989899" stop-opacity="0.52"/>
<stop offset="0.84" stop-color="#727374" stop-opacity="0.34"/>
<stop offset="0.94" stop-color="#47484A" stop-opacity="0.14"/>
<stop offset="1" stop-color="#2A2B2D" stop-opacity="0"/>
</linearGradient>
<linearGradient id="paint6_linear_328_2321" x1="36.745" y1="-21.2654" x2="36.745" y2="-21.2654" gradientUnits="userSpaceOnUse">
<stop stop-color="white"/>
<stop offset="0.16" stop-color="#FCFCFC" stop-opacity="0.99"/>
<stop offset="0.29" stop-color="#F3F3F4" stop-opacity="0.95"/>
<stop offset="0.41" stop-color="#E5E5E6" stop-opacity="0.88"/>
<stop offset="0.52" stop-color="#D1D1D2" stop-opacity="0.79"/>
<stop offset="0.63" stop-color="#B7B8B8" stop-opacity="0.67"/>
<stop offset="0.74" stop-color="#989899" stop-opacity="0.52"/>
<stop offset="0.84" stop-color="#727374" stop-opacity="0.34"/>
<stop offset="0.94" stop-color="#47484A" stop-opacity="0.14"/>
<stop offset="1" stop-color="#2A2B2D" stop-opacity="0"/>
</linearGradient>
<linearGradient id="paint7_linear_328_2321" x1="77.245" y1="-21.2654" x2="77.245" y2="-21.2654" gradientUnits="userSpaceOnUse">
<stop stop-color="white"/>
<stop offset="0.16" stop-color="#FCFCFC" stop-opacity="0.99"/>
<stop offset="0.29" stop-color="#F3F3F4" stop-opacity="0.95"/>
<stop offset="0.41" stop-color="#E5E5E6" stop-opacity="0.88"/>
<stop offset="0.52" stop-color="#D1D1D2" stop-opacity="0.79"/>
<stop offset="0.63" stop-color="#B7B8B8" stop-opacity="0.67"/>
<stop offset="0.74" stop-color="#989899" stop-opacity="0.52"/>
<stop offset="0.84" stop-color="#727374" stop-opacity="0.34"/>
<stop offset="0.94" stop-color="#47484A" stop-opacity="0.14"/>
<stop offset="1" stop-color="#2A2B2D" stop-opacity="0"/>
</linearGradient>
<linearGradient id="paint8_linear_328_2321" x1="40.745" y1="-21.2654" x2="40.745" y2="-21.2654" gradientUnits="userSpaceOnUse">
<stop stop-color="white"/>
<stop offset="0.16" stop-color="#FCFCFC" stop-opacity="0.99"/>
<stop offset="0.29" stop-color="#F3F3F4" stop-opacity="0.95"/>
<stop offset="0.41" stop-color="#E5E5E6" stop-opacity="0.88"/>
<stop offset="0.52" stop-color="#D1D1D2" stop-opacity="0.79"/>
<stop offset="0.63" stop-color="#B7B8B8" stop-opacity="0.67"/>
<stop offset="0.74" stop-color="#989899" stop-opacity="0.52"/>
<stop offset="0.84" stop-color="#727374" stop-opacity="0.34"/>
<stop offset="0.94" stop-color="#47484A" stop-opacity="0.14"/>
<stop offset="1" stop-color="#2A2B2D" stop-opacity="0"/>
</linearGradient>
<linearGradient id="paint9_linear_328_2321" x1="45.2455" y1="-21.2654" x2="45.2455" y2="-21.2654" gradientUnits="userSpaceOnUse">
<stop stop-color="white"/>
<stop offset="0.16" stop-color="#FCFCFC" stop-opacity="0.99"/>
<stop offset="0.29" stop-color="#F3F3F4" stop-opacity="0.95"/>
<stop offset="0.41" stop-color="#E5E5E6" stop-opacity="0.88"/>
<stop offset="0.52" stop-color="#D1D1D2" stop-opacity="0.79"/>
<stop offset="0.63" stop-color="#B7B8B8" stop-opacity="0.67"/>
<stop offset="0.74" stop-color="#989899" stop-opacity="0.52"/>
<stop offset="0.84" stop-color="#727374" stop-opacity="0.34"/>
<stop offset="0.94" stop-color="#47484A" stop-opacity="0.14"/>
<stop offset="1" stop-color="#2A2B2D" stop-opacity="0"/>
</linearGradient>
<linearGradient id="paint10_linear_328_2321" x1="49.745" y1="-21.2654" x2="49.745" y2="-21.2654" gradientUnits="userSpaceOnUse">
<stop stop-color="white"/>
<stop offset="0.16" stop-color="#FCFCFC" stop-opacity="0.99"/>
<stop offset="0.29" stop-color="#F3F3F4" stop-opacity="0.95"/>
<stop offset="0.41" stop-color="#E5E5E6" stop-opacity="0.88"/>
<stop offset="0.52" stop-color="#D1D1D2" stop-opacity="0.79"/>
<stop offset="0.63" stop-color="#B7B8B8" stop-opacity="0.67"/>
<stop offset="0.74" stop-color="#989899" stop-opacity="0.52"/>
<stop offset="0.84" stop-color="#727374" stop-opacity="0.34"/>
<stop offset="0.94" stop-color="#47484A" stop-opacity="0.14"/>
<stop offset="1" stop-color="#2A2B2D" stop-opacity="0"/>
</linearGradient>
<linearGradient id="paint11_linear_328_2321" x1="63.7461" y1="-21.2654" x2="63.7461" y2="-21.2654" gradientUnits="userSpaceOnUse">
<stop stop-color="white"/>
<stop offset="0.16" stop-color="#FCFCFC" stop-opacity="0.99"/>
<stop offset="0.29" stop-color="#F3F3F4" stop-opacity="0.95"/>
<stop offset="0.41" stop-color="#E5E5E6" stop-opacity="0.88"/>
<stop offset="0.52" stop-color="#D1D1D2" stop-opacity="0.79"/>
<stop offset="0.63" stop-color="#B7B8B8" stop-opacity="0.67"/>
<stop offset="0.74" stop-color="#989899" stop-opacity="0.52"/>
<stop offset="0.84" stop-color="#727374" stop-opacity="0.34"/>
<stop offset="0.94" stop-color="#47484A" stop-opacity="0.14"/>
<stop offset="1" stop-color="#2A2B2D" stop-opacity="0"/>
</linearGradient>
<linearGradient id="paint12_linear_328_2321" x1="70.7483" y1="-21.2654" x2="70.7483" y2="-21.2654" gradientUnits="userSpaceOnUse">
<stop stop-color="white"/>
<stop offset="0.16" stop-color="#FCFCFC" stop-opacity="0.99"/>
<stop offset="0.29" stop-color="#F3F3F4" stop-opacity="0.95"/>
<stop offset="0.41" stop-color="#E5E5E6" stop-opacity="0.88"/>
<stop offset="0.52" stop-color="#D1D1D2" stop-opacity="0.79"/>
<stop offset="0.63" stop-color="#B7B8B8" stop-opacity="0.67"/>
<stop offset="0.74" stop-color="#989899" stop-opacity="0.52"/>
<stop offset="0.84" stop-color="#727374" stop-opacity="0.34"/>
<stop offset="0.94" stop-color="#47484A" stop-opacity="0.14"/>
<stop offset="1" stop-color="#2A2B2D" stop-opacity="0"/>
</linearGradient>
<linearGradient id="paint13_linear_328_2321" x1="85.745" y1="-21.2654" x2="85.745" y2="-21.2654" gradientUnits="userSpaceOnUse">
<stop stop-color="white"/>
<stop offset="0.16" stop-color="#FCFCFC" stop-opacity="0.99"/>
<stop offset="0.29" stop-color="#F3F3F4" stop-opacity="0.95"/>
<stop offset="0.41" stop-color="#E5E5E6" stop-opacity="0.88"/>
<stop offset="0.52" stop-color="#D1D1D2" stop-opacity="0.79"/>
<stop offset="0.63" stop-color="#B7B8B8" stop-opacity="0.67"/>
<stop offset="0.74" stop-color="#989899" stop-opacity="0.52"/>
<stop offset="0.84" stop-color="#727374" stop-opacity="0.34"/>
<stop offset="0.94" stop-color="#47484A" stop-opacity="0.14"/>
<stop offset="1" stop-color="#2A2B2D" stop-opacity="0"/>
</linearGradient>
<linearGradient id="paint14_linear_328_2321" x1="95.7472" y1="-21.2654" x2="95.7472" y2="-21.2654" gradientUnits="userSpaceOnUse">
<stop stop-color="white"/>
<stop offset="0.16" stop-color="#FCFCFC" stop-opacity="0.99"/>
<stop offset="0.29" stop-color="#F3F3F4" stop-opacity="0.95"/>
<stop offset="0.41" stop-color="#E5E5E6" stop-opacity="0.88"/>
<stop offset="0.52" stop-color="#D1D1D2" stop-opacity="0.79"/>
<stop offset="0.63" stop-color="#B7B8B8" stop-opacity="0.67"/>
<stop offset="0.74" stop-color="#989899" stop-opacity="0.52"/>
<stop offset="0.84" stop-color="#727374" stop-opacity="0.34"/>
<stop offset="0.94" stop-color="#47484A" stop-opacity="0.14"/>
<stop offset="1" stop-color="#2A2B2D" stop-opacity="0"/>
</linearGradient>
</defs>
</svg>
