<svg width="137" height="713" viewBox="0 0 137 713" fill="none" xmlns="http://www.w3.org/2000/svg">
<rect x="78.25" y="0.25" width="15.5" height="15.5" fill="#26272B"/>
<rect x="78.25" y="0.25" width="15.5" height="15.5" fill="#222327"/>
<rect x="78.25" y="0.25" width="15.5" height="15.5" stroke="#141416" stroke-width="0.5"/>
<rect x="94.25" y="0.25" width="15.5" height="15.5" fill="#26272B"/>
<rect x="94.25" y="0.25" width="15.5" height="15.5" fill="#222327"/>
<rect x="94.25" y="0.25" width="15.5" height="15.5" stroke="#141416" stroke-width="0.5"/>
<rect x="94.25" y="16.25" width="15.5" height="15.5" fill="#26272B"/>
<rect x="94.25" y="16.25" width="15.5" height="15.5" fill="#222327"/>
<rect x="94.25" y="16.25" width="15.5" height="15.5" stroke="#141416" stroke-width="0.5"/>
<rect x="110.25" y="0.25" width="15.5" height="15.5" fill="#26272B"/>
<rect x="110.25" y="0.25" width="15.5" height="15.5" fill="#222327"/>
<rect x="110.25" y="0.25" width="15.5" height="15.5" stroke="#141416" stroke-width="0.5"/>
<rect x="24.25" y="334.75" width="15.5" height="15.5" transform="rotate(-90 24.25 334.75)" fill="#26272B"/>
<rect x="24.25" y="334.75" width="15.5" height="15.5" transform="rotate(-90 24.25 334.75)" fill="#222327"/>
<rect x="24.25" y="334.75" width="15.5" height="15.5" transform="rotate(-90 24.25 334.75)" stroke="#141416" stroke-width="0.5"/>
<rect x="24.25" y="318.75" width="15.5" height="15.5" transform="rotate(-90 24.25 318.75)" fill="#26272B"/>
<rect x="24.25" y="318.75" width="15.5" height="15.5" transform="rotate(-90 24.25 318.75)" fill="#222327"/>
<rect x="24.25" y="318.75" width="15.5" height="15.5" transform="rotate(-90 24.25 318.75)" stroke="#141416" stroke-width="0.5"/>
<rect x="40.25" y="318.75" width="15.5" height="15.5" transform="rotate(-90 40.25 318.75)" fill="#26272B"/>
<rect x="40.25" y="318.75" width="15.5" height="15.5" transform="rotate(-90 40.25 318.75)" fill="#222327"/>
<rect x="40.25" y="318.75" width="15.5" height="15.5" transform="rotate(-90 40.25 318.75)" stroke="#141416" stroke-width="0.5"/>
<rect x="24.25" y="302.75" width="15.5" height="15.5" transform="rotate(-90 24.25 302.75)" fill="#26272B"/>
<rect x="24.25" y="302.75" width="15.5" height="15.5" transform="rotate(-90 24.25 302.75)" fill="#222327"/>
<rect x="24.25" y="302.75" width="15.5" height="15.5" transform="rotate(-90 24.25 302.75)" stroke="#141416" stroke-width="0.5"/>
<rect x="69.75" y="643.75" width="15.5" height="15.5" transform="rotate(180 69.75 643.75)" fill="#26272B"/>
<rect x="69.75" y="643.75" width="15.5" height="15.5" transform="rotate(180 69.75 643.75)" fill="#222327"/>
<rect x="69.75" y="643.75" width="15.5" height="15.5" transform="rotate(180 69.75 643.75)" stroke="#141416" stroke-width="0.5"/>
<rect x="53.75" y="643.75" width="15.5" height="15.5" transform="rotate(180 53.75 643.75)" fill="#26272B"/>
<rect x="53.75" y="643.75" width="15.5" height="15.5" transform="rotate(180 53.75 643.75)" fill="#222327"/>
<rect x="53.75" y="643.75" width="15.5" height="15.5" transform="rotate(180 53.75 643.75)" stroke="#141416" stroke-width="0.5"/>
<rect x="53.75" y="627.75" width="15.5" height="15.5" transform="rotate(180 53.75 627.75)" fill="#26272B"/>
<rect x="53.75" y="627.75" width="15.5" height="15.5" transform="rotate(180 53.75 627.75)" fill="#222327"/>
<rect x="53.75" y="627.75" width="15.5" height="15.5" transform="rotate(180 53.75 627.75)" stroke="#141416" stroke-width="0.5"/>
<rect x="37.75" y="643.75" width="15.5" height="15.5" transform="rotate(180 37.75 643.75)" fill="#26272B"/>
<rect x="37.75" y="643.75" width="15.5" height="15.5" transform="rotate(180 37.75 643.75)" fill="#222327"/>
<rect x="37.75" y="643.75" width="15.5" height="15.5" transform="rotate(180 37.75 643.75)" stroke="#141416" stroke-width="0.5"/>
<rect x="14.25" y="62.25" width="15.5" height="15.5" fill="#26272B"/>
<rect x="14.25" y="62.25" width="15.5" height="15.5" fill="#222327"/>
<rect x="14.25" y="62.25" width="15.5" height="15.5" stroke="#141416" stroke-width="0.5"/>
<rect x="30.25" y="62.25" width="15.5" height="15.5" fill="#26272B"/>
<rect x="30.25" y="62.25" width="15.5" height="15.5" fill="#222327"/>
<rect x="30.25" y="62.25" width="15.5" height="15.5" stroke="#141416" stroke-width="0.5"/>
<rect x="30.25" y="78.25" width="15.5" height="15.5" fill="#26272B"/>
<rect x="30.25" y="78.25" width="15.5" height="15.5" fill="#222327"/>
<rect x="30.25" y="78.25" width="15.5" height="15.5" stroke="#141416" stroke-width="0.5"/>
<rect x="46.25" y="78.25" width="15.5" height="15.5" fill="#26272B"/>
<rect x="46.25" y="78.25" width="15.5" height="15.5" fill="#222327"/>
<rect x="46.25" y="78.25" width="15.5" height="15.5" stroke="#141416" stroke-width="0.5"/>
<rect x="105.25" y="427.75" width="15.5" height="15.5" transform="rotate(-90 105.25 427.75)" fill="#26272B"/>
<rect x="105.25" y="427.75" width="15.5" height="15.5" transform="rotate(-90 105.25 427.75)" fill="#222327"/>
<rect x="105.25" y="427.75" width="15.5" height="15.5" transform="rotate(-90 105.25 427.75)" stroke="#141416" stroke-width="0.5"/>
<rect x="105.25" y="411.75" width="15.5" height="15.5" transform="rotate(-90 105.25 411.75)" fill="#26272B"/>
<rect x="105.25" y="411.75" width="15.5" height="15.5" transform="rotate(-90 105.25 411.75)" fill="#222327"/>
<rect x="105.25" y="411.75" width="15.5" height="15.5" transform="rotate(-90 105.25 411.75)" stroke="#141416" stroke-width="0.5"/>
<rect x="121.25" y="411.75" width="15.5" height="15.5" transform="rotate(-90 121.25 411.75)" fill="#26272B"/>
<rect x="121.25" y="411.75" width="15.5" height="15.5" transform="rotate(-90 121.25 411.75)" fill="#222327"/>
<rect x="121.25" y="411.75" width="15.5" height="15.5" transform="rotate(-90 121.25 411.75)" stroke="#141416" stroke-width="0.5"/>
<rect x="121.25" y="395.75" width="15.5" height="15.5" transform="rotate(-90 121.25 395.75)" fill="#26272B"/>
<rect x="121.25" y="395.75" width="15.5" height="15.5" transform="rotate(-90 121.25 395.75)" fill="#222327"/>
<rect x="121.25" y="395.75" width="15.5" height="15.5" transform="rotate(-90 121.25 395.75)" stroke="#141416" stroke-width="0.5"/>
<rect x="121.25" y="146.25" width="15.5" height="15.5" fill="#26272B"/>
<rect x="121.25" y="146.25" width="15.5" height="15.5" fill="#222327"/>
<rect x="121.25" y="146.25" width="15.5" height="15.5" stroke="#141416" stroke-width="0.5"/>
<rect x="89.25" y="130.25" width="15.5" height="15.5" fill="#26272B"/>
<rect x="89.25" y="130.25" width="15.5" height="15.5" fill="#222327"/>
<rect x="89.25" y="130.25" width="15.5" height="15.5" stroke="#141416" stroke-width="0.5"/>
<rect x="89.25" y="146.25" width="15.5" height="15.5" fill="#26272B"/>
<rect x="89.25" y="146.25" width="15.5" height="15.5" fill="#222327"/>
<rect x="89.25" y="146.25" width="15.5" height="15.5" stroke="#141416" stroke-width="0.5"/>
<rect x="105.25" y="146.25" width="15.5" height="15.5" fill="#26272B"/>
<rect x="105.25" y="146.25" width="15.5" height="15.5" fill="#222327"/>
<rect x="105.25" y="146.25" width="15.5" height="15.5" stroke="#141416" stroke-width="0.5"/>
<rect x="0.25" y="0.25" width="15.5" height="15.5" transform="matrix(-1.19249e-08 1 1 1.19249e-08 24 484)" fill="#26272B"/>
<rect x="0.25" y="0.25" width="15.5" height="15.5" transform="matrix(-1.19249e-08 1 1 1.19249e-08 24 484)" fill="#222327"/>
<rect x="0.25" y="0.25" width="15.5" height="15.5" transform="matrix(-1.19249e-08 1 1 1.19249e-08 24 484)" stroke="#141416" stroke-width="0.5"/>
<rect x="0.25" y="0.25" width="15.5" height="15.5" transform="matrix(-1.19249e-08 1 1 1.19249e-08 8 452)" fill="#26272B"/>
<rect x="0.25" y="0.25" width="15.5" height="15.5" transform="matrix(-1.19249e-08 1 1 1.19249e-08 8 452)" fill="#222327"/>
<rect x="0.25" y="0.25" width="15.5" height="15.5" transform="matrix(-1.19249e-08 1 1 1.19249e-08 8 452)" stroke="#141416" stroke-width="0.5"/>
<rect x="0.25" y="0.25" width="15.5" height="15.5" transform="matrix(-1.19249e-08 1 1 1.19249e-08 24 452)" fill="#26272B"/>
<rect x="0.25" y="0.25" width="15.5" height="15.5" transform="matrix(-1.19249e-08 1 1 1.19249e-08 24 452)" fill="#222327"/>
<rect x="0.25" y="0.25" width="15.5" height="15.5" transform="matrix(-1.19249e-08 1 1 1.19249e-08 24 452)" stroke="#141416" stroke-width="0.5"/>
<rect x="0.25" y="0.25" width="15.5" height="15.5" transform="matrix(-1.19249e-08 1 1 1.19249e-08 24 468)" fill="#26272B"/>
<rect x="0.25" y="0.25" width="15.5" height="15.5" transform="matrix(-1.19249e-08 1 1 1.19249e-08 24 468)" fill="#222327"/>
<rect x="0.25" y="0.25" width="15.5" height="15.5" transform="matrix(-1.19249e-08 1 1 1.19249e-08 24 468)" stroke="#141416" stroke-width="0.5"/>
<rect x="16.25" y="181.25" width="15.5" height="15.5" fill="#26272B"/>
<rect x="16.25" y="181.25" width="15.5" height="15.5" fill="#222327"/>
<rect x="16.25" y="181.25" width="15.5" height="15.5" stroke="#141416" stroke-width="0.5"/>
<rect x="0.25" y="181.25" width="15.5" height="15.5" fill="#26272B"/>
<rect x="0.25" y="181.25" width="15.5" height="15.5" fill="#222327"/>
<rect x="0.25" y="181.25" width="15.5" height="15.5" stroke="#141416" stroke-width="0.5"/>
<rect x="0.25" y="197.25" width="15.5" height="15.5" fill="#26272B"/>
<rect x="0.25" y="197.25" width="15.5" height="15.5" fill="#222327"/>
<rect x="0.25" y="197.25" width="15.5" height="15.5" stroke="#141416" stroke-width="0.5"/>
<rect x="16.25" y="197.25" width="15.5" height="15.5" fill="#26272B"/>
<rect x="16.25" y="197.25" width="15.5" height="15.5" fill="#222327"/>
<rect x="16.25" y="197.25" width="15.5" height="15.5" stroke="#141416" stroke-width="0.5"/>
<rect x="105.25" y="541.25" width="15.5" height="15.5" fill="#26272B"/>
<rect x="105.25" y="541.25" width="15.5" height="15.5" fill="#222327"/>
<rect x="105.25" y="541.25" width="15.5" height="15.5" stroke="#141416" stroke-width="0.5"/>
<rect x="89.25" y="541.25" width="15.5" height="15.5" fill="#26272B"/>
<rect x="89.25" y="541.25" width="15.5" height="15.5" fill="#222327"/>
<rect x="89.25" y="541.25" width="15.5" height="15.5" stroke="#141416" stroke-width="0.5"/>
<rect x="89.25" y="557.25" width="15.5" height="15.5" fill="#26272B"/>
<rect x="89.25" y="557.25" width="15.5" height="15.5" fill="#222327"/>
<rect x="89.25" y="557.25" width="15.5" height="15.5" stroke="#141416" stroke-width="0.5"/>
<rect x="105.25" y="557.25" width="15.5" height="15.5" fill="#26272B"/>
<rect x="105.25" y="557.25" width="15.5" height="15.5" fill="#222327"/>
<rect x="105.25" y="557.25" width="15.5" height="15.5" stroke="#141416" stroke-width="0.5"/>
<rect x="101.25" y="239.25" width="15.5" height="15.5" fill="#26272B"/>
<rect x="101.25" y="239.25" width="15.5" height="15.5" fill="#222327"/>
<rect x="101.25" y="239.25" width="15.5" height="15.5" stroke="#141416" stroke-width="0.5"/>
<rect x="101.25" y="271.25" width="15.5" height="15.5" fill="#26272B"/>
<rect x="101.25" y="271.25" width="15.5" height="15.5" fill="#222327"/>
<rect x="101.25" y="271.25" width="15.5" height="15.5" stroke="#141416" stroke-width="0.5"/>
<rect x="101.25" y="287.25" width="15.5" height="15.5" fill="#26272B"/>
<rect x="101.25" y="287.25" width="15.5" height="15.5" fill="#222327"/>
<rect x="101.25" y="287.25" width="15.5" height="15.5" stroke="#141416" stroke-width="0.5"/>
<rect x="101.25" y="255.25" width="15.5" height="15.5" fill="#26272B"/>
<rect x="101.25" y="255.25" width="15.5" height="15.5" fill="#222327"/>
<rect x="101.25" y="255.25" width="15.5" height="15.5" stroke="#141416" stroke-width="0.5"/>
<rect x="133.75" y="697.25" width="15.5" height="15.5" transform="rotate(90 133.75 697.25)" fill="#26272B"/>
<rect x="133.75" y="697.25" width="15.5" height="15.5" transform="rotate(90 133.75 697.25)" fill="#222327"/>
<rect x="133.75" y="697.25" width="15.5" height="15.5" transform="rotate(90 133.75 697.25)" stroke="#141416" stroke-width="0.5"/>
<rect x="101.75" y="697.25" width="15.5" height="15.5" transform="rotate(90 101.75 697.25)" fill="#26272B"/>
<rect x="101.75" y="697.25" width="15.5" height="15.5" transform="rotate(90 101.75 697.25)" fill="#222327"/>
<rect x="101.75" y="697.25" width="15.5" height="15.5" transform="rotate(90 101.75 697.25)" stroke="#141416" stroke-width="0.5"/>
<rect x="85.75" y="697.25" width="15.5" height="15.5" transform="rotate(90 85.75 697.25)" fill="#26272B"/>
<rect x="85.75" y="697.25" width="15.5" height="15.5" transform="rotate(90 85.75 697.25)" fill="#222327"/>
<rect x="85.75" y="697.25" width="15.5" height="15.5" transform="rotate(90 85.75 697.25)" stroke="#141416" stroke-width="0.5"/>
<rect x="117.75" y="697.25" width="15.5" height="15.5" transform="rotate(90 117.75 697.25)" fill="#26272B"/>
<rect x="117.75" y="697.25" width="15.5" height="15.5" transform="rotate(90 117.75 697.25)" fill="#222327"/>
<rect x="117.75" y="697.25" width="15.5" height="15.5" transform="rotate(90 117.75 697.25)" stroke="#141416" stroke-width="0.5"/>
</svg>
