<svg width="64" height="64" viewBox="0 0 64 64" fill="none" xmlns="http://www.w3.org/2000/svg">
<path d="M5.39453 32.0005L31.9928 58.5988L58.5911 32.0005L31.9928 5.4022L5.39453 32.0005Z" fill="#131316"/>
<path d="M31.9993 58.9797L5.01953 32L31.9993 5.02027L58.979 32L31.9993 58.9797ZM42.4926 27.6533L36.3459 21.5067H27.6531L21.5065 27.6533V36.3461L27.6531 42.4928H36.3459L42.4926 36.3461V27.6533ZM43.1326 35.7067L46.8393 32L43.1326 28.2933V35.7061V35.7067ZM42.4926 26.7483V21.5067H37.251L42.4926 26.7483ZM31.9993 17.16L28.2926 20.8667H35.7054L31.9987 17.16H31.9993ZM21.5059 26.7483L26.7475 21.5067H21.5059V26.7483ZM20.8659 28.2933L17.1593 32L20.8659 35.7067V28.2939V28.2933ZM21.5059 37.2517V42.4933H26.7475L21.5059 37.2517ZM31.9993 46.84L35.7059 43.1333H28.2931L31.9998 46.84H31.9993ZM37.251 42.4933H42.4926V37.2517L37.251 42.4933ZM42.6739 43.1333H36.611L32.3193 47.4251V57.7547L44.8073 45.2667L42.6739 43.1333ZM31.6793 47.4251L27.3875 43.1333H21.3246L19.1913 45.2667L31.6793 57.7547V47.4251ZM20.8659 42.6869V36.6112L16.5806 32.3259H6.251L18.739 44.8139L20.8659 42.6869ZM16.5683 31.6864L20.8659 27.3888V21.3259L18.7326 19.1925L6.23873 31.6864H16.5683ZM21.3123 20.8667H27.3881L31.6798 16.5749V6.24533L19.1859 18.7392L21.3129 20.8661L21.3123 20.8667ZM32.3193 16.5749L36.611 20.8667H42.6867L44.8137 18.7397L32.3198 6.24587V16.5755L32.3193 16.5749ZM43.1326 21.3253V27.3883L47.4302 31.6859H57.7598L45.2659 19.192L43.1326 21.3253ZM47.4179 32.3264L43.1326 36.6117V42.6875L45.2595 44.8144L57.7475 32.3264H47.4179Z" fill="white"/>
<g filter="url(#filter0_f_549_2111)">
<path d="M32 46L22 36L18 32L32 18L46 32L32 46Z" fill="white"/>
</g>
<g filter="url(#filter1_f_549_2111)">
<path d="M32 46L22 36L18 32L32 18L46 32L32 46Z" fill="white"/>
</g>
<defs>
<filter id="filter0_f_549_2111" x="6" y="6" width="52" height="52" filterUnits="userSpaceOnUse" color-interpolation-filters="sRGB">
<feFlood flood-opacity="0" result="BackgroundImageFix"/>
<feBlend mode="normal" in="SourceGraphic" in2="BackgroundImageFix" result="shape"/>
<feGaussianBlur stdDeviation="6" result="effect1_foregroundBlur_549_2111"/>
</filter>
<filter id="filter1_f_549_2111" x="14" y="14" width="36" height="36" filterUnits="userSpaceOnUse" color-interpolation-filters="sRGB">
<feFlood flood-opacity="0" result="BackgroundImageFix"/>
<feBlend mode="normal" in="SourceGraphic" in2="BackgroundImageFix" result="shape"/>
<feGaussianBlur stdDeviation="2" result="effect1_foregroundBlur_549_2111"/>
</filter>
</defs>
</svg>
