<svg width="137" height="60" viewBox="0 0 137 60" fill="none" xmlns="http://www.w3.org/2000/svg">
<g clip-path="url(#clip0_122_521)">
<path fill-rule="evenodd" clip-rule="evenodd" d="M10.5941 16H29.501L40 25.7084L38.1546 27.3803C37.8238 27.6801 37.3432 28.1157 36.7438 28.659C35.545 29.7456 33.8712 31.2632 31.9714 32.9867C28.1713 36.4341 23.4677 40.7047 19.8509 44L17.3422 41.5652C20.962 38.2672 25.668 33.9945 29.4683 30.5468C31.3686 28.8229 33.0427 27.305 34.2418 26.2182C34.4536 26.0261 34.6506 25.8476 34.8314 25.6837L28.0254 19.3902H24.9101L31.3122 25.5126L15.6368 40.0103L0 25.4684L10.5941 16ZM15.4572 19.3902H12.034L5.17907 25.5167L15.6438 35.2487L26.2141 25.4725L20.3988 19.9113H20.0514L13.9014 25.5546L15.644 27.1387L19.9432 23.2533L22.4413 25.6977L15.6367 31.8473L8.7268 25.5661L15.4572 19.3902Z" fill="white"/>
<path d="M60.597 16.52C63.198 16.52 64.167 21.671 65.901 21.671C66.054 21.671 66.258 21.62 66.462 21.518L66.615 21.824C66.054 23.252 64.677 25.496 63.3 25.394C61.107 25.241 60.75 20.09 58.098 20.09C57.384 20.09 56.058 22.589 55.599 26.771V37.838L56.211 41.408L55.905 41.612C55.905 41.612 54.069 41.051 49.428 41.051V40.592C49.428 40.592 51.111 40.949 51.264 38.195V20.651L48.714 19.376V19.07C51.111 18.56 54.528 17.132 54.885 16.724C55.14 16.418 55.599 17.081 55.599 17.081V24.68C56.364 21.518 57.231 16.52 60.597 16.52ZM85.1073 37.175L85.3623 37.583C83.4753 39.674 82.5573 41.51 82.5573 41.51L82.2003 41.612L78.0693 39.725V36.359C77.3553 39.317 75.7233 41.612 72.5613 41.612C68.8383 41.612 65.6253 38.756 65.6253 33.605C65.6253 27.179 69.6543 24.221 73.4793 24.221C74.9073 24.221 76.5393 25.037 77.4063 26.159C76.1823 23.609 73.3773 21.416 70.1643 21.416C68.9403 21.11 67.4613 19.019 67.4613 19.019L67.4103 18.662C67.9203 17.999 68.0223 16.622 74.2953 16.622C81.3843 16.622 82.4553 23.966 82.4553 23.966V37.226C82.4553 38.399 82.4043 40.184 82.7613 40.184C82.8633 40.184 83.3733 39.623 83.8833 39.011C84.5463 38.195 85.1073 37.175 85.1073 37.175ZM78.0693 27.179V23.966C78.0693 23.507 77.8653 17.132 74.3463 17.132C74.1423 17.132 71.4903 19.529 70.7763 20.753C74.2443 21.365 77.1513 23.966 78.0693 27.179ZM78.0693 34.166V28.505C77.5083 26.21 75.9783 24.986 74.5503 24.986C71.8473 24.986 69.9603 28.658 69.9603 33.146C69.9603 37.073 71.4393 40.694 74.0403 40.694C76.5393 40.694 77.7123 36.869 78.0693 34.166ZM97.9983 16.52C100.599 16.52 101.568 21.671 103.302 21.671C103.455 21.671 103.659 21.62 103.863 21.518L104.016 21.824C103.455 23.252 102.078 25.496 100.701 25.394C98.5083 25.241 98.1513 20.09 95.4993 20.09C94.7853 20.09 93.4593 22.589 93.0003 26.771V37.838L93.6123 41.408L93.3063 41.612C93.3063 41.612 91.4703 41.051 86.8293 41.051V40.592C86.8293 40.592 88.5123 40.949 88.6653 38.195V20.651L86.1153 19.376V19.07C88.5123 18.56 91.9293 17.132 92.2863 16.724C92.5413 16.418 93.0003 17.081 93.0003 17.081V24.68C93.7653 21.518 94.6323 16.52 97.9983 16.52ZM115.789 22.844C120.073 23.762 123.337 27.536 123.337 32.687C123.286 38.093 119.818 41.612 115.381 41.612C109.21 41.612 104.875 36.716 104.875 29.117C104.875 21.467 108.955 16.622 115.177 16.622C117.064 16.622 122.266 18.968 122.317 22.028C121.858 22.691 120.991 23.507 120.328 23.507C119.92 23.507 119.665 23.252 119.461 22.844H115.789ZM115.228 17.03C112.78 17.03 111.199 19.376 110.281 22.334H119.206C118.492 20.447 118.135 17.03 115.228 17.03ZM110.128 22.844C109.465 25.292 109.159 28.046 109.159 30.137C109.159 35.951 111.505 41.102 115.738 41.102C119.665 41.102 122.98 37.532 122.98 32.687C122.98 27.485 119.002 22.844 113.698 22.844H110.128Z" fill="#FCFCFC"/>
</g>
<defs>
<clipPath id="clip0_122_521">
<rect width="137" height="60" fill="white"/>
</clipPath>
</defs>
</svg>
